<?xml version="1.0" encoding="UTF-8" standalone="no"?>
<svg
   xmlns:dc="http://purl.org/dc/elements/1.1/"
   xmlns:cc="http://creativecommons.org/ns#"
   xmlns:rdf="http://www.w3.org/1999/02/22-rdf-syntax-ns#"
   xmlns:svg="http://www.w3.org/2000/svg"
   xmlns="http://www.w3.org/2000/svg"
   viewBox="0 0 630 630"
   version="1.1"
   id="svg1080">
  <metadata
     id="metadata1086">
    <rdf:RDF>
      <cc:Work
         rdf:about="">
        <dc:format>image/svg+xml</dc:format>
        <dc:type
           rdf:resource="http://purl.org/dc/dcmitype/StillImage" />
        <dc:title></dc:title>
      </cc:Work>
    </rdf:RDF>
  </metadata>
  <defs
     id="defs1084" />
  <rect
     width="630"
     height="630"
     id="rect1076"
     style="fill:#000000"
     x="0"
     y="0" />
  <g
     transform="translate(69.852295,70.373037)"
     id="g5012"
     style="fill:#ffffff" />
  <g
     transform="translate(69.852295,70.373037)"
     id="g5014"
     style="fill:#ffffff" />
  <g
     transform="translate(69.852295,70.373037)"
     id="g5016"
     style="fill:#ffffff" />
  <g
     transform="translate(69.852295,70.373037)"
     id="g5018"
     style="fill:#ffffff" />
  <g
     transform="translate(69.852295,70.373037)"
     id="g5020"
     style="fill:#ffffff" />
  <g
     transform="translate(69.852295,70.373037)"
     id="g5022"
     style="fill:#ffffff" />
  <g
     transform="translate(69.852295,70.373037)"
     id="g5024"
     style="fill:#ffffff" />
  <g
     transform="translate(69.852295,70.373037)"
     id="g5026"
     style="fill:#ffffff" />
  <g
     transform="translate(69.852295,70.373037)"
     id="g5028"
     style="fill:#ffffff" />
  <g
     transform="translate(69.852295,70.373037)"
     id="g5030"
     style="fill:#ffffff" />
  <g
     transform="translate(69.852295,70.373037)"
     id="g5032"
     style="fill:#ffffff" />
  <g
     transform="translate(69.852295,70.373037)"
     id="g5034"
     style="fill:#ffffff" />
  <g
     transform="translate(69.852295,70.373037)"
     id="g5036"
     style="fill:#ffffff" />
  <g
     transform="translate(69.852295,70.373037)"
     id="g5038"
     style="fill:#ffffff" />
  <g
     transform="translate(69.852295,70.373037)"
     id="g5040"
     style="fill:#ffffff" />
  <g
     transform="matrix(11.17734,0,0,11.17734,46.74344,46.74401)"
     id="surface1">
    <path
       style="fill:#ffffff;fill-rule:evenodd"
       d="m 22.902344,3.285156 c 0.679687,-0.378906 1.515625,-0.378906 2.195312,0 3.351563,1.882813 13.449219,7.550782 16.804688,9.433594 C 42.582031,13.101563 43,13.804688 43,14.566406 c 0,3.765625 0,15.101563 0,18.867188 0,0.761719 -0.417969,1.464844 -1.097656,1.847656 -3.355469,1.882813 -13.449219,7.550781 -16.804688,9.433594 -0.679687,0.378906 -1.515625,0.378906 -2.195312,0 C 19.546875,42.832031 9.453125,37.164063 6.097656,35.28125 5.417969,34.898438 5,34.195313 5,33.433594 5,29.667969 5,18.332031 5,14.566406 5,13.804688 5.417969,13.101563 6.097656,12.71875 9.449219,10.835938 19.550781,5.167969 22.902344,3.285156 Z"
       id="path10547" />
    <path
       style="fill:#ffffff;fill-rule:evenodd"
       d="M 5.304688,34.402344 C 5.039063,34.046875 5,33.710938 5,33.253906 5,29.511719 5,18.242188 5,14.496094 5,13.738281 5.417969,13.039063 6.09375,12.660156 9.4375,10.789063 19.5,5.152344 22.84375,3.28125 c 0.675781,-0.378906 1.59375,-0.371094 2.269531,0.00781 3.34375,1.871093 13.371094,7.457031 16.714844,9.328125 0.269531,0.152343 0.476563,0.335937 0.660156,0.578125 z"
       id="path10549" />
    <path
       style="fill:#000000;fill-rule:evenodd"
       d="m 24,10 c 7.726563,0 14,6.273438 14,14 0,7.726563 -6.273437,14 -14,14 -7.726562,0 -14,-6.273437 -14,-14 0,-7.726562 6.273438,-14 14,-14 z m 0,7 c 3.863281,0 7,3.136719 7,7 0,3.863281 -3.136719,7 -7,7 -3.863281,0 -7,-3.136719 -7,-7 0,-3.863281 3.136719,-7 7,-7 z"
       id="path10551" />
    <path
       style="fill:#ffffff;fill-rule:evenodd"
       d="M 42.484375,13.203125 C 43,13.6875 42.992188,14.414063 42.992188,14.988281 c 0,3.796875 -0.03125,14.589844 0.0078,18.382813 0.0039,0.398437 -0.128906,0.816406 -0.324219,1.128906 L 23.59375,24 Z"
       id="path10553" />
  </g>
</svg>
