<?xml version="1.0" encoding="UTF-8" standalone="no"?>
<svg viewBox="0 0 630 630" >
  <g transform="translate(69.852295,70.373037)" />
  <g transform="translate(69.852295,70.373037)" />
  <g transform="translate(69.852295,70.373037)" />
  <g transform="translate(69.852295,70.373037)" />
  <g transform="translate(69.852295,70.373037)" />
  <g transform="translate(69.852295,70.373037)" />
  <g transform="translate(69.852295,70.373037)" />
  <g transform="translate(69.852295,70.373037)" />
  <g transform="translate(69.852295,70.373037)" />
  <g transform="translate(69.852295,70.373037)" />
  <g transform="translate(69.852295,70.373037)" />
  <g transform="translate(69.852295,70.373037)" />
  <g transform="translate(69.852295,70.373037)" />
  <g transform="translate(69.852295,70.373037)" />
  <g transform="translate(69.852295,70.373037)" />
  <g transform="matrix(0.83366848,0,0,0.83366848,77.243543,84.936268)" />
  <g transform="matrix(0.83366848,0,0,0.83366848,77.243543,84.936268)" />
  <g transform="matrix(0.83366848,0,0,0.83366848,77.243543,84.936268)" />
  <g transform="matrix(0.83366848,0,0,0.83366848,77.243543,84.936268)" />
  <g transform="matrix(0.83366848,0,0,0.83366848,77.243543,84.936268)" />
  <g transform="matrix(0.83366848,0,0,0.83366848,77.243543,84.936268)" />
  <g transform="matrix(0.83366848,0,0,0.83366848,77.243543,84.936268)" />
  <g transform="matrix(0.83366848,0,0,0.83366848,77.243543,84.936268)" />
  <g transform="matrix(0.83366848,0,0,0.83366848,77.243543,84.936268)" />
  <g transform="matrix(0.83366848,0,0,0.83366848,77.243543,84.936268)" />
  <g transform="matrix(0.83366848,0,0,0.83366848,77.243543,84.936268)" />
  <g transform="matrix(0.83366848,0,0,0.83366848,77.243543,84.936268)" />
  <g transform="matrix(0.83366848,0,0,0.83366848,77.243543,84.936268)" />
  <g transform="matrix(0.83366848,0,0,0.83366848,77.243543,84.936268)" />
  <g transform="matrix(0.83366848,0,0,0.83366848,77.243543,84.936268)" />
  <path
     d="m 478.7927,224.46432 a 107.84921,107.84921 0 0 0 -58.04958,16.88054 L 314.9968,319.0094 259.25847,278.07849 c -3.35952,5.45179 -6.7403,10.86955 -9.9765,16.47868 -0.78035,1.35019 -1.50328,2.71738 -2.27087,4.06545 l 46.58894,34.21185 -97.76214,71.78749 a 84.256001,84.256001 0 0 1 -44.63914,12.76832 c -46.62083,0 -84.555794,-37.93072 -84.555794,-84.55581 0,-46.62721 37.928584,-84.5558 84.555794,-84.5558 a 84.185833,84.185833 0 0 1 44.63914,12.76619 l 9.7171,7.13154 c 4.01655,-6.94018 8.17768,-13.71876 12.37921,-20.44844 l -8.68586,-6.37884 a 107.78117,107.78117 0 0 0 -58.04959,-16.87629 c -59.844164,-0.002 -108.363764,48.51747 -108.363764,108.36164 0,59.84418 48.51322,108.36165 108.363764,108.36165 21.36487,0 41.26899,-6.20874 58.04959,-16.87842 L 314.99893,346.65742 370.952,387.7478 c 3.42757,-5.61551 6.84662,-11.25015 10.22954,-17.12081 0.66978,-1.16308 1.27576,-2.31765 1.93703,-3.48285 l -46.71863,-34.30967 97.75576,-71.78961 a 84.273009,84.273009 0 0 1 44.63913,-12.76619 c 46.6272,0 84.55582,37.92859 84.55582,84.5558 0,46.62509 -37.92862,84.55581 -84.55582,84.55581 A 84.200716,84.200716 0 0 1 434.1557,404.62196 l -9.57678,-7.03161 a 864.28847,864.28847 0 0 1 -12.2899,20.51011 l 8.46261,6.20874 a 107.79606,107.79606 0 0 0 58.04958,16.88267 c 59.84418,0 108.36378,-48.52173 108.36378,-108.36378 -0.008,-59.84417 -48.52173,-108.36377 -108.37229,-108.36377 z"
     style="fill:#ffffff;stroke-width:2.12628078" />
</svg>
