<?xml version="1.0" encoding="UTF-8" standalone="no"?>
<svg
   xmlns:dc="http://purl.org/dc/elements/1.1/"
   xmlns:cc="http://creativecommons.org/ns#"
   xmlns:rdf="http://www.w3.org/1999/02/22-rdf-syntax-ns#"
   xmlns:svg="http://www.w3.org/2000/svg"
   xmlns="http://www.w3.org/2000/svg"
   viewBox="0 0 630 630"
   version="1.1"
   id="svg1080">
  <metadata
     id="metadata1086">
    <rdf:RDF>
      <cc:Work
         rdf:about="">
        <dc:format>image/svg+xml</dc:format>
        <dc:type
           rdf:resource="http://purl.org/dc/dcmitype/StillImage" />
        <dc:title></dc:title>
      </cc:Work>
    </rdf:RDF>
  </metadata>
  <defs
     id="defs1084" />
  <rect
     width="630"
     height="630"
     x="0"
     y="0" />
  <path
     d="m423.2 492.19c12.69 20.72 29.2 35.95 58.4 35.95 24.53 0 40.2-12.26 40.2-29.2 0-20.3-16.1-27.49-43.1-39.3l-14.8-6.35c-42.72-18.2-71.1-41-71.1-89.2 0-44.4 33.83-78.2 86.7-78.2 37.64 0 64.7 13.1 84.2 47.4l-46.1 29.6c-10.15-18.2-21.1-25.37-38.1-25.37-17.34 0-28.33 11-28.33 25.37 0 17.76 11 24.95 36.4 35.95l14.8 6.34c50.3 21.57 78.7 43.56 78.7 93 0 53.3-41.87 82.5-98.1 82.5-54.98 0-90.5-26.2-107.88-60.54zm-209.13 5.13c9.3 16.5 17.76 30.45 38.1 30.45 19.45 0 31.72-7.61 31.72-37.2v-201.3h59.2v202.1c0 61.3-35.94 89.2-88.4 89.2-47.4 0-74.85-24.53-88.81-54.075z"
     id="path1078" />
  <g
     transform="translate(77.722,77.7215)"
     id="g5010"
     style="fill:#ffffff">
    <g
       id="g4978"
       style="fill:#ffffff">
      <g
         id="g4976"
         style="fill:#ffffff">
        <path
           d="M 402.241,0 H 72.294 C 55.965,0 42.591,13.395 42.591,29.681 v 415.151 c 0,16.351 13.374,29.725 29.703,29.725 h 329.968 c 16.308,0 29.703,-13.374 29.703,-29.725 V 29.681 C 431.944,13.395 418.549,0 402.241,0 Z M 93.434,50.864 H 391.197 V 249.423 H 93.434 Z M 207.5,400.915 h -34.556 v 34.556 h -39.777 v -34.556 h -34.6 v -39.798 h 34.6 v -34.578 h 39.777 v 34.578 H 207.5 Z m 78,7.312 c -15.725,0 -28.43,-12.748 -28.43,-28.452 0,-15.747 12.748,-28.473 28.43,-28.473 15.747,0 28.473,12.727 28.473,28.473 0.022,15.725 -12.705,28.452 -28.473,28.452 z m 81.71,0 c -15.725,0 -28.452,-12.748 -28.452,-28.452 0,-15.747 12.791,-28.473 28.452,-28.473 15.725,0 28.473,12.727 28.473,28.473 0.022,15.725 -12.726,28.452 -28.473,28.452 z"
           id="path4974"
           style="fill:#ffffff" />
      </g>
    </g>
    <g
       id="g4980"
       style="fill:#ffffff" />
    <g
       id="g4982"
       style="fill:#ffffff" />
    <g
       id="g4984"
       style="fill:#ffffff" />
    <g
       id="g4986"
       style="fill:#ffffff" />
    <g
       id="g4988"
       style="fill:#ffffff" />
    <g
       id="g4990"
       style="fill:#ffffff" />
    <g
       id="g4992"
       style="fill:#ffffff" />
    <g
       id="g4994"
       style="fill:#ffffff" />
    <g
       id="g4996"
       style="fill:#ffffff" />
    <g
       id="g4998"
       style="fill:#ffffff" />
    <g
       id="g5000"
       style="fill:#ffffff" />
    <g
       id="g5002"
       style="fill:#ffffff" />
    <g
       id="g5004"
       style="fill:#ffffff" />
    <g
       id="g5006"
       style="fill:#ffffff" />
    <g
       id="g5008"
       style="fill:#ffffff" />
  </g>
  <g
     transform="translate(69.852295,70.373037)"
     id="g5012"
     style="fill:#ffffff" />
  <g
     transform="translate(69.852295,70.373037)"
     id="g5014"
     style="fill:#ffffff" />
  <g
     transform="translate(69.852295,70.373037)"
     id="g5016"
     style="fill:#ffffff" />
  <g
     transform="translate(69.852295,70.373037)"
     id="g5018"
     style="fill:#ffffff" />
  <g
     transform="translate(69.852295,70.373037)"
     id="g5020"
     style="fill:#ffffff" />
  <g
     transform="translate(69.852295,70.373037)"
     id="g5022"
     style="fill:#ffffff" />
  <g
     transform="translate(69.852295,70.373037)"
     id="g5024"
     style="fill:#ffffff" />
  <g
     transform="translate(69.852295,70.373037)"
     id="g5026"
     style="fill:#ffffff" />
  <g
     transform="translate(69.852295,70.373037)"
     id="g5028"
     style="fill:#ffffff" />
  <g
     transform="translate(69.852295,70.373037)"
     id="g5030"
     style="fill:#ffffff" />
  <g
     transform="translate(69.852295,70.373037)"
     id="g5032"
     style="fill:#ffffff" />
  <g
     transform="translate(69.852295,70.373037)"
     id="g5034"
     style="fill:#ffffff" />
  <g
     transform="translate(69.852295,70.373037)"
     id="g5036"
     style="fill:#ffffff" />
  <g
     transform="translate(69.852295,70.373037)"
     id="g5038"
     style="fill:#ffffff" />
  <g
     transform="translate(69.852295,70.373037)"
     id="g5040"
     style="fill:#ffffff" />
</svg>
