<?xml version="1.0" encoding="UTF-8" standalone="no"?>
<svg viewBox="0 0 630 630">
  <path d="m423.2 492.19c12.69 20.72 29.2 35.95 58.4 35.95 24.53 0 40.2-12.26 40.2-29.2 0-20.3-16.1-27.49-43.1-39.3l-14.8-6.35c-42.72-18.2-71.1-41-71.1-89.2 0-44.4 33.83-78.2 86.7-78.2 37.64 0 64.7 13.1 84.2 47.4l-46.1 29.6c-10.15-18.2-21.1-25.37-38.1-25.37-17.34 0-28.33 11-28.33 25.37 0 17.76 11 24.95 36.4 35.95l14.8 6.34c50.3 21.57 78.7 43.56 78.7 93 0 53.3-41.87 82.5-98.1 82.5-54.98 0-90.5-26.2-107.88-60.54zm-209.13 5.13c9.3 16.5 17.76 30.45 38.1 30.45 19.45 0 31.72-7.61 31.72-37.2v-201.3h59.2v202.1c0 61.3-35.94 89.2-88.4 89.2-47.4 0-74.85-24.53-88.81-54.075z" />
  <g transform="translate(77.722,77.7215)">
    <g>
      <g>
        <path d="M 402.241,0 H 72.294 C 55.965,0 42.591,13.395 42.591,29.681 v 415.151 c 0,16.351 13.374,29.725 29.703,29.725 h 329.968 c 16.308,0 29.703,-13.374 29.703,-29.725 V 29.681 C 431.944,13.395 418.549,0 402.241,0 Z M 93.434,50.864 H 391.197 V 249.423 H 93.434 Z M 207.5,400.915 h -34.556 v 34.556 h -39.777 v -34.556 h -34.6 v -39.798 h 34.6 v -34.578 h 39.777 v 34.578 H 207.5 Z m 78,7.312 c -15.725,0 -28.43,-12.748 -28.43,-28.452 0,-15.747 12.748,-28.473 28.43,-28.473 15.747,0 28.473,12.727 28.473,28.473 0.022,15.725 -12.705,28.452 -28.473,28.452 z m 81.71,0 c -15.725,0 -28.452,-12.748 -28.452,-28.452 0,-15.747 12.791,-28.473 28.452,-28.473 15.725,0 28.473,12.727 28.473,28.473 0.022,15.725 -12.726,28.452 -28.473,28.452 z" />
      </g>
    </g>
    <g/>
    <g/>
    <g/>
    <g/>
    <g/>
    <g/>
    <g/>
    <g/>
    <g/>
    <g/>
    <g/>
    <g/>
    <g/>
    <g/>
    <g/>
  </g>
  <g transform="translate(69.852295,70.373037)" />
  <g transform="translate(69.852295,70.373037)" />
  <g transform="translate(69.852295,70.373037)" />
  <g transform="translate(69.852295,70.373037)" />
  <g transform="translate(69.852295,70.373037)" />
  <g transform="translate(69.852295,70.373037)" />
  <g transform="translate(69.852295,70.373037)" />
  <g transform="translate(69.852295,70.373037)" />
  <g transform="translate(69.852295,70.373037)" />
  <g transform="translate(69.852295,70.373037)" />
  <g transform="translate(69.852295,70.373037)" />
  <g transform="translate(69.852295,70.373037)" />
  <g transform="translate(69.852295,70.373037)" />
  <g transform="translate(69.852295,70.373037)" />
  <g transform="translate(69.852295,70.373037)" />
</svg>
