<?xml version="1.0" encoding="UTF-8" standalone="no"?>
<svg
   xmlns:dc="http://purl.org/dc/elements/1.1/"
   xmlns:cc="http://creativecommons.org/ns#"
   xmlns:rdf="http://www.w3.org/1999/02/22-rdf-syntax-ns#"
   xmlns:svg="http://www.w3.org/2000/svg"
   xmlns="http://www.w3.org/2000/svg"
   viewBox="0 0 630 630"
   version="1.1"
   id="svg1080">
  <metadata
     id="metadata1086">
    <rdf:RDF>
      <cc:Work
         rdf:about="">
        <dc:format>image/svg+xml</dc:format>
        <dc:type
           rdf:resource="http://purl.org/dc/dcmitype/StillImage" />
        <dc:title></dc:title>
      </cc:Work>
    </rdf:RDF>
  </metadata>
  <defs
     id="defs1084" />
  <rect
     width="630"
     height="630"
     id="rect1076"
     style="fill:#000000"
     x="0"
     y="0" />
  <path
     d="m423.2 492.19c12.69 20.72 29.2 35.95 58.4 35.95 24.53 0 40.2-12.26 40.2-29.2 0-20.3-16.1-27.49-43.1-39.3l-14.8-6.35c-42.72-18.2-71.1-41-71.1-89.2 0-44.4 33.83-78.2 86.7-78.2 37.64 0 64.7 13.1 84.2 47.4l-46.1 29.6c-10.15-18.2-21.1-25.37-38.1-25.37-17.34 0-28.33 11-28.33 25.37 0 17.76 11 24.95 36.4 35.95l14.8 6.34c50.3 21.57 78.7 43.56 78.7 93 0 53.3-41.87 82.5-98.1 82.5-54.98 0-90.5-26.2-107.88-60.54zm-209.13 5.13c9.3 16.5 17.76 30.45 38.1 30.45 19.45 0 31.72-7.61 31.72-37.2v-201.3h59.2v202.1c0 61.3-35.94 89.2-88.4 89.2-47.4 0-74.85-24.53-88.81-54.075z"
     id="path1078" />
  <path
     style="opacity:1;fill:#ffffff;fill-opacity:1;fill-rule:nonzero;stroke:#ffffff;stroke-width:3.69736409;stroke-linejoin:bevel;stroke-miterlimit:4;stroke-dasharray:none;stroke-opacity:1"
     d="m 170.18257,466.71184 c -20.29838,-2.96051 -37.39891,-11.34803 -51.41483,-25.21809 -9.10154,-9.00682 -20.004288,-25.68225 -17.95929,-27.46819 1.82392,-1.59287 45.11416,-27.42681 45.95943,-27.42681 0.50292,0 2.60462,2.8894 4.67046,6.42089 5.36056,9.16375 12.40527,16.48327 18.9645,19.70431 5.02067,2.46551 6.57341,2.7335 15.83813,2.7335 8.64972,0 11.04221,-0.35512 15.15086,-2.24888 5.97371,-2.75338 8.90428,-5.40129 11.43018,-10.32766 4.64991,-9.06894 4.68825,-10.05617 4.70633,-121.20064 l 0.017,-104.42934 h 29.34782 29.34783 l -8.2e-4,101.98369 c -4.9e-4,60.94227 -0.39735,106.16526 -0.98617,112.37445 -1.33902,14.12025 -4.00498,24.05426 -9.41923,35.09838 -3.7921,7.7352 -5.9671,10.70256 -12.97164,17.69725 -12.35341,12.33604 -24.83548,18.51593 -44.04996,21.80922 -9.85947,1.68986 -28.78557,1.93381 -38.63058,0.49792 z"
     id="path4793" />
  <path
     style="opacity:1;fill:#ffffff;fill-opacity:1;fill-rule:nonzero;stroke:#ffffff;stroke-width:3.69736409;stroke-linejoin:bevel;stroke-miterlimit:4;stroke-dasharray:none;stroke-opacity:1"
     d="m 389.71923,465.88239 c -31.96987,-5.83612 -57.53605,-22.02462 -74.25328,-47.01716 -3.28026,-4.90404 -5.94846,-9.43786 -5.92933,-10.07515 0.0409,-1.36279 45.54425,-27.80193 46.61084,-27.08263 0.39892,0.26902 3.41081,4.01087 6.69309,8.31521 13.68247,17.94301 29.52202,25.96358 51.3352,25.99426 19.02908,0.0268 31.335,-5.34615 37.9268,-16.55932 2.34334,-3.98621 2.67103,-5.56375 2.67103,-12.85885 0,-17.80357 -7.46948,-24.34249 -47.44565,-41.53483 -8.33968,-3.5866 -19.56522,-8.72757 -24.94565,-11.42438 -34.98924,-17.53746 -51.79238,-39.1619 -55.26798,-71.12598 -3.74157,-34.41004 11.83568,-63.80088 41.57232,-78.43783 15.40811,-7.58416 23.74299,-9.26499 45.48913,-9.17339 16.22818,0.0684 19.07629,0.33762 27.56911,2.60651 16.02871,4.28213 27.31074,10.82968 38.63124,22.41972 6.83579,6.99854 16.37042,20.392 15.24863,21.42 -1.20972,1.10856 -42.46395,27.4326 -43.78749,27.94049 -0.68448,0.26266 -2.35016,-1.47306 -3.81919,-3.97976 -3.82384,-6.5249 -11.43709,-13.68309 -17.89914,-16.82927 -5.15986,-2.51219 -6.64205,-2.76323 -16.43229,-2.78322 -9.84018,-0.0201 -11.19182,0.20532 -15.79775,2.63457 -13.09435,6.90617 -17.65989,22.86803 -10.37129,36.2596 4.65941,8.56086 12.51926,13.58413 39.37556,25.16506 34.96732,15.07857 50.86197,24.39592 64.17014,37.6162 12.79441,12.70989 19.513,26.47638 21.98214,45.04173 1.38151,10.38749 0.68286,25.64965 -1.58971,34.72826 -0.87545,3.49728 -3.58844,10.52675 -6.02888,15.62105 -3.82087,7.97589 -5.67649,10.4895 -13.36041,18.09782 -12.77145,12.64579 -25.81571,19.56433 -45.54567,24.15693 -12.67038,2.94933 -42.86337,3.40878 -56.80152,0.86436 z"
     id="path4795" />
</svg>
