<?xml version="1.0" encoding="UTF-8" standalone="no"?>
<svg
   xmlns:dc="http://purl.org/dc/elements/1.1/"
   xmlns:cc="http://creativecommons.org/ns#"
   xmlns:rdf="http://www.w3.org/1999/02/22-rdf-syntax-ns#"
   xmlns:svg="http://www.w3.org/2000/svg"
   xmlns="http://www.w3.org/2000/svg"
   width="256px"
   height="283px"
   viewBox="0 0 256 283"
   version="1.1"
   preserveAspectRatio="xMidYMid"
   id="svg50">
  <metadata
     id="metadata56">
    <rdf:RDF>
      <cc:Work
         rdf:about="">
        <dc:format>image/svg+xml</dc:format>
        <dc:type
           rdf:resource="http://purl.org/dc/dcmitype/StillImage" />
        <dc:title></dc:title>
      </cc:Work>
    </rdf:RDF>
  </metadata>
  <defs
     id="defs54" />
  <g
     id="g48">
    <path
       id="path44"
       d="m 114.00116,47.853476 22.92274,67.643864 c 1.03935,0.20672 2.05315,0.48481 3.03795,0.82432 L 162.75,70.243478 185.47225,116.59644 c 0.94389,-0.36248 1.91479,-0.66381 2.91178,-0.90283 l 23.00124,-67.840134 z m 18.32585,76.415644 c -7.87119,0 -14.27571,6.40381 -14.27571,14.27571 0,7.87191 6.40452,14.27712 14.27571,14.27712 7.87191,0 14.27571,-6.40521 14.27571,-14.27712 0,-7.87189 -6.4038,-14.27571 -14.27571,-14.27571 z m 61.53431,0 c -7.87119,0 -14.27572,6.40381 -14.27572,14.27571 0,7.87191 6.40453,14.27712 14.27572,14.27712 7.87262,0 14.27711,-6.40521 14.27711,-14.27712 0,-7.87189 -6.40449,-14.27571 -14.27711,-14.27571 z m -123.302735,0.13599 c -7.871187,0 -14.275712,6.40381 -14.275712,14.27571 0,7.87191 6.404525,14.27572 14.275712,14.27572 7.872622,0 14.277114,-6.40381 14.277114,-14.27572 0,-7.8719 -6.404492,-14.27571 -14.277114,-14.27571 z m 85.268755,14.27431 c -0.0731,12.89822 -10.58594,23.36854 -23.50033,23.36854 -1.19583,0 -2.37036,-0.092 -3.51881,-0.26496 -3.82865,6.04299 -8.48568,11.69906 -13.90421,16.81038 -8.38224,7.90779 -17.83173,13.76954 -28.087385,17.42161 l -1.879968,0.66871 -1.774825,-0.91124 c -12.972459,-6.6646 -19.15326,-20.7675 -15.223409,-33.73852 -2.122478,-0.23687 -4.159463,-0.75941 -6.074503,-1.52529 -0.636671,1.33579 -1.286017,2.68055 -1.954271,4.05295 -3.860944,7.93076 -7.853277,16.13134 -9.329752,25.03541 -1.593474,9.6111 -2.225065,27.15026 11.452254,36.62927 18.671639,12.94088 38.474409,3.10511 61.403919,-8.28392 11.45795,-5.69129 23.30756,-11.57643 35.53998,-14.59255 4.6261,-1.14127 9.36122,-1.82384 13.94066,-2.4842 8.54877,-1.23243 16.62372,-2.39763 23.36153,-6.3002 7.22805,-4.1861 12.17043,-11.17639 13.55934,-19.17822 1.05226,-6.06022 0.0675,-12.14495 -2.57392,-17.55199 -3.80424,2.65149 -8.42307,4.21276 -13.40232,4.21276 -12.8443,0 -23.30812,-10.35789 -23.49331,-23.15965 z"
       style="stroke-width:0.999998" />
  </g>
</svg>
