<?xml version="1.0" encoding="UTF-8" standalone="no"?>
<svg
   xmlns:dc="http://purl.org/dc/elements/1.1/"
   xmlns:cc="http://creativecommons.org/ns#"
   xmlns:rdf="http://www.w3.org/1999/02/22-rdf-syntax-ns#"
   xmlns:svg="http://www.w3.org/2000/svg"
   xmlns="http://www.w3.org/2000/svg"
   viewBox="0 0 630 630"
   version="1.1"
   id="svg1080">
  <metadata
     id="metadata1086">
    <rdf:RDF>
      <cc:Work
         rdf:about="">
        <dc:format>image/svg+xml</dc:format>
        <dc:type
           rdf:resource="http://purl.org/dc/dcmitype/StillImage" />
        <dc:title></dc:title>
      </cc:Work>
    </rdf:RDF>
  </metadata>
  <g
     transform="translate(69.852295,70.373037)"
     id="g5012"
     style="fill:#ffffff" />
  <g
     transform="translate(69.852295,70.373037)"
     id="g5014"
     style="fill:#ffffff" />
  <g
     transform="translate(69.852295,70.373037)"
     id="g5016"
     style="fill:#ffffff" />
  <g
     transform="translate(69.852295,70.373037)"
     id="g5018"
     style="fill:#ffffff" />
  <g
     transform="translate(69.852295,70.373037)"
     id="g5020"
     style="fill:#ffffff" />
  <g
     transform="translate(69.852295,70.373037)"
     id="g5022"
     style="fill:#ffffff" />
  <g
     transform="translate(69.852295,70.373037)"
     id="g5024"
     style="fill:#ffffff" />
  <g
     transform="translate(69.852295,70.373037)"
     id="g5026"
     style="fill:#ffffff" />
  <g
     transform="translate(69.852295,70.373037)"
     id="g5028"
     style="fill:#ffffff" />
  <g
     transform="translate(69.852295,70.373037)"
     id="g5030"
     style="fill:#ffffff" />
  <g
     transform="translate(69.852295,70.373037)"
     id="g5032"
     style="fill:#ffffff" />
  <g
     transform="translate(69.852295,70.373037)"
     id="g5034"
     style="fill:#ffffff" />
  <g
     transform="translate(69.852295,70.373037)"
     id="g5036"
     style="fill:#ffffff" />
  <g
     transform="translate(69.852295,70.373037)"
     id="g5038"
     style="fill:#ffffff" />
  <g
     transform="translate(69.852295,70.373037)"
     id="g5040"
     style="fill:#ffffff" />
  <g
     style="fill:#ffffff"
     id="g14"
     transform="matrix(0.83366848,0,0,0.83366848,77.243543,84.936268)" />
  <g
     style="fill:#ffffff"
     id="g16"
     transform="matrix(0.83366848,0,0,0.83366848,77.243543,84.936268)" />
  <g
     style="fill:#ffffff"
     id="g18"
     transform="matrix(0.83366848,0,0,0.83366848,77.243543,84.936268)" />
  <g
     style="fill:#ffffff"
     id="g20"
     transform="matrix(0.83366848,0,0,0.83366848,77.243543,84.936268)" />
  <g
     style="fill:#ffffff"
     id="g22"
     transform="matrix(0.83366848,0,0,0.83366848,77.243543,84.936268)" />
  <g
     style="fill:#ffffff"
     id="g24"
     transform="matrix(0.83366848,0,0,0.83366848,77.243543,84.936268)" />
  <g
     style="fill:#ffffff"
     id="g26"
     transform="matrix(0.83366848,0,0,0.83366848,77.243543,84.936268)" />
  <g
     style="fill:#ffffff"
     id="g28"
     transform="matrix(0.83366848,0,0,0.83366848,77.243543,84.936268)" />
  <g
     style="fill:#ffffff"
     id="g30"
     transform="matrix(0.83366848,0,0,0.83366848,77.243543,84.936268)" />
  <g
     style="fill:#ffffff"
     id="g32"
     transform="matrix(0.83366848,0,0,0.83366848,77.243543,84.936268)" />
  <g
     style="fill:#ffffff"
     id="g34"
     transform="matrix(0.83366848,0,0,0.83366848,77.243543,84.936268)" />
  <g
     style="fill:#ffffff"
     id="g36"
     transform="matrix(0.83366848,0,0,0.83366848,77.243543,84.936268)" />
  <g
     style="fill:#ffffff"
     id="g38"
     transform="matrix(0.83366848,0,0,0.83366848,77.243543,84.936268)" />
  <g
     style="fill:#ffffff"
     id="g40"
     transform="matrix(0.83366848,0,0,0.83366848,77.243543,84.936268)" />
  <g
     style="fill:#ffffff"
     id="g42"
     transform="matrix(0.83366848,0,0,0.83366848,77.243543,84.936268)" />
  <path
     style="fill:#ffffff;stroke-width:20.34105873"
     id="path392"
     d="M 518.33647,289.55986 C 475.41684,325.56344 411.13913,319.86801 375.13544,276.94837 338.92836,233.82536 344.62378,169.34416 387.54342,133.74734 l 10.37397,-7.72957 c -34.37644,37.02071 -36.61395,94.78922 -3.25453,134.86121 33.15593,39.4616 90.51769,47.19117 133.03045,19.7308 l -9.35684,8.95008 m -36.20708,83.19487 c -64.4812,54.31061 -160.69432,45.97079 -214.80155,-18.71379 -54.31061,-64.48108 -45.76741,-160.69432 18.71379,-215.20831 l 18.71367,-13.01837 c -49.22532,55.53113 -51.66622,140.35339 -2.4409,198.93554 49.22545,58.17553 133.03058,70.99039 196.29127,32.13892 l -16.47628,15.86601 m -22.98545,99.26439 C 368.82963,547.89131 233.96841,536.09345 158.09635,445.57576 82.427553,355.26145 94.225412,220.19686 184.53972,144.73143 l 22.57857,-16.06939 c -71.39714,77.29607 -75.87218,197.91853 -6.1023,281.1134 69.76975,82.9915 189.37521,99.67128 278.26563,42.91964 z" />
</svg>
