<?xml version="1.0" encoding="UTF-8" standalone="no"?>
<svg
   xmlns:dc="http://purl.org/dc/elements/1.1/"
   xmlns:cc="http://creativecommons.org/ns#"
   xmlns:rdf="http://www.w3.org/1999/02/22-rdf-syntax-ns#"
   xmlns:svg="http://www.w3.org/2000/svg"
   xmlns="http://www.w3.org/2000/svg"
   viewBox="0 0 630 630"
   version="1.1"
   id="svg1080">
  <metadata
     id="metadata1086">
    <rdf:RDF>
      <cc:Work
         rdf:about="">
        <dc:format>image/svg+xml</dc:format>
        <dc:type
           rdf:resource="http://purl.org/dc/dcmitype/StillImage" />
        <dc:title></dc:title>
      </cc:Work>
    </rdf:RDF>
  </metadata>
  <defs
     id="defs1084" />
  <rect
     width="630"
     height="630"
     id="rect1076"
     style="fill:#000000"
     x="0"
     y="0" />
  <path
     d="m423.2 492.19c12.69 20.72 29.2 35.95 58.4 35.95 24.53 0 40.2-12.26 40.2-29.2 0-20.3-16.1-27.49-43.1-39.3l-14.8-6.35c-42.72-18.2-71.1-41-71.1-89.2 0-44.4 33.83-78.2 86.7-78.2 37.64 0 64.7 13.1 84.2 47.4l-46.1 29.6c-10.15-18.2-21.1-25.37-38.1-25.37-17.34 0-28.33 11-28.33 25.37 0 17.76 11 24.95 36.4 35.95l14.8 6.34c50.3 21.57 78.7 43.56 78.7 93 0 53.3-41.87 82.5-98.1 82.5-54.98 0-90.5-26.2-107.88-60.54zm-209.13 5.13c9.3 16.5 17.76 30.45 38.1 30.45 19.45 0 31.72-7.61 31.72-37.2v-201.3h59.2v202.1c0 61.3-35.94 89.2-88.4 89.2-47.4 0-74.85-24.53-88.81-54.075z"
     id="path1078" />
  <g
     transform="translate(69.852295,70.373037)"
     id="g5012"
     style="fill:#ffffff" />
  <g
     transform="translate(69.852295,70.373037)"
     id="g5014"
     style="fill:#ffffff" />
  <g
     transform="translate(69.852295,70.373037)"
     id="g5016"
     style="fill:#ffffff" />
  <g
     transform="translate(69.852295,70.373037)"
     id="g5018"
     style="fill:#ffffff" />
  <g
     transform="translate(69.852295,70.373037)"
     id="g5020"
     style="fill:#ffffff" />
  <g
     transform="translate(69.852295,70.373037)"
     id="g5022"
     style="fill:#ffffff" />
  <g
     transform="translate(69.852295,70.373037)"
     id="g5024"
     style="fill:#ffffff" />
  <g
     transform="translate(69.852295,70.373037)"
     id="g5026"
     style="fill:#ffffff" />
  <g
     transform="translate(69.852295,70.373037)"
     id="g5028"
     style="fill:#ffffff" />
  <g
     transform="translate(69.852295,70.373037)"
     id="g5030"
     style="fill:#ffffff" />
  <g
     transform="translate(69.852295,70.373037)"
     id="g5032"
     style="fill:#ffffff" />
  <g
     transform="translate(69.852295,70.373037)"
     id="g5034"
     style="fill:#ffffff" />
  <g
     transform="translate(69.852295,70.373037)"
     id="g5036"
     style="fill:#ffffff" />
  <g
     transform="translate(69.852295,70.373037)"
     id="g5038"
     style="fill:#ffffff" />
  <g
     transform="translate(69.852295,70.373037)"
     id="g5040"
     style="fill:#ffffff" />
  <path
     style="clip-rule:evenodd;fill:#ffffff;fill-rule:evenodd;stroke-width:7.90582275"
     d="m 517.39804,457.39099 c -26.85996,-1.23345 -47.75924,1.01828 -65.38962,8.04338 -5.0772,1.9182 -13.14731,1.74957 -13.94437,8.10641 2.63091,2.75937 2.87978,7.12164 5.14994,10.86979 3.89069,6.80273 10.75152,16.02398 17.04748,20.86843 6.94598,5.5223 13.88428,11.03654 21.18404,15.90202 12.93653,8.33605 27.611,13.34778 40.2155,21.6769 7.29975,4.86547 14.5637,11.06656 21.85674,16.2561 3.63503,2.76451 5.90701,7.1849 10.55912,8.95856 0.008,-0.33994 0.0159,-0.67989 0.0236,-1.00387 -2.28431,-3.07633 -2.85685,-7.46114 -5.15,-10.8698 -3.28132,-3.42139 -6.58517,-6.51899 -9.87421,-9.94845 -9.46392,-13.3085 -21.31829,-24.99062 -34.22692,-34.66245 -10.60281,-7.6231 -33.90688,-18.19224 -38.01784,-30.72463 0,0 -0.33283,-0.33125 -0.66566,-0.67832 7.41217,-0.50913 16.20236,-3.01417 23.30296,-4.89015 11.48472,-2.78853 21.89637,-1.90672 33.70473,-4.67265 5.41905,-1.24682 10.82077,-2.80245 16.23074,-4.37366 0.0236,-1.00389 0.0395,-2.02349 0.0633,-3.0273 -5.9281,-6.17318 -10.10672,-14.33413 -16.38189,-20.17455 -16.82715,-15.13877 -35.34481,-29.98077 -54.57547,-42.48921 -10.27718,-6.93616 -23.63865,-11.58827 -34.60086,-17.52665 -3.98896,-2.09979 -10.6784,-3.25174 -12.97156,-6.66042 -5.89988,-7.52476 -9.03983,-17.33249 -13.22825,-26.15783 -9.35157,-18.68336 -18.34491,-39.37558 -26.33185,-59.03459 -5.78066,-13.2316 -9.19004,-26.41352 -16.33556,-38.66137 -33.4181,-57.84635 -70.33419,-93.23716 -127.40378,-128.38486 -12.29355,-7.31842 -27.00322,-10.64653 -42.71825,-14.67574 -8.3872,-0.50755 -16.77528,-1.35481 -25.17805,-1.87043 -5.32562,-2.4678 -10.55918,-8.95857 -15.20678,-12.084294 C 135.6443,83.008023 86.791538,55.765509 71.959334,90.082706 62.428953,111.73209 84.49838,133.70183 91.988756,144.96058 c 5.553121,7.84969 12.760934,16.73813 16.609494,25.55643 2.22818,5.75584 2.78143,11.82459 5.00256,17.92021 5.08172,14.89338 9.76458,31.46264 16.53504,45.38702 3.55943,7.13586 7.43614,14.61043 12.00569,21.08735 2.61012,3.75527 7.27012,5.52901 8.15534,11.60473 -4.85126,6.62 -5.40182,16.6906 -8.26474,25.03655 -12.879,37.71867 -9.17496,84.85388 7.37819,113.10558 5.21498,8.51472 17.59384,27.26133 34.87747,20.56106 15.23895,-5.73076 12.27214,-24.95274 16.99413,-41.65758 1.10403,-4.01767 0.48066,-6.71932 2.55989,-9.35646 -0.007,0.33203 -0.0158,0.67198 -0.0158,0.67198 4.5143,9.50431 9.01178,18.67617 13.18613,28.17344 10.07351,16.6819 27.85528,34.1971 42.74503,45.93472 7.93578,6.21516 14.10454,16.76618 24.11284,20.67617 0.008,-0.33995 0.0159,-0.6799 0.0238,-1.01969 -0.33995,-0.008 -0.33995,-0.008 -0.67989,-0.0159 -1.9605,-3.05378 -4.94359,-4.47619 -7.58193,-6.87989 -5.92817,-6.17316 -12.4999,-13.712 -17.05468,-20.52074 -13.7313,-19.11486 -25.72111,-40.20973 -36.36115,-61.94061 -5.15729,-10.52203 -9.62132,-22.04965 -13.77455,-32.55863 -1.93923,-4.07331 -1.81281,-10.12 -5.12204,-12.20555 -5.20518,7.28474 -12.729,13.51681 -16.60966,22.50565 -6.68058,14.31538 -7.73252,32.1091 -10.45837,50.53995 -1.36645,0.30358 -0.67989,-0.0159 -1.37355,0.64354 -10.6855,-2.91188 -14.14495,-14.07846 -17.99523,-23.56894 -9.57903,-24.07305 -10.4463,-62.41123 -1.13655,-89.77448 2.49507,-7.00921 13.0363,-28.97752 9.14561,-35.78024 -1.88996,-6.42878 -8.52334,-10.26025 -12.125,-15.38054 -4.23744,-6.47788 -8.75609,-14.63802 -11.63587,-21.75965 -7.67687,-18.98039 -11.27251,-39.89983 -19.62115,-58.90219 -3.84854,-8.81831 -10.70937,-18.03958 -16.25547,-26.22115 -6.188929,-9.2072 -13.121693,-15.74144 -17.931918,-26.59622 -1.606301,-3.73431 -3.827448,-9.83001 -1.055827,-13.8049 0.736028,-2.673198 2.08501,-3.657157 4.802083,-4.264641 4.448289,-3.607743 16.775192,1.354901 21.104042,3.461801 12.31987,5.30244 22.64726,10.21536 32.91732,17.49147 4.62482,3.45738 9.53418,9.94925 15.5535,11.75936 2.34749,0.0475 4.69503,0.098 7.05834,0.14784 10.69262,2.57209 22.83675,1.14942 32.85128,4.37943 17.68083,6.07878 33.63731,14.82594 47.89648,24.19387 43.42724,28.8055 78.89402,69.21887 102.43819,117.10886 3.86951,7.81443 5.40568,14.90003 8.92038,23.04714 6.71425,16.61172 15.09718,33.5905 21.8184,49.87024 6.72834,15.93996 13.10194,32.20453 22.9136,45.52029 4.90321,7.16396 24.98154,11.27639 33.97021,15.16505 6.67117,3.16002 17.03246,6.07307 22.994,9.89049 11.27395,7.29707 22.53477,15.5981 33.1307,23.55318 5.26663,4.15079 21.88719,12.90388 22.76647,19.64368 z"
     id="path5783" />
  <path
     style="clip-rule:evenodd;fill:#ffffff;fill-rule:evenodd;stroke-width:7.90582275"
     d="m 180.77114,158.23485 c -5.71466,-0.1194 -9.75191,0.46802 -13.80396,1.38794 0,0 -0.008,0.33995 -0.0159,0.67199 0.33995,0.007 0.33995,0.007 0.6641,0.0158 2.575,5.43098 7.20876,9.22064 10.45371,14.00137 2.59089,5.43129 4.82602,10.8551 7.40095,16.29398 0.34708,-0.33283 0.69414,-0.65776 0.69414,-0.65776 4.7812,-3.26874 7.24086,-8.58652 7.40957,-16.65663 -1.97424,-2.39767 -2.24929,-4.75201 -3.88357,-7.14258 -1.96136,-3.39382 -6.29732,-5.16085 -8.92048,-7.91216 z"
     id="path5785" />
</svg>
