<?xml version="1.0" encoding="UTF-8" standalone="no"?>
<svg
   xmlns:dc="http://purl.org/dc/elements/1.1/"
   xmlns:cc="http://creativecommons.org/ns#"
   xmlns:rdf="http://www.w3.org/1999/02/22-rdf-syntax-ns#"
   xmlns:svg="http://www.w3.org/2000/svg"
   xmlns="http://www.w3.org/2000/svg"
   viewBox="0 0 630 630"
   version="1.1"
   id="svg1080">
  <metadata
     id="metadata1086">
    <rdf:RDF>
      <cc:Work
         rdf:about="">
        <dc:format>image/svg+xml</dc:format>
        <dc:type
           rdf:resource="http://purl.org/dc/dcmitype/StillImage" />
        <dc:title></dc:title>
      </cc:Work>
    </rdf:RDF>
  </metadata>
  <defs
     id="defs1084">
    <clipPath
       id="a">
      <path
         d="m 239.03,226.605 -42.13,24.317 c -1.578,0.91 -2.546,2.59 -2.546,4.406 v 48.668 c 0,1.817 0.968,3.496 2.546,4.406 l 42.133,24.336 c 1.575,0.907 3.517,0.907 5.09,0 l 42.126,-24.336 c 1.57,-0.91 2.54,-2.59 2.54,-4.406 v -48.668 c 0,-1.816 -0.97,-3.496 -2.55,-4.406 l -42.12,-24.317 c -0.79,-0.453 -1.67,-0.68 -2.55,-0.68 -0.88,0 -1.76,0.227 -2.55,0.68"
         id="path12746" />
    </clipPath>
    <linearGradient
       id="b"
       x1="-0.34799999"
       x2="1.251"
       gradientTransform="matrix(-38.064915,77.652126,-77.652126,-38.064915,258.72325,244.62943)"
       gradientUnits="userSpaceOnUse">
      <stop
         offset=".3"
         stop-color="#3E863D"
         id="stop12749" />
      <stop
         offset=".5"
         stop-color="#55934F"
         id="stop12751" />
      <stop
         offset=".8"
         stop-color="#5AAD45"
         id="stop12753" />
    </linearGradient>
    <clipPath
       id="c">
      <path
         d="m 195.398,307.086 c 0.403,0.523 0.907,0.976 1.5,1.316 l 36.14,20.875 6.02,3.46 c 0.9,0.52 1.926,0.74 2.934,0.665 0.336,-0.027 0.672,-0.09 1,-0.183 l 44.434,-81.36 c -0.34,-0.37 -0.738,-0.68 -1.184,-0.94 l -27.586,-15.93 -14.582,-8.39 c -0.414,-0.24 -0.863,-0.41 -1.32,-0.53 z m 0,0"
         id="path12756" />
    </clipPath>
    <linearGradient
       id="d"
       x1="-0.456"
       x2="0.58200002"
       gradientTransform="matrix(106.8057,-78.916731,78.916731,106.8057,235.18824,285.39477)"
       gradientUnits="userSpaceOnUse">
      <stop
         offset=".57"
         stop-color="#3E863D"
         id="stop12759" />
      <stop
         offset=".72"
         stop-color="#619857"
         id="stop12761" />
      <stop
         offset="1"
         stop-color="#76AC64"
         id="stop12763" />
    </linearGradient>
    <clipPath
       id="e">
      <path
         d="m 241.066,225.953 c -0.707,0.07 -1.398,0.29 -2.035,0.652 l -42.01,24.247 45.3,82.51 c 0.63,-0.09 1.25,-0.3 1.81,-0.624 l 42.13,-24.336 c 1.3,-0.754 2.19,-2.03 2.46,-3.476 l -46.18,-78.89 c -0.34,-0.067 -0.68,-0.102 -1.03,-0.102 -0.14,0 -0.28,0.007 -0.42,0.02"
         id="path12766" />
    </clipPath>
    <linearGradient
       id="f"
       x1="0.043000001"
       x2="0.98400003"
       gradientTransform="matrix(97.417,0,0,97.417,192.862,279.652)"
       gradientUnits="userSpaceOnUse">
      <stop
         offset=".16"
         stop-color="#6BBF47"
         id="stop12769" />
      <stop
         offset=".38"
         stop-color="#79B461"
         id="stop12771" />
      <stop
         offset=".47"
         stop-color="#75AC64"
         id="stop12773" />
      <stop
         offset=".7"
         stop-color="#659E5A"
         id="stop12775" />
      <stop
         offset=".9"
         stop-color="#3E863D"
         id="stop12777" />
    </linearGradient>
  </defs>
  <rect
     width="630"
     height="630"
     x="0"
     y="0" />
  <g
     transform="translate(69.852295,70.373037)"
     id="g5012"
     style="fill:#ffffff" />
  <g
     transform="translate(69.852295,70.373037)"
     id="g5014"
     style="fill:#ffffff" />
  <g
     transform="translate(69.852295,70.373037)"
     id="g5016"
     style="fill:#ffffff" />
  <g
     transform="translate(69.852295,70.373037)"
     id="g5018"
     style="fill:#ffffff" />
  <g
     transform="translate(69.852295,70.373037)"
     id="g5020"
     style="fill:#ffffff" />
  <g
     transform="translate(69.852295,70.373037)"
     id="g5022"
     style="fill:#ffffff" />
  <g
     transform="translate(69.852295,70.373037)"
     id="g5024"
     style="fill:#ffffff" />
  <g
     transform="translate(69.852295,70.373037)"
     id="g5026"
     style="fill:#ffffff" />
  <g
     transform="translate(69.852295,70.373037)"
     id="g5028"
     style="fill:#ffffff" />
  <g
     transform="translate(69.852295,70.373037)"
     id="g5030"
     style="fill:#ffffff" />
  <g
     transform="translate(69.852295,70.373037)"
     id="g5032"
     style="fill:#ffffff" />
  <g
     transform="translate(69.852295,70.373037)"
     id="g5034"
     style="fill:#ffffff" />
  <g
     transform="translate(69.852295,70.373037)"
     id="g5036"
     style="fill:#ffffff" />
  <g
     transform="translate(69.852295,70.373037)"
     id="g5038"
     style="fill:#ffffff" />
  <g
     transform="translate(69.852295,70.373037)"
     id="g5040"
     style="fill:#ffffff" />
  <path
     style="fill:#ffffff;fill-rule:evenodd;stroke-width:1.03597307"
     d="m 182.16595,296.25177 c 0,-1.90619 -1.0049,-3.65699 -2.65003,-4.60491 l -43.87967,-25.24667 c -0.74072,-0.4351 -1.57054,-0.66301 -2.41174,-0.69409 h -0.45376 c -0.84122,0.0312 -1.67103,0.25899 -2.42417,0.69409 l -43.87762,25.24667 c -1.634759,0.9531 -2.654163,2.70389 -2.654163,4.61009 l 0.0964,68.00128 c 0,0.94272 0.486895,1.82331 1.315681,2.28949 0.808054,0.49728 1.823307,0.49728 2.631373,0 L 113.94406,351.609 c 1.64719,-0.98004 2.65208,-2.71219 2.65208,-4.59972 v -31.76813 c 0,-1.89583 1.00491,-3.64662 2.64692,-4.58936 l 11.10563,-6.39609 c 0.82463,-0.47655 1.73008,-0.71275 2.65209,-0.71275 0.90751,0 1.83367,0.23413 2.63552,0.71171 l 11.10045,6.39402 c 1.64305,0.94274 2.65209,2.69354 2.65209,4.58937 v 31.76605 c 0,1.88547 1.01836,3.6259 2.65727,4.59972 l 26.06924,14.92837 c 0.81841,0.4869 1.83677,0.4869 2.65209,0 0.80391,-0.46619 1.3136,-1.34677 1.3136,-2.2895 z m 207.05789,35.40541 c 0,0.47344 -0.25174,0.91166 -0.66304,1.1458 l -15.07133,8.68766 c -0.4092,0.23517 -0.91477,0.23517 -1.32294,0 l -15.07341,-8.68766 c -0.4144,-0.23518 -0.66302,-0.67339 -0.66302,-1.1458 v -17.40019 c 0,-0.47449 0.24862,-0.91167 0.65266,-1.14994 l 15.06305,-8.70218 c 0.4144,-0.23828 0.92203,-0.23828 1.33642,0 l 15.0734,8.70218 c 0.4144,0.23827 0.66302,0.67545 0.66302,1.14994 z m 4.07136,-128.87714 c -0.82255,-0.45788 -1.82331,-0.44546 -2.6355,0.028 -0.80807,0.47656 -1.30741,1.34677 -1.30741,2.2895 v 67.33826 c 0,0.66301 -0.35223,1.27425 -0.92616,1.60576 -0.56978,0.33152 -1.27943,0.33152 -1.85438,0 l -10.99168,-6.33084 c -1.63684,-0.94687 -3.65285,-0.94687 -5.2959,0 L 326.39,293.0434 c -1.63997,0.94273 -2.65209,2.69352 -2.65209,4.579 v 50.67979 c 0,1.89583 1.01212,3.63628 2.65209,4.58938 l 43.89417,25.35025 c 1.63891,0.94274 3.65699,0.94274 5.30108,0 l 43.89418,-25.36063 c 1.63684,-0.95309 2.65209,-2.69352 2.65209,-4.58934 v -126.3059 c 0,-1.92276 -1.04633,-3.69117 -2.7246,-4.6308 z m 146.16857,111.01904 c 1.63061,-0.94688 2.63448,-2.6956 2.63448,-4.58108 v -12.2825 c 0,-1.88961 -1.00489,-3.63315 -2.63861,-4.58419 l -43.61448,-25.31917 c -1.64721,-0.95309 -3.66735,-0.95309 -5.31455,0 l -43.88382,25.32955 c -1.6472,0.95309 -2.65209,2.69353 -2.65209,4.58936 v 50.65909 c 0,1.90618 1.02562,3.66734 2.67281,4.61008 l 43.6041,24.85299 c 1.60578,0.92202 3.57411,0.93238 5.2006,0.0312 l 26.37587,-14.65901 c 0.82878,-0.46619 1.35713,-1.34677 1.35713,-2.29987 0,-0.95309 -0.50763,-1.84402 -1.33641,-2.31021 l -44.15317,-25.33991 c -0.82879,-0.46618 -1.33642,-1.34677 -1.33642,-2.28951 v -15.89182 c 0,-0.94895 0.49728,-1.82332 1.32605,-2.29571 l 13.73702,-7.9252 c 0.81841,-0.47656 1.82331,-0.47656 2.64172,0 l 13.74736,7.9252 c 0.81843,0.46618 1.32605,1.34676 1.32605,2.28949 v 12.49384 c 0,0.94273 0.50763,1.82331 1.32604,2.29987 0.81843,0.46618 1.83368,0.46618 2.65211,-0.0101 z m 0,0"
     id="path12786" />
  <path
     style="fill:#ffffff;fill-rule:evenodd;stroke-width:1.03597307"
     d="m 492.54559,311.42877 c 0.31078,-0.18337 0.70031,-0.18337 1.01524,0 l 8.42246,4.85871 c 0.31494,0.18234 0.50763,0.51799 0.50763,0.88059 v 9.72777 c 0,0.3626 -0.19269,0.69826 -0.50763,0.88059 l -8.42246,4.85872 c -0.31493,0.18337 -0.70446,0.18337 -1.01524,0 l -8.41728,-4.85872 c -0.32116,-0.18233 -0.518,-0.51799 -0.518,-0.88059 v -9.72777 c 0,-0.3626 0.18648,-0.69825 0.50762,-0.88059 z m 0,0"
     id="path12788" />
  <g
     clip-path="url(#a)"
     transform="matrix(1.0359732,0,0,1.0359732,2.691884,32.528218)"
     id="g12792"
     style="fill:#ffffff">
    <path
       style="fill:#ffffff"
       d="m 331.363,246.793 -118.715,-58.19 -60.87,124.174 118.712,58.193 z m 0,0"
       id="path12790" />
  </g>
  <g
     clip-path="url(#c)"
     transform="matrix(1.0359732,0,0,1.0359732,2.691884,32.528218)"
     id="g12796"
     style="fill:#ffffff">
    <path
       style="fill:#ffffff"
       d="m 144.07,264.004 83.825,113.453 110.86,-81.906 -83.83,-113.45 z m 0,0"
       id="path12794" />
  </g>
  <g
     clip-path="url(#e)"
     transform="matrix(1.0359732,0,0,1.0359732,2.691884,32.528218)"
     id="g12800"
     style="fill:#ffffff">
    <path
       style="fill:#ffffff"
       d="m 197.02,225.934 v 107.43 h 91.683 v -107.43 z m 0,0"
       id="path12798" />
  </g>
</svg>
