<?xml version="1.0" encoding="UTF-8" standalone="no"?>
<svg
   xmlns:dc="http://purl.org/dc/elements/1.1/"
   xmlns:cc="http://creativecommons.org/ns#"
   xmlns:rdf="http://www.w3.org/1999/02/22-rdf-syntax-ns#"
   xmlns:svg="http://www.w3.org/2000/svg"
   xmlns="http://www.w3.org/2000/svg"
   viewBox="0 0 630 630"
   version="1.1"
   id="svg1080">
  <metadata
     id="metadata1086">
    <rdf:RDF>
      <cc:Work
         rdf:about="">
        <dc:format>image/svg+xml</dc:format>
        <dc:type
           rdf:resource="http://purl.org/dc/dcmitype/StillImage" />
        <dc:title></dc:title>
      </cc:Work>
    </rdf:RDF>
  </metadata>
  <defs
     id="defs1084" />
  <rect
     width="630"
     height="630"
     id="rect1076"
     style="fill:#000000"
     x="0"
     y="0" />
  <g
     transform="translate(69.852295,70.373037)"
     id="g5012"
     style="fill:#ffffff" />
  <g
     transform="translate(69.852295,70.373037)"
     id="g5014"
     style="fill:#ffffff" />
  <g
     transform="translate(69.852295,70.373037)"
     id="g5016"
     style="fill:#ffffff" />
  <g
     transform="translate(69.852295,70.373037)"
     id="g5018"
     style="fill:#ffffff" />
  <g
     transform="translate(69.852295,70.373037)"
     id="g5020"
     style="fill:#ffffff" />
  <g
     transform="translate(69.852295,70.373037)"
     id="g5022"
     style="fill:#ffffff" />
  <g
     transform="translate(69.852295,70.373037)"
     id="g5024"
     style="fill:#ffffff" />
  <g
     transform="translate(69.852295,70.373037)"
     id="g5026"
     style="fill:#ffffff" />
  <g
     transform="translate(69.852295,70.373037)"
     id="g5028"
     style="fill:#ffffff" />
  <g
     transform="translate(69.852295,70.373037)"
     id="g5030"
     style="fill:#ffffff" />
  <g
     transform="translate(69.852295,70.373037)"
     id="g5032"
     style="fill:#ffffff" />
  <g
     transform="translate(69.852295,70.373037)"
     id="g5034"
     style="fill:#ffffff" />
  <g
     transform="translate(69.852295,70.373037)"
     id="g5036"
     style="fill:#ffffff" />
  <g
     transform="translate(69.852295,70.373037)"
     id="g5038"
     style="fill:#ffffff" />
  <g
     transform="translate(69.852295,70.373037)"
     id="g5040"
     style="fill:#ffffff" />
  <g
     style="fill:#ffffff"
     id="g14"
     transform="matrix(0.83366848,0,0,0.83366848,77.243543,84.936268)" />
  <g
     style="fill:#ffffff"
     id="g16"
     transform="matrix(0.83366848,0,0,0.83366848,77.243543,84.936268)" />
  <g
     style="fill:#ffffff"
     id="g18"
     transform="matrix(0.83366848,0,0,0.83366848,77.243543,84.936268)" />
  <g
     style="fill:#ffffff"
     id="g20"
     transform="matrix(0.83366848,0,0,0.83366848,77.243543,84.936268)" />
  <g
     style="fill:#ffffff"
     id="g22"
     transform="matrix(0.83366848,0,0,0.83366848,77.243543,84.936268)" />
  <g
     style="fill:#ffffff"
     id="g24"
     transform="matrix(0.83366848,0,0,0.83366848,77.243543,84.936268)" />
  <g
     style="fill:#ffffff"
     id="g26"
     transform="matrix(0.83366848,0,0,0.83366848,77.243543,84.936268)" />
  <g
     style="fill:#ffffff"
     id="g28"
     transform="matrix(0.83366848,0,0,0.83366848,77.243543,84.936268)" />
  <g
     style="fill:#ffffff"
     id="g30"
     transform="matrix(0.83366848,0,0,0.83366848,77.243543,84.936268)" />
  <g
     style="fill:#ffffff"
     id="g32"
     transform="matrix(0.83366848,0,0,0.83366848,77.243543,84.936268)" />
  <g
     style="fill:#ffffff"
     id="g34"
     transform="matrix(0.83366848,0,0,0.83366848,77.243543,84.936268)" />
  <g
     style="fill:#ffffff"
     id="g36"
     transform="matrix(0.83366848,0,0,0.83366848,77.243543,84.936268)" />
  <g
     style="fill:#ffffff"
     id="g38"
     transform="matrix(0.83366848,0,0,0.83366848,77.243543,84.936268)" />
  <g
     style="fill:#ffffff"
     id="g40"
     transform="matrix(0.83366848,0,0,0.83366848,77.243543,84.936268)" />
  <g
     style="fill:#ffffff"
     id="g42"
     transform="matrix(0.83366848,0,0,0.83366848,77.243543,84.936268)" />
  <g
     style="fill:#ffffff"
     id="XMLID_435_"
     transform="matrix(12.009026,0,0,12.009026,30.912783,179.40107)">
    <path
       style="fill:#ffffff"
       d="m 14,9.3 h -1.5 l -0.8,4.4 h 1.2 c 1,0 1.7,-0.2 2.2,-0.5 0.4,-0.3 0.8,-0.9 0.9,-1.8 0.1,-0.8 0.1,-1.3 -0.2,-1.6 C 15.6,9.6 15.2,9.3 14,9.3 Z"
       class="st0"
       id="XMLID_34318_" />
    <path
       style="fill:#ffffff"
       d="m 34.7,9.3 h -1.5 l -0.8,4.4 h 1.2 c 1,0 1.7,-0.2 2.2,-0.5 0.4,-0.3 0.8,-0.9 0.9,-1.8 0.1,-0.8 0.1,-1.3 -0.2,-1.6 C 36.2,9.6 35.8,9.3 34.7,9.3 Z"
       class="st0"
       id="XMLID_34317_" />
    <path
       style="fill:#ffffff"
       d="m 23.6,0.3 c -12.7,0 -23,5.4 -23,12.1 0,6.7 10.3,12.1 23,12.1 12.7,0 23,-5.4 23,-12.1 0,-6.7 -10.3,-12.1 -23,-12.1 z m 1.5,16 c -0.1,0 -0.2,0 -0.3,-0.1 -0.1,-0.1 -0.1,-0.2 -0.1,-0.3 l 1,-5.4 c 0.1,-0.7 0,-0.9 0,-0.9 C 25.6,9.5 25.4,9.4 24.6,9.4 H 22.8 L 21.6,16 c 0,0.2 -0.2,0.3 -0.4,0.3 h -2.6 c -0.1,0 -0.2,0 -0.3,-0.1 -0.1,-0.1 -0.1,-0.2 -0.1,-0.3 l 0.5,-2.4 c -0.3,0.5 -0.7,1 -1.1,1.4 -0.6,0.5 -1.2,0.9 -1.9,1.1 -0.7,0.2 -1.5,0.3 -2.6,0.3 h -2 l -0.6,2.9 c 0,0.2 -0.2,0.3 -0.4,0.3 H 7.6 c -0.1,0 -0.2,0 -0.3,-0.1 C 7.2,19.3 7.2,19.2 7.2,19.1 L 9.6,7 C 9.6,6.8 9.8,6.7 10,6.7 h 5 c 1.6,0 2.8,0.4 3.6,1.3 0.4,0.5 0.7,1.1 0.8,1.7 l 1.2,-6 c 0,-0.2 0.2,-0.3 0.4,-0.3 h 2.6 c 0.1,0 0.2,0 0.3,0.1 C 24,3.6 24,3.7 24,3.8 l -0.5,2.8 h 1.9 c 1.6,0 2.7,0.3 3.3,0.9 0.7,0.6 0.9,1.6 0.6,2.8 0,0 -1.1,5.6 -1.1,5.6 0,0.2 -0.2,0.3 -0.4,0.3 H 25.1 Z M 40,11.7 c -0.1,0.6 -0.3,1.2 -0.6,1.7 -0.3,0.5 -0.7,1 -1.1,1.4 -0.6,0.5 -1.2,0.9 -1.9,1.1 -0.7,0.2 -1.5,0.3 -2.6,0.3 h -2 l -0.6,2.9 c 0,0.2 -0.2,0.3 -0.4,0.3 h -2.6 c -0.1,0 -0.2,0 -0.3,-0.1 C 27.8,19.2 27.8,19.1 27.8,19 L 30.3,7 c 0,-0.2 0.2,-0.3 0.4,-0.3 h 5.1 c 1.6,0 2.8,0.4 3.6,1.3 0.7,0.9 0.9,2.2 0.6,3.7 z"
       class="st0"
       id="XMLID_650_" />
  </g>
</svg>
