<?xml version="1.0" encoding="UTF-8" standalone="no"?>
<svg viewBox="0 0 630 630">
  <g transform="translate(69.852295,70.373037)" />
  <g transform="translate(69.852295,70.373037)" />
  <g transform="translate(69.852295,70.373037)" />
  <g transform="translate(69.852295,70.373037)" />
  <g transform="translate(69.852295,70.373037)" />
  <g transform="translate(69.852295,70.373037)" />
  <g transform="translate(69.852295,70.373037)" />
  <g transform="translate(69.852295,70.373037)" />
  <g transform="translate(69.852295,70.373037)" />
  <g transform="translate(69.852295,70.373037)" />
  <g transform="translate(69.852295,70.373037)" />
  <g transform="translate(69.852295,70.373037)" />
  <g transform="translate(69.852295,70.373037)" />
  <g transform="translate(69.852295,70.373037)" />
  <g transform="translate(69.852295,70.373037)" />
  <g transform="matrix(0.83366848,0,0,0.83366848,77.243543,84.936268)" />
  <g transform="matrix(0.83366848,0,0,0.83366848,77.243543,84.936268)" />
  <g transform="matrix(0.83366848,0,0,0.83366848,77.243543,84.936268)" />
  <g transform="matrix(0.83366848,0,0,0.83366848,77.243543,84.936268)" />
  <g transform="matrix(0.83366848,0,0,0.83366848,77.243543,84.936268)" />
  <g transform="matrix(0.83366848,0,0,0.83366848,77.243543,84.936268)" />
  <g transform="matrix(0.83366848,0,0,0.83366848,77.243543,84.936268)" />
  <g transform="matrix(0.83366848,0,0,0.83366848,77.243543,84.936268)" />
  <g transform="matrix(0.83366848,0,0,0.83366848,77.243543,84.936268)" />
  <g transform="matrix(0.83366848,0,0,0.83366848,77.243543,84.936268)" />
  <g transform="matrix(0.83366848,0,0,0.83366848,77.243543,84.936268)" />
  <g transform="matrix(0.83366848,0,0,0.83366848,77.243543,84.936268)" />
  <g transform="matrix(0.83366848,0,0,0.83366848,77.243543,84.936268)" />
  <g transform="matrix(0.83366848,0,0,0.83366848,77.243543,84.936268)" />
  <g transform="matrix(0.83366848,0,0,0.83366848,77.243543,84.936268)" />
  <g transform="matrix(12.009026,0,0,12.009026,30.912783,179.40107)">
    <path d="m 14,9.3 h -1.5 l -0.8,4.4 h 1.2 c 1,0 1.7,-0.2 2.2,-0.5 0.4,-0.3 0.8,-0.9 0.9,-1.8 0.1,-0.8 0.1,-1.3 -0.2,-1.6 C 15.6,9.6 15.2,9.3 14,9.3 Z"
    />
    <path d="m 34.7,9.3 h -1.5 l -0.8,4.4 h 1.2 c 1,0 1.7,-0.2 2.2,-0.5 0.4,-0.3 0.8,-0.9 0.9,-1.8 0.1,-0.8 0.1,-1.3 -0.2,-1.6 C 36.2,9.6 35.8,9.3 34.7,9.3 Z"
    />
    <path
       d="m 23.6,0.3 c -12.7,0 -23,5.4 -23,12.1 0,6.7 10.3,12.1 23,12.1 12.7,0 23,-5.4 23,-12.1 0,-6.7 -10.3,-12.1 -23,-12.1 z m 1.5,16 c -0.1,0 -0.2,0 -0.3,-0.1 -0.1,-0.1 -0.1,-0.2 -0.1,-0.3 l 1,-5.4 c 0.1,-0.7 0,-0.9 0,-0.9 C 25.6,9.5 25.4,9.4 24.6,9.4 H 22.8 L 21.6,16 c 0,0.2 -0.2,0.3 -0.4,0.3 h -2.6 c -0.1,0 -0.2,0 -0.3,-0.1 -0.1,-0.1 -0.1,-0.2 -0.1,-0.3 l 0.5,-2.4 c -0.3,0.5 -0.7,1 -1.1,1.4 -0.6,0.5 -1.2,0.9 -1.9,1.1 -0.7,0.2 -1.5,0.3 -2.6,0.3 h -2 l -0.6,2.9 c 0,0.2 -0.2,0.3 -0.4,0.3 H 7.6 c -0.1,0 -0.2,0 -0.3,-0.1 C 7.2,19.3 7.2,19.2 7.2,19.1 L 9.6,7 C 9.6,6.8 9.8,6.7 10,6.7 h 5 c 1.6,0 2.8,0.4 3.6,1.3 0.4,0.5 0.7,1.1 0.8,1.7 l 1.2,-6 c 0,-0.2 0.2,-0.3 0.4,-0.3 h 2.6 c 0.1,0 0.2,0 0.3,0.1 C 24,3.6 24,3.7 24,3.8 l -0.5,2.8 h 1.9 c 1.6,0 2.7,0.3 3.3,0.9 0.7,0.6 0.9,1.6 0.6,2.8 0,0 -1.1,5.6 -1.1,5.6 0,0.2 -0.2,0.3 -0.4,0.3 H 25.1 Z M 40,11.7 c -0.1,0.6 -0.3,1.2 -0.6,1.7 -0.3,0.5 -0.7,1 -1.1,1.4 -0.6,0.5 -1.2,0.9 -1.9,1.1 -0.7,0.2 -1.5,0.3 -2.6,0.3 h -2 l -0.6,2.9 c 0,0.2 -0.2,0.3 -0.4,0.3 h -2.6 c -0.1,0 -0.2,0 -0.3,-0.1 C 27.8,19.2 27.8,19.1 27.8,19 L 30.3,7 c 0,-0.2 0.2,-0.3 0.4,-0.3 h 5.1 c 1.6,0 2.8,0.4 3.6,1.3 0.7,0.9 0.9,2.2 0.6,3.7 z"
    />
  </g>
</svg>
