<?xml version="1.0" encoding="UTF-8" standalone="no"?>
<svg
   xmlns:dc="http://purl.org/dc/elements/1.1/"
   xmlns:cc="http://creativecommons.org/ns#"
   xmlns:rdf="http://www.w3.org/1999/02/22-rdf-syntax-ns#"
   xmlns:svg="http://www.w3.org/2000/svg"
   xmlns="http://www.w3.org/2000/svg"
   xmlns:sodipodi="http://sodipodi.sourceforge.net/DTD/sodipodi-0.dtd"
   xmlns:inkscape="http://www.inkscape.org/namespaces/inkscape"
   id="svg1080"
   version="1.1"
   viewBox="0 0 630 630"
   sodipodi:docname="slack-api.svg"
   inkscape:version="0.92.3 (2405546, 2018-03-11)">
  <metadata
     id="metadata4771">
    <rdf:RDF>
      <cc:Work
         rdf:about="">
        <dc:format>image/svg+xml</dc:format>
        <dc:type
           rdf:resource="http://purl.org/dc/dcmitype/StillImage" />
        <dc:title></dc:title>
      </cc:Work>
    </rdf:RDF>
  </metadata>
  <defs
     id="defs4769" />
  <sodipodi:namedview
     pagecolor="#ffffff"
     bordercolor="#666666"
     borderopacity="1"
     objecttolerance="10"
     gridtolerance="10"
     guidetolerance="10"
     inkscape:pageopacity="0"
     inkscape:pageshadow="2"
     inkscape:window-width="1638"
     inkscape:window-height="899"
     id="namedview4767"
     showgrid="false"
     inkscape:zoom="0.37460317"
     inkscape:cx="-57.394068"
     inkscape:cy="315"
     inkscape:window-x="-8"
     inkscape:window-y="-8"
     inkscape:window-maximized="1"
     inkscape:current-layer="svg1080" />
  <g
     transform="translate(69.852295,70.373037)"
     id="g4734" />
  <g
     transform="translate(69.852295,70.373037)"
     id="g4736" />
  <g
     transform="translate(69.852295,70.373037)"
     id="g4738" />
  <g
     transform="translate(69.852295,70.373037)"
     id="g4740" />
  <g
     transform="translate(69.852295,70.373037)"
     id="g4742" />
  <g
     transform="translate(69.852295,70.373037)"
     id="g4744" />
  <g
     transform="translate(69.852295,70.373037)"
     id="g4746" />
  <g
     transform="translate(69.852295,70.373037)"
     id="g4748" />
  <g
     transform="translate(69.852295,70.373037)"
     id="g4750" />
  <g
     transform="translate(69.852295,70.373037)"
     id="g4752" />
  <g
     transform="translate(69.852295,70.373037)"
     id="g4754" />
  <g
     transform="translate(69.852295,70.373037)"
     id="g4756" />
  <g
     transform="translate(69.852295,70.373037)"
     id="g4758" />
  <g
     transform="translate(69.852295,70.373037)"
     id="g4760" />
  <g
     transform="translate(69.852295,70.373037)"
     id="g4762" />
  <path
     inkscape:connector-curvature="0"
     d="m 177.80457,382.01166 a 50.329695,50.329695 0 0 1 -50.17042,50.23015 50.329695,50.329695 0 0 1 -50.210233,-50.23015 50.309786,50.309786 0 0 1 50.210233,-50.17042 h 50.17042 z m 25.30422,0 a 50.309786,50.309786 0 0 1 50.19032,-50.17042 50.309786,50.309786 0 0 1 50.18995,50.17042 v 125.68487 a 50.329695,50.329695 0 0 1 -50.18995,50.21025 50.329695,50.329695 0 0 1 -50.19032,-50.21025 z m 50.19032,-201.53777 a 50.329695,50.329695 0 0 1 -50.19032,-50.17042 50.329695,50.329695 0 0 1 50.19032,-50.210245 50.329695,50.329695 0 0 1 50.18995,50.210245 v 50.17042 z m 0,25.3042 a 50.329695,50.329695 0 0 1 50.18995,50.19034 50.329695,50.329695 0 0 1 -50.18995,50.19033 H 127.63415 A 50.329695,50.329695 0 0 1 77.423917,255.96843 50.329695,50.329695 0 0 1 127.63415,205.77809 Z m 201.51748,50.19034 a 50.329695,50.329695 0 0 1 50.21024,-50.19034 50.329695,50.329695 0 0 1 50.21024,50.19034 50.329695,50.329695 0 0 1 -50.21024,50.19033 h -50.21024 z m -25.24448,0 a 50.329695,50.329695 0 0 1 -50.23016,50.19033 50.309786,50.309786 0 0 1 -50.17042,-50.19033 V 130.30347 a 50.309786,50.309786 0 0 1 50.17042,-50.210245 50.329695,50.329695 0 0 1 50.23016,50.210245 z m -50.23016,201.51786 a 50.329695,50.329695 0 0 1 50.23016,50.21024 50.329695,50.329695 0 0 1 -50.23016,50.21025 50.309786,50.309786 0 0 1 -50.17042,-50.21025 v -50.21024 z m 0,-25.24448 a 50.309786,50.309786 0 0 1 -50.17042,-50.23015 50.289877,50.289877 0 0 1 50.17042,-50.17042 h 125.68488 a 50.309786,50.309786 0 0 1 50.21024,50.17042 50.329695,50.329695 0 0 1 -50.21024,50.23015 z"
     id="path4"
     style="stroke-width:19.90889931" />
</svg>
