<?xml version="1.0" encoding="UTF-8" standalone="no"?>
<svg viewBox="0 0 630 630">
  <g transform="translate(69.852295,70.373037)" />
  <g transform="translate(69.852295,70.373037)" />
  <g transform="translate(69.852295,70.373037)" />
  <g transform="translate(69.852295,70.373037)" />
  <g transform="translate(69.852295,70.373037)" />
  <g transform="translate(69.852295,70.373037)" />
  <g transform="translate(69.852295,70.373037)" />
  <g transform="translate(69.852295,70.373037)" />
  <g transform="translate(69.852295,70.373037)" />
  <g transform="translate(69.852295,70.373037)" />
  <g transform="translate(69.852295,70.373037)" />
  <g transform="translate(69.852295,70.373037)" />
  <g transform="translate(69.852295,70.373037)" />
  <g transform="translate(69.852295,70.373037)" />
  <g transform="translate(69.852295,70.373037)" />
  <path
     d="m 177.80457,382.01166 a 50.329695,50.329695 0 0 1 -50.17042,50.23015 50.329695,50.329695 0 0 1 -50.210233,-50.23015 50.309786,50.309786 0 0 1 50.210233,-50.17042 h 50.17042 z m 25.30422,0 a 50.309786,50.309786 0 0 1 50.19032,-50.17042 50.309786,50.309786 0 0 1 50.18995,50.17042 v 125.68487 a 50.329695,50.329695 0 0 1 -50.18995,50.21025 50.329695,50.329695 0 0 1 -50.19032,-50.21025 z m 50.19032,-201.53777 a 50.329695,50.329695 0 0 1 -50.19032,-50.17042 50.329695,50.329695 0 0 1 50.19032,-50.210245 50.329695,50.329695 0 0 1 50.18995,50.210245 v 50.17042 z m 0,25.3042 a 50.329695,50.329695 0 0 1 50.18995,50.19034 50.329695,50.329695 0 0 1 -50.18995,50.19033 H 127.63415 A 50.329695,50.329695 0 0 1 77.423917,255.96843 50.329695,50.329695 0 0 1 127.63415,205.77809 Z m 201.51748,50.19034 a 50.329695,50.329695 0 0 1 50.21024,-50.19034 50.329695,50.329695 0 0 1 50.21024,50.19034 50.329695,50.329695 0 0 1 -50.21024,50.19033 h -50.21024 z m -25.24448,0 a 50.329695,50.329695 0 0 1 -50.23016,50.19033 50.309786,50.309786 0 0 1 -50.17042,-50.19033 V 130.30347 a 50.309786,50.309786 0 0 1 50.17042,-50.210245 50.329695,50.329695 0 0 1 50.23016,50.210245 z m -50.23016,201.51786 a 50.329695,50.329695 0 0 1 50.23016,50.21024 50.329695,50.329695 0 0 1 -50.23016,50.21025 50.309786,50.309786 0 0 1 -50.17042,-50.21025 v -50.21024 z m 0,-25.24448 a 50.309786,50.309786 0 0 1 -50.17042,-50.23015 50.289877,50.289877 0 0 1 50.17042,-50.17042 h 125.68488 a 50.309786,50.309786 0 0 1 50.21024,50.17042 50.329695,50.329695 0 0 1 -50.21024,50.23015 z"
     style="stroke-width:19.90889931" />
</svg>
