<?xml version="1.0" encoding="UTF-8" standalone="no"?>
<svg
   xmlns:dc="http://purl.org/dc/elements/1.1/"
   xmlns:cc="http://creativecommons.org/ns#"
   xmlns:rdf="http://www.w3.org/1999/02/22-rdf-syntax-ns#"
   xmlns:svg="http://www.w3.org/2000/svg"
   xmlns="http://www.w3.org/2000/svg"
   viewBox="0 0 630 630"
   version="1.1"
   id="svg1080">
  <g transform="translate(69.852295,70.373037)" />
  <g transform="translate(69.852295,70.373037)" />
  <g transform="translate(69.852295,70.373037)" />
  <g transform="translate(69.852295,70.373037)" />
  <g transform="translate(69.852295,70.373037)" />
  <g transform="translate(69.852295,70.373037)" />
  <g transform="translate(69.852295,70.373037)" />
  <g transform="translate(69.852295,70.373037)"  />
  <g transform="translate(69.852295,70.373037)" />
  <g transform="translate(69.852295,70.373037)" />
  <g transform="translate(69.852295,70.373037)" />
  <g transform="translate(69.852295,70.373037)" />
  <g transform="translate(69.852295,70.373037)" />
  <g transform="translate(69.852295,70.373037)" />
  <g transform="translate(69.852295,70.373037)" />
  <g transform="matrix(0.83366848,0,0,0.83366848,77.243543,84.936268)" />
  <g transform="matrix(0.83366848,0,0,0.83366848,77.243543,84.936268)" />
  <g transform="matrix(0.83366848,0,0,0.83366848,77.243543,84.936268)" />
  <g transform="matrix(0.83366848,0,0,0.83366848,77.243543,84.936268)" />
  <g transform="matrix(0.83366848,0,0,0.83366848,77.243543,84.936268)" />
  <g transform="matrix(0.83366848,0,0,0.83366848,77.243543,84.936268)" />
  <g transform="matrix(0.83366848,0,0,0.83366848,77.243543,84.936268)" />
  <g transform="matrix(0.83366848,0,0,0.83366848,77.243543,84.936268)" />
  <g transform="matrix(0.83366848,0,0,0.83366848,77.243543,84.936268)" />
  <g transform="matrix(0.83366848,0,0,0.83366848,77.243543,84.936268)" />
  <g transform="matrix(0.83366848,0,0,0.83366848,77.243543,84.936268)" />
  <g transform="matrix(0.83366848,0,0,0.83366848,77.243543,84.936268)" />
  <g transform="matrix(0.83366848,0,0,0.83366848,77.243543,84.936268)" />
  <g transform="matrix(0.83366848,0,0,0.83366848,77.243543,84.936268)" />
  <g transform="matrix(0.83366848,0,0,0.83366848,77.243543,84.936268)" />
  <g transform="translate(131.8283,82.221702)">
    <g>
      <polygon points="3.8,0 354.1,0 179,175.1 "/>
    </g>
    <g>
      <path d="M 245.3,138.7 23.8,360.1 c 24.5,65.1 87.3,111.4 160.9,111.4 94.9,0 171.9,-77 171.9,-171.9 0,-73.7 -46.3,-136.5 -111.3,-160.9 z" />
    </g>
  </g>
</svg>
