<?xml version="1.0" encoding="UTF-8" standalone="no"?>
<svg
   xmlns:dc="http://purl.org/dc/elements/1.1/"
   xmlns:cc="http://creativecommons.org/ns#"
   xmlns:rdf="http://www.w3.org/1999/02/22-rdf-syntax-ns#"
   xmlns:svg="http://www.w3.org/2000/svg"
   xmlns="http://www.w3.org/2000/svg"
   viewBox="0 0 630 630"
   version="1.1"
   id="svg1080">
  <metadata
     id="metadata1086">
    <rdf:RDF>
      <cc:Work
         rdf:about="">
        <dc:format>image/svg+xml</dc:format>
        <dc:type
           rdf:resource="http://purl.org/dc/dcmitype/StillImage" />
        <dc:title></dc:title>
      </cc:Work>
    </rdf:RDF>
  </metadata>
  <defs
     id="defs1084" />
  <rect
     width="630"
     height="630"
     x="0"
     y="0" />
  <g
     transform="translate(69.852295,70.373037)"
     id="g5012"
     style="fill:#ffffff" />
  <g
     transform="translate(69.852295,70.373037)"
     id="g5014"
     style="fill:#ffffff" />
  <g
     transform="translate(69.852295,70.373037)"
     id="g5016"
     style="fill:#ffffff" />
  <g
     transform="translate(69.852295,70.373037)"
     id="g5018"
     style="fill:#ffffff" />
  <g
     transform="translate(69.852295,70.373037)"
     id="g5020"
     style="fill:#ffffff" />
  <g
     transform="translate(69.852295,70.373037)"
     id="g5022"
     style="fill:#ffffff" />
  <g
     transform="translate(69.852295,70.373037)"
     id="g5024"
     style="fill:#ffffff" />
  <g
     transform="translate(69.852295,70.373037)"
     id="g5026"
     style="fill:#ffffff" />
  <g
     transform="translate(69.852295,70.373037)"
     id="g5028"
     style="fill:#ffffff" />
  <g
     transform="translate(69.852295,70.373037)"
     id="g5030"
     style="fill:#ffffff" />
  <g
     transform="translate(69.852295,70.373037)"
     id="g5032"
     style="fill:#ffffff" />
  <g
     transform="translate(69.852295,70.373037)"
     id="g5034"
     style="fill:#ffffff" />
  <g
     transform="translate(69.852295,70.373037)"
     id="g5036"
     style="fill:#ffffff" />
  <g
     transform="translate(69.852295,70.373037)"
     id="g5038"
     style="fill:#ffffff" />
  <g
     transform="translate(69.852295,70.373037)"
     id="g5040"
     style="fill:#ffffff" />
  <g
     style="fill:#ffffff"
     id="g14"
     transform="matrix(0.83366848,0,0,0.83366848,77.243543,84.936268)" />
  <g
     style="fill:#ffffff"
     id="g16"
     transform="matrix(0.83366848,0,0,0.83366848,77.243543,84.936268)" />
  <g
     style="fill:#ffffff"
     id="g18"
     transform="matrix(0.83366848,0,0,0.83366848,77.243543,84.936268)" />
  <g
     style="fill:#ffffff"
     id="g20"
     transform="matrix(0.83366848,0,0,0.83366848,77.243543,84.936268)" />
  <g
     style="fill:#ffffff"
     id="g22"
     transform="matrix(0.83366848,0,0,0.83366848,77.243543,84.936268)" />
  <g
     style="fill:#ffffff"
     id="g24"
     transform="matrix(0.83366848,0,0,0.83366848,77.243543,84.936268)" />
  <g
     style="fill:#ffffff"
     id="g26"
     transform="matrix(0.83366848,0,0,0.83366848,77.243543,84.936268)" />
  <g
     style="fill:#ffffff"
     id="g28"
     transform="matrix(0.83366848,0,0,0.83366848,77.243543,84.936268)" />
  <g
     style="fill:#ffffff"
     id="g30"
     transform="matrix(0.83366848,0,0,0.83366848,77.243543,84.936268)" />
  <g
     style="fill:#ffffff"
     id="g32"
     transform="matrix(0.83366848,0,0,0.83366848,77.243543,84.936268)" />
  <g
     style="fill:#ffffff"
     id="g34"
     transform="matrix(0.83366848,0,0,0.83366848,77.243543,84.936268)" />
  <g
     style="fill:#ffffff"
     id="g36"
     transform="matrix(0.83366848,0,0,0.83366848,77.243543,84.936268)" />
  <g
     style="fill:#ffffff"
     id="g38"
     transform="matrix(0.83366848,0,0,0.83366848,77.243543,84.936268)" />
  <g
     style="fill:#ffffff"
     id="g40"
     transform="matrix(0.83366848,0,0,0.83366848,77.243543,84.936268)" />
  <g
     style="fill:#ffffff"
     id="g42"
     transform="matrix(0.83366848,0,0,0.83366848,77.243543,84.936268)" />
  <g
     style="fill:#ffffff"
     id="g479"
     transform="translate(131.8283,82.221702)">
    <g
       style="fill:#ffffff"
       id="g473">
      <polygon
         id="polygon471"
         points="3.8,0 354.1,0 179,175.1 "
         style="fill:#ffffff" />
    </g>
    <g
       style="fill:#ffffff"
       id="g477">
      <path
         id="path475"
         d="M 245.3,138.7 23.8,360.1 c 24.5,65.1 87.3,111.4 160.9,111.4 94.9,0 171.9,-77 171.9,-171.9 0,-73.7 -46.3,-136.5 -111.3,-160.9 z"
         style="fill:#ffffff" />
    </g>
  </g>
</svg>
