<?xml version="1.0" encoding="UTF-8" standalone="no"?>
<svg
   xmlns:dc="http://purl.org/dc/elements/1.1/"
   xmlns:cc="http://creativecommons.org/ns#"
   xmlns:rdf="http://www.w3.org/1999/02/22-rdf-syntax-ns#"
   xmlns:svg="http://www.w3.org/2000/svg"
   xmlns="http://www.w3.org/2000/svg"
   id="svg1080"
   version="1.1"
   viewBox="0 0 630 630">
  <metadata
     id="metadata1086">
    <rdf:RDF>
      <cc:Work
         rdf:about="">
        <dc:format>image/svg+xml</dc:format>
        <dc:type
           rdf:resource="http://purl.org/dc/dcmitype/StillImage" />
        <dc:title></dc:title>
      </cc:Work>
    </rdf:RDF>
  </metadata>
  <defs
     id="defs1084">
    <clipPath
       id="a">
      <path
         id="path12746"
         d="m 239.03,226.605 -42.13,24.317 c -1.578,0.91 -2.546,2.59 -2.546,4.406 v 48.668 c 0,1.817 0.968,3.496 2.546,4.406 l 42.133,24.336 c 1.575,0.907 3.517,0.907 5.09,0 l 42.126,-24.336 c 1.57,-0.91 2.54,-2.59 2.54,-4.406 v -48.668 c 0,-1.816 -0.97,-3.496 -2.55,-4.406 l -42.12,-24.317 c -0.79,-0.453 -1.67,-0.68 -2.55,-0.68 -0.88,0 -1.76,0.227 -2.55,0.68" />
    </clipPath>
    <linearGradient
       gradientUnits="userSpaceOnUse"
       gradientTransform="matrix(-38.064915,77.652126,-77.652126,-38.064915,258.72325,244.62943)"
       x2="1.251"
       x1="-0.34799999"
       id="b">
      <stop
         id="stop12749"
         stop-color="#3E863D"
         offset=".3" />
      <stop
         id="stop12751"
         stop-color="#55934F"
         offset=".5" />
      <stop
         id="stop12753"
         stop-color="#5AAD45"
         offset=".8" />
    </linearGradient>
    <clipPath
       id="c">
      <path
         id="path12756"
         d="m 195.398,307.086 c 0.403,0.523 0.907,0.976 1.5,1.316 l 36.14,20.875 6.02,3.46 c 0.9,0.52 1.926,0.74 2.934,0.665 0.336,-0.027 0.672,-0.09 1,-0.183 l 44.434,-81.36 c -0.34,-0.37 -0.738,-0.68 -1.184,-0.94 l -27.586,-15.93 -14.582,-8.39 c -0.414,-0.24 -0.863,-0.41 -1.32,-0.53 z m 0,0" />
    </clipPath>
    <linearGradient
       gradientUnits="userSpaceOnUse"
       gradientTransform="matrix(106.8057,-78.916731,78.916731,106.8057,235.18824,285.39477)"
       x2="0.58200002"
       x1="-0.456"
       id="d">
      <stop
         id="stop12759"
         stop-color="#3E863D"
         offset=".57" />
      <stop
         id="stop12761"
         stop-color="#619857"
         offset=".72" />
      <stop
         id="stop12763"
         stop-color="#76AC64"
         offset="1" />
    </linearGradient>
    <clipPath
       id="e">
      <path
         id="path12766"
         d="m 241.066,225.953 c -0.707,0.07 -1.398,0.29 -2.035,0.652 l -42.01,24.247 45.3,82.51 c 0.63,-0.09 1.25,-0.3 1.81,-0.624 l 42.13,-24.336 c 1.3,-0.754 2.19,-2.03 2.46,-3.476 l -46.18,-78.89 c -0.34,-0.067 -0.68,-0.102 -1.03,-0.102 -0.14,0 -0.28,0.007 -0.42,0.02" />
    </clipPath>
    <linearGradient
       gradientUnits="userSpaceOnUse"
       gradientTransform="matrix(97.417,0,0,97.417,192.862,279.652)"
       x2="0.98400003"
       x1="0.043000001"
       id="f">
      <stop
         id="stop12769"
         stop-color="#6BBF47"
         offset=".16" />
      <stop
         id="stop12771"
         stop-color="#79B461"
         offset=".38" />
      <stop
         id="stop12773"
         stop-color="#75AC64"
         offset=".47" />
      <stop
         id="stop12775"
         stop-color="#659E5A"
         offset=".7" />
      <stop
         id="stop12777"
         stop-color="#3E863D"
         offset=".9" />
    </linearGradient>
  </defs>
  <rect
     y="0"
     x="0"
     height="630"
     width="630" />
  <g
     style="fill:#ffffff"
     id="g5012"
     transform="translate(69.852295,70.373037)" />
  <g
     style="fill:#ffffff"
     id="g5014"
     transform="translate(69.852295,70.373037)" />
  <g
     style="fill:#ffffff"
     id="g5016"
     transform="translate(69.852295,70.373037)" />
  <g
     style="fill:#ffffff"
     id="g5018"
     transform="translate(69.852295,70.373037)" />
  <g
     style="fill:#ffffff"
     id="g5020"
     transform="translate(69.852295,70.373037)" />
  <g
     style="fill:#ffffff"
     id="g5022"
     transform="translate(69.852295,70.373037)" />
  <g
     style="fill:#ffffff"
     id="g5024"
     transform="translate(69.852295,70.373037)" />
  <g
     style="fill:#ffffff"
     id="g5026"
     transform="translate(69.852295,70.373037)" />
  <g
     style="fill:#ffffff"
     id="g5028"
     transform="translate(69.852295,70.373037)" />
  <g
     style="fill:#ffffff"
     id="g5030"
     transform="translate(69.852295,70.373037)" />
  <g
     style="fill:#ffffff"
     id="g5032"
     transform="translate(69.852295,70.373037)" />
  <g
     style="fill:#ffffff"
     id="g5034"
     transform="translate(69.852295,70.373037)" />
  <g
     style="fill:#ffffff"
     id="g5036"
     transform="translate(69.852295,70.373037)" />
  <g
     style="fill:#ffffff"
     id="g5038"
     transform="translate(69.852295,70.373037)" />
  <g
     style="fill:#ffffff"
     id="g5040"
     transform="translate(69.852295,70.373037)" />
  <g
     id="layer101"
     style="fill:#ffffff;stroke:none"
     transform="matrix(0.04530593,0,0,0.04530593,77.472847,207.85933)">
    <path
       style="fill:#ffffff"
       id="path13714"
       d="m 3640,4930 c 0,-6 -38,-10 -95,-10 -57,0 -95,-4 -95,-10 0,-6 -28,-10 -65,-10 -37,0 -65,-4 -65,-10 0,-5 -22,-10 -50,-10 -27,0 -50,-4 -50,-10 0,-5 -20,-10 -45,-10 -25,0 -45,-4 -45,-10 0,-5 -16,-10 -35,-10 -19,0 -35,-4 -35,-9 0,-5 -22,-11 -50,-15 -27,-4 -50,-11 -50,-16 0,-6 -9,-10 -20,-10 -11,0 -20,-4 -20,-10 0,-5 -5,-10 -10,-10 -12,0 -120,-106 -120,-118 0,-4 -9,-14 -20,-22 -12,-8 -20,-26 -20,-42 0,-15 -4,-28 -10,-28 -5,0 -10,-9 -10,-19 0,-28 -27,-51 -61,-51 -16,0 -29,-4 -29,-10 0,-5 -20,-10 -45,-10 -25,0 -45,-4 -45,-10 0,-5 -18,-10 -40,-10 -22,0 -40,-4 -40,-10 0,-5 -18,-10 -40,-10 -22,0 -40,-4 -40,-10 0,-5 -16,-10 -35,-10 -19,0 -35,-4 -35,-10 0,-5 -18,-10 -40,-10 -22,0 -40,-4 -40,-10 0,-5 -11,-10 -25,-10 -14,0 -25,-4 -25,-10 0,-5 -13,-10 -30,-10 -16,0 -30,-4 -30,-9 0,-5 -25,-12 -55,-16 -30,-3 -55,-11 -55,-16 0,-5 -9,-9 -20,-9 -11,0 -20,-4 -20,-10 0,-5 -13,-10 -30,-10 -16,0 -30,-4 -30,-10 0,-5 -7,-10 -15,-10 -8,0 -15,-4 -15,-10 0,-5 -13,-10 -30,-10 -16,0 -30,-4 -30,-10 0,-5 -9,-10 -20,-10 -11,0 -20,-4 -20,-10 0,-5 -9,-10 -19,-10 -11,0 -21,-5 -23,-10 -2,-6 -21,-13 -43,-17 -22,-3 -47,-14 -56,-25 -9,-10 -24,-18 -33,-18 -9,0 -16,-4 -16,-10 0,-5 -5,-10 -10,-10 -6,0 -35,-25 -65,-55 -31,-30 -60,-55 -65,-55 -6,0 -10,-9 -10,-20 0,-11 -4,-20 -10,-20 -5,0 -10,-9 -10,-19 0,-11 -4,-21 -10,-23 -5,-1 -12,-45 -16,-95 -4,-51 -11,-93 -15,-93 -5,0 -9,-9 -9,-21 0,-24 -22,-49 -44,-49 -9,0 -16,-4 -16,-10 0,-5 -9,-10 -20,-10 -11,0 -20,-4 -20,-10 0,-5 -9,-10 -20,-10 -11,0 -20,-4 -20,-10 0,-5 -6,-10 -13,-10 -7,0 -19,-9 -27,-20 -8,-11 -21,-20 -29,-20 -7,0 -21,-8 -30,-19 -9,-10 -30,-21 -47,-25 -16,-4 -36,-16 -44,-26 -8,-11 -21,-20 -28,-20 -8,0 -27,-13 -42,-30 -15,-16 -35,-30 -44,-30 -9,0 -16,-4 -16,-10 0,-10 -28,-38 -79,-80 -17,-14 -31,-32 -31,-40 0,-9 -9,-22 -20,-30 -11,-8 -20,-22 -20,-31 0,-10 -5,-19 -11,-21 -15,-5 -24,-224 -11,-270 9,-34 8,-40 -11,-54 -21,-15 -21,-15 8,-8 23,5 27,4 19,-5 -8,-9 27,-48 135,-154 261,-255 396,-391 381,-383 -17,10 268,-270 360,-353 33,-29 58,-57 55,-61 -3,-6 383,-393 528,-529 25,-24 44,-47 42,-51 -2,-4 129,-139 293,-300 163,-162 290,-290 282,-285 -13,8 -13,7 -1,-8 16,-20 36,-23 25,-4 -5,8 -3,8 9,-2 9,-7 14,-18 11,-23 -4,-5 11,-28 32,-50 22,-23 31,-38 22,-35 -128,45 -471,217 -663,332 -484,291 -915,654 -1280,1077 -91,105 -317,400 -379,495 -15,23 -34,44 -42,47 -9,3 -12,10 -9,16 3,5 2,10 -4,10 -13,0 -91,-76 -91,-89 0,-6 -4,-11 -10,-11 -5,0 -10,-7 -10,-16 0,-9 -8,-24 -19,-33 -11,-10 -21,-37 -26,-69 -4,-28 -11,-52 -16,-52 -5,0 -9,-39 -9,-86 0,-76 2,-85 15,-74 30,25 14,-1 -22,-36 -23,-22 -29,-32 -16,-25 12,6 25,16 28,21 11,17 27,11 21,-8 -4,-13 4,-23 31,-37 20,-11 41,-19 45,-18 4,2 7,-3 5,-10 -1,-6 6,-11 15,-11 10,1 16,-1 15,-5 -1,-3 2,-6 6,-6 5,0 13,-8 18,-18 6,-9 14,-15 20,-12 5,4 9,1 9,-4 0,-6 7,-11 16,-11 8,0 12,-4 9,-10 -3,-5 3,-10 14,-10 12,0 20,-6 18,-12 -1,-8 6,-12 16,-10 10,2 16,-2 15,-10 -2,-6 2,-12 9,-13 7,0 20,-7 30,-15 10,-8 35,-23 56,-32 20,-10 37,-23 37,-29 0,-8 5,-7 16,1 12,11 15,11 12,-1 -2,-8 4,-13 14,-13 10,1 16,-2 15,-6 -4,-12 93,-81 105,-74 6,4 8,3 5,-3 -4,-6 4,-18 18,-27 14,-9 25,-14 25,-11 0,6 59,-32 70,-45 15,-17 62,-40 71,-35 5,4 8,1 7,-7 -2,-7 5,-12 14,-12 10,1 16,-2 13,-6 -7,-11 94,-72 106,-65 5,4 8,1 7,-7 -2,-7 5,-12 14,-12 10,1 16,-2 13,-6 -3,-5 10,-17 28,-29 18,-11 46,-32 62,-46 17,-14 50,-35 75,-47 25,-12 57,-29 71,-39 14,-10 29,-15 33,-11 4,4 6,0 4,-8 -2,-9 4,-14 14,-14 10,1 16,-3 15,-10 -1,-6 6,-10 15,-10 10,1 16,-3 15,-10 -1,-6 6,-10 15,-10 10,1 16,-2 13,-6 -3,-5 8,-17 25,-26 16,-10 30,-23 30,-28 0,-5 3,-7 6,-3 3,3 37,-14 74,-39 38,-24 72,-44 77,-44 4,0 14,-9 21,-21 8,-12 19,-18 27,-15 8,3 14,0 12,-7 -1,-7 6,-11 15,-11 10,1 16,-3 15,-10 -1,-6 4,-10 10,-9 12,3 35,-12 69,-45 8,-7 18,-10 24,-7 6,4 9,1 8,-7 -2,-7 5,-12 14,-12 10,1 16,-2 13,-6 -3,-5 51,-44 121,-87 69,-43 133,-85 142,-93 27,-25 112,-82 112,-75 0,6 59,-32 70,-45 3,-3 73,-49 156,-103 83,-53 164,-108 179,-121 15,-13 51,-36 79,-50 28,-13 78,-45 110,-70 33,-24 79,-50 102,-56 32,-9 41,-16 37,-28 -5,-12 -1,-14 15,-10 12,4 22,3 22,-1 0,-4 15,-7 33,-7 17,0 64,-3 102,-8 90,-10 521,-15 631,-7 l 85,6 -76,95 c -126,156 -375,546 -484,755 -20,39 -86,168 -158,310 -72,140 -150,306 -214,450 -9,22 -26,60 -38,85 -54,120 -71,160 -71,170 0,5 -4,18 -9,28 -5,9 -13,28 -18,42 -16,39 -29,71 -51,120 -11,25 -41,108 -66,185 -26,77 -51,149 -56,160 -9,18 -53,156 -97,305 -9,30 -21,71 -28,90 -32,90 -137,519 -179,735 -15,78 -36,268 -36,331 0,29 5,34 53,53 238,96 783,142 1312,111 438,-26 1036,-99 1389,-171 347,-70 841,-221 1221,-372 599,-238 1286,-591 1910,-982 331,-207 844,-560 844,-580 0,-14 -104,-94 -235,-181 C 8659,1733 7773,1287 7030,970 6699,829 6417,725 6060,614 c -96,-30 -182,-58 -190,-61 -8,-3 -22,-7 -30,-8 -8,-1 -49,-12 -90,-24 -41,-12 -93,-27 -115,-33 -22,-6 -44,-12 -50,-12 -22,-2 -121,-28 -140,-36 -36,-17 -146,-41 -155,-35 -6,3 -10,1 -10,-4 0,-6 20,-11 45,-11 25,0 45,4 45,9 0,5 45,12 100,16 55,3 100,11 100,16 0,5 23,9 50,9 28,0 50,5 50,10 0,6 20,10 45,10 25,0 45,5 45,10 0,6 18,10 40,10 22,0 40,5 40,10 0,6 20,10 45,10 25,0 45,5 45,10 0,6 18,10 40,10 22,0 40,5 40,10 0,6 16,10 35,10 19,0 35,4 35,9 0,5 34,12 75,16 41,4 75,11 75,16 0,5 18,9 40,9 22,0 40,5 40,10 0,6 11,10 25,10 14,0 25,5 25,10 0,6 18,10 40,10 22,0 40,5 40,10 0,6 14,10 30,10 17,0 30,5 30,10 0,6 16,10 35,10 19,0 35,5 35,10 0,6 14,10 30,10 17,0 30,5 30,10 0,6 14,10 30,10 17,0 30,4 30,9 0,5 25,13 55,16 30,4 55,11 55,16 0,5 11,9 25,9 14,0 25,5 25,10 0,6 14,10 30,10 17,0 30,5 30,10 0,6 14,10 30,10 17,0 30,5 30,10 0,6 11,10 25,10 14,0 25,5 25,10 0,6 14,10 30,10 17,0 30,5 30,10 0,6 14,10 30,10 17,0 30,5 30,10 0,6 9,10 20,10 11,0 20,4 20,9 0,5 25,13 55,16 30,4 55,11 55,16 0,5 9,9 20,9 11,0 20,5 20,10 0,6 11,10 25,10 14,0 25,5 25,10 0,6 9,10 20,10 11,0 20,5 20,10 0,6 14,10 30,10 17,0 30,5 30,10 0,6 7,10 15,10 8,0 15,5 15,10 0,6 14,10 30,10 17,0 30,4 30,10 0,5 23,12 50,16 28,4 50,10 50,15 0,5 7,9 15,9 8,0 15,5 15,10 0,6 9,10 20,10 11,0 20,5 20,10 0,6 9,10 20,10 11,0 20,5 20,10 0,6 14,10 30,10 17,0 30,5 30,10 0,6 7,10 15,10 8,0 15,5 15,10 0,6 9,10 20,10 11,0 20,5 20,10 0,6 9,10 20,10 11,0 20,4 20,9 0,4 19,11 42,14 24,3 44,11 46,16 2,6 12,11 23,11 10,0 19,5 19,10 0,6 9,10 20,10 11,0 20,5 20,10 0,6 9,10 20,10 11,0 20,5 20,10 0,6 11,10 25,10 14,0 25,5 25,10 0,6 9,10 20,10 11,0 20,5 20,10 0,6 9,10 20,10 11,0 20,5 20,10 0,6 9,10 20,10 11,0 20,4 20,10 0,5 16,12 35,16 19,3 35,10 35,15 0,5 9,9 20,9 11,0 20,5 20,10 0,6 9,10 20,10 11,0 20,5 20,10 0,6 11,10 25,10 14,0 25,5 25,10 0,6 9,10 20,10 11,0 20,5 20,10 0,6 9,10 20,10 11,0 20,5 20,10 0,6 9,10 20,10 11,0 20,4 20,10 0,5 16,12 35,16 19,3 35,10 35,15 0,5 9,9 20,9 11,0 20,5 20,10 0,6 9,10 20,10 11,0 20,5 20,10 0,6 9,10 20,10 11,0 20,5 20,10 0,6 7,10 15,10 8,0 15,5 15,10 0,6 9,10 20,10 11,0 20,5 20,10 0,6 9,10 20,10 11,0 20,5 20,10 0,6 9,10 20,10 11,0 20,4 20,9 0,5 11,12 25,15 14,4 25,11 25,16 0,6 9,10 20,10 11,0 20,5 20,10 0,6 9,10 20,10 11,0 20,5 20,10 0,6 9,10 20,10 11,0 20,5 20,10 0,6 7,10 15,10 8,0 15,5 15,10 0,6 9,10 20,10 11,0 20,5 20,10 0,6 9,10 20,10 11,0 20,5 20,10 0,6 9,10 20,10 11,0 20,4 20,10 0,5 11,12 25,16 14,3 25,10 25,15 0,5 9,9 20,9 11,0 20,5 20,10 0,6 8,10 18,10 10,0 24,9 32,20 8,11 22,20 32,20 10,0 18,5 18,10 0,6 5,10 11,10 7,0 19,8 28,18 9,11 28,22 44,26 15,3 27,11 27,16 0,6 9,10 20,10 11,0 20,5 20,10 0,6 6,10 13,10 7,0 19,9 27,20 8,11 21,20 28,20 8,0 27,14 42,30 15,17 33,30 39,30 16,0 131,118 131,135 0,8 5,15 10,15 6,0 10,9 10,20 0,11 5,20 10,20 6,0 10,16 10,35 0,19 5,35 10,35 6,0 10,35 10,85 0,50 -4,85 -10,85 -5,0 -10,16 -10,35 0,19 -4,35 -10,35 -5,0 -10,6 -10,13 0,7 -9,19 -20,27 -11,8 -20,20 -20,27 0,18 -95,113 -112,113 -7,0 -20,9 -28,20 -8,11 -21,20 -28,20 -8,0 -27,14 -42,30 -15,17 -32,30 -37,30 -5,0 -15,9 -23,20 -8,11 -20,20 -28,20 -7,0 -20,6 -27,13 -35,30 -45,37 -59,37 -8,0 -18,9 -21,20 -3,11 -14,20 -23,20 -10,0 -24,9 -32,20 -8,11 -21,20 -30,20 -9,0 -22,9 -30,20 -8,11 -22,20 -31,20 -9,0 -19,7 -23,15 -3,8 -14,15 -23,15 -10,0 -25,9 -33,20 -8,11 -22,20 -32,20 -10,0 -18,5 -18,10 0,6 -8,10 -18,10 -10,0 -24,9 -32,20 -8,11 -19,20 -24,20 -5,0 -16,8 -25,18 -9,11 -28,22 -43,26 -16,3 -28,11 -28,16 0,6 -9,10 -20,10 -11,0 -20,5 -20,10 0,6 -6,10 -13,10 -7,0 -19,9 -27,20 -8,11 -22,20 -32,20 -10,0 -18,5 -18,10 0,6 -8,10 -18,10 -10,0 -24,9 -32,20 -8,11 -20,20 -27,20 -7,0 -13,5 -13,10 0,6 -9,10 -19,10 -11,0 -26,7 -35,15 -8,8 -22,15 -30,15 -9,0 -16,5 -16,10 0,6 -8,10 -18,10 -10,0 -24,9 -32,20 -8,11 -20,20 -27,20 -7,0 -13,5 -13,10 0,6 -8,10 -18,10 -10,0 -24,9 -32,20 -8,11 -22,20 -32,20 -10,0 -18,4 -18,9 0,5 -15,12 -33,15 -18,3 -39,15 -47,26 -8,11 -22,20 -32,20 -10,0 -18,5 -18,10 0,6 -9,10 -20,10 -11,0 -20,5 -20,10 0,6 -9,10 -20,10 -11,0 -20,5 -20,10 0,6 -7,10 -15,10 -8,0 -15,5 -15,10 0,6 -9,10 -20,10 -11,0 -20,5 -20,10 0,6 -9,10 -19,10 -11,0 -26,7 -35,15 -8,8 -19,15 -25,15 -6,0 -11,5 -11,10 0,6 -9,10 -20,10 -11,0 -20,5 -20,10 0,6 -9,10 -20,10 -11,0 -20,5 -20,10 0,6 -9,10 -20,10 -11,0 -20,5 -20,10 0,6 -9,10 -20,10 -11,0 -20,5 -20,10 0,6 -7,10 -15,10 -8,0 -15,5 -15,10 0,6 -9,10 -20,10 -11,0 -20,4 -20,9 0,5 -18,12 -40,16 -22,4 -40,11 -40,16 0,5 -7,9 -15,9 -8,0 -15,5 -15,10 0,6 -9,10 -20,10 -11,0 -20,5 -20,10 0,6 -9,10 -20,10 -11,0 -20,5 -20,10 0,6 -9,10 -20,10 -11,0 -20,5 -20,10 0,6 -9,10 -20,10 -11,0 -20,5 -20,10 0,6 -11,10 -25,10 -14,0 -25,5 -25,10 0,6 -9,10 -20,10 -11,0 -20,4 -20,9 0,5 -18,12 -40,16 -22,4 -40,11 -40,16 0,5 -7,9 -15,9 -8,0 -15,5 -15,10 0,6 -13,10 -30,10 -16,0 -30,5 -30,10 0,6 -9,10 -20,10 -11,0 -20,5 -20,10 0,6 -7,10 -15,10 -8,0 -15,5 -15,10 0,6 -13,10 -30,10 -16,0 -30,5 -30,10 0,6 -9,10 -20,10 -11,0 -20,4 -20,9 0,4 -19,11 -42,14 -24,3 -44,11 -46,16 -2,6 -17,11 -33,11 -16,0 -29,5 -29,10 0,6 -9,10 -20,10 -11,0 -20,5 -20,10 0,6 -11,10 -25,10 -14,0 -25,5 -25,10 0,6 -9,10 -20,10 -11,0 -20,5 -20,10 0,6 -13,10 -30,10 -16,0 -30,5 -30,10 0,6 -13,10 -30,10 -16,0 -30,5 -30,10 0,6 -7,10 -15,10 -8,0 -15,4 -15,9 0,5 -27,12 -60,16 -33,4 -60,11 -60,16 0,5 -11,9 -25,9 -14,0 -25,5 -25,10 0,6 -13,10 -30,10 -16,0 -30,5 -30,10 0,6 -13,10 -30,10 -16,0 -30,5 -30,10 0,6 -16,10 -35,10 -19,0 -35,5 -35,10 0,6 -13,10 -30,10 -16,0 -30,5 -30,10 0,6 -11,10 -25,10 -14,0 -25,5 -25,10 0,6 -18,10 -40,10 -22,0 -40,4 -40,9 0,5 -29,13 -65,16 -36,4 -65,11 -65,16 0,5 -18,9 -40,9 -22,0 -40,5 -40,10 0,6 -20,10 -45,10 -25,0 -45,5 -45,10 0,6 -18,10 -40,10 -22,0 -40,5 -40,10 0,6 -20,10 -45,10 -25,0 -45,5 -45,10 0,6 -22,10 -50,10 -27,0 -50,5 -50,10 0,6 -25,10 -55,10 -30,0 -55,4 -55,9 0,5 -54,12 -120,16 -66,4 -120,11 -120,16 0,5 -29,9 -65,9 -37,0 -65,4 -65,10 0,6 -32,10 -75,10 -43,0 -75,4 -75,10 0,6 -32,10 -75,10 -43,0 -75,4 -75,10 0,6 -42,10 -105,10 -63,0 -105,4 -105,10 0,6 -47,10 -120,10 -73,0 -120,4 -120,10 0,7 -145,10 -415,10 -270,0 -415,-3 -415,-10 z M 1675,3588 c 17,-28 37,-63 45,-77 8,-14 30,-52 48,-84 19,-31 39,-63 46,-70 14,-15 74,-111 87,-141 5,-12 36,-61 69,-111 33,-49 67,-106 77,-125 16,-32 120,-198 164,-262 11,-15 19,-30 19,-34 0,-10 71,-127 91,-149 10,-11 33,-49 52,-85 30,-57 51,-91 141,-227 11,-18 24,-33 28,-33 3,0 12,-17 19,-37 6,-21 15,-40 18,-43 6,-5 97,-142 134,-202 10,-16 15,-28 12,-28 -3,0 -1,-6 5,-12 23,-28 152,-232 154,-244 1,-7 18,-37 38,-66 92,-138 137,-208 133,-208 -6,0 33,-63 109,-179 31,-47 56,-88 56,-93 0,-5 8,-21 19,-36 45,-64 148,-230 164,-262 9,-19 37,-65 62,-103 l 45,-67 -42,26 c -246,155 -542,381 -783,599 -654,591 -1146,1242 -1378,1825 -55,138 -121,364 -113,386 7,19 188,106 326,155 58,21 110,38 115,38 6,1 24,-22 40,-51 z m 65,-1713 c 19,-19 32,-35 29,-35 -3,0 -20,16 -39,35 -19,19 -32,35 -29,35 3,0 20,-16 39,-35 z m 575,-585 c 21,-22 37,-40 34,-40 -3,0 -23,18 -44,40 -21,22 -37,40 -34,40 3,0 23,-18 44,-40 z" />
    <path
       style="fill:#ffffff"
       id="path13716"
       d="m 4304,3750 c -34,-13 -54,-50 -54,-98 0,-66 57,-112 139,-112 136,0 280,-99 349,-241 l 32,-64 1,-198 c 1,-109 -2,-201 -5,-205 -4,-3 -19,2 -34,12 -153,100 -364,133 -547,87 -210,-54 -351,-173 -419,-353 -42,-113 -44,-139 -46,-554 -1,-433 1,-453 51,-488 46,-32 127,-15 148,31 7,16 11,144 11,391 0,202 5,396 10,431 19,135 116,263 247,328 54,26 67,28 173,28 106,0 120,-2 178,-29 106,-49 209,-178 227,-284 4,-24 8,-223 8,-442 l 2,-398 25,-27 c 14,-15 40,-34 58,-41 27,-12 37,-12 66,0 70,29 66,-30 66,879 0,911 1,892 -68,1011 -85,145 -167,222 -305,287 -104,48 -256,72 -313,49 z" />
    <path
       style="fill:#ffffff"
       id="path13718"
       d="m 6753,2965 c -24,-10 -34,-23 -42,-52 -15,-51 -15,-1263 -1,-1315 27,-94 165,-112 198,-25 9,24 12,195 12,676 0,714 3,683 -66,716 -39,18 -59,18 -101,0 z" />
    <path
       style="fill:#ffffff"
       id="path13720"
       d="m 5655,2927 c -217,-60 -359,-196 -422,-407 -14,-46 -17,-123 -20,-485 -3,-334 -1,-436 9,-455 7,-14 34,-35 59,-48 44,-22 49,-22 83,-8 65,27 66,36 66,481 0,492 3,504 138,632 30,29 80,65 111,80 51,26 66,28 171,28 109,0 118,-2 181,-32 117,-57 204,-173 229,-303 6,-30 10,-221 10,-437 v -385 l 34,-34 c 49,-49 105,-50 149,-3 l 28,30 -4,447 c -3,483 -3,482 -62,594 -82,153 -232,268 -410,313 -89,23 -252,19 -350,-8 z" />
    <path
       style="fill:#ffffff"
       id="path13722"
       d="m 5190,378 c 0,-5 11,-8 25,-8 14,0 25,3 25,8 0,4 -11,7 -25,7 -14,0 -25,-3 -25,-7 z" />
    <path
       style="fill:#ffffff"
       id="path13724"
       d="m 5085,360 c -4,-6 6,-10 22,-10 22,0 25,2 13,10 -19,12 -27,12 -35,0 z" />
  </g>
  <g
     id="layer102"
     style="fill:#ffffff;stroke:none"
     transform="matrix(0.04530593,0,0,0.04530593,77.472847,207.85933)">
    <path
       style="fill:#ffffff"
       id="path13727"
       d="m 1520,3601 c -138,-49 -319,-136 -326,-155 -8,-22 58,-248 113,-386 232,-583 724,-1234 1378,-1825 241,-218 537,-444 783,-599 l 42,-26 -45,67 c -25,38 -53,84 -62,103 -16,32 -119,198 -164,262 -11,15 -19,31 -19,36 0,5 -25,46 -56,93 -76,116 -115,179 -109,179 4,0 -41,70 -133,208 -20,29 -37,59 -38,66 -2,12 -131,216 -154,244 -6,6 -8,12 -5,12 3,0 -2,12 -12,28 -37,60 -128,197 -134,202 -3,3 -12,22 -18,43 -7,20 -16,37 -19,37 -4,0 -17,15 -28,33 -90,136 -111,170 -141,227 -19,36 -42,74 -52,85 -20,22 -91,139 -91,149 0,4 -8,19 -19,34 -44,64 -148,230 -164,262 -10,19 -44,76 -77,125 -33,50 -64,99 -69,111 -13,30 -73,126 -87,141 -7,7 -27,39 -46,70 -18,32 -40,70 -48,84 -8,14 -28,49 -45,77 -16,29 -34,52 -40,51 -5,0 -57,-17 -115,-38 z" />
    <path
       style="fill:#ffffff"
       id="path13729"
       d="m 4995,2390 c 0,-443 1,-624 2,-403 2,222 2,584 0,805 -1,222 -2,41 -2,-402 z" />
    <path
       style="fill:#ffffff"
       id="path13731"
       d="m 4333,2953 c 15,-2 37,-2 50,0 12,2 0,4 -28,4 -27,0 -38,-2 -22,-4 z" />
    <path
       style="fill:#ffffff"
       id="path13733"
       d="m 5803,2953 c 20,-2 54,-2 75,0 20,2 3,4 -38,4 -41,0 -58,-2 -37,-4 z" />
    <path
       style="fill:#ffffff"
       id="path13735"
       d="m 6101,2906 c 10,-9 89,-46 89,-41 0,5 -75,45 -86,45 -4,0 -5,-2 -3,-4 z" />
    <path
       style="fill:#ffffff"
       id="path13737"
       d="m 5518,2884 c -39,-21 -35,-28 5,-8 37,19 44,24 31,24 -5,-1 -21,-8 -36,-16 z" />
    <path
       style="fill:#ffffff"
       id="path13739"
       d="m 734,2873 c 3,-3 -12,-15 -34,-25 -22,-11 -40,-24 -40,-29 0,-5 -6,-9 -12,-9 -13,0 -130,-96 -136,-111 -8,-19 54,-110 273,-404 399,-534 903,-988 1490,-1340 192,-115 535,-287 663,-332 9,-3 0,12 -22,35 -21,22 -36,45 -32,50 3,5 -2,16 -11,23 -12,10 -14,10 -9,2 11,-19 -9,-16 -25,4 -12,15 -12,16 1,8 8,-5 -120,126 -285,290 -165,164 -277,279 -250,254 44,-38 42,-35 -15,25 -36,38 -76,79 -90,90 -52,41 -439,430 -435,436 2,4 -38,47 -90,96 -172,162 -410,397 -395,388 15,-8 -120,128 -381,383 -88,85 -142,146 -137,151 6,6 1,12 -12,15 -12,3 -19,3 -16,0 z m 996,-998 c 19,-19 32,-35 29,-35 -3,0 -20,16 -39,35 -19,19 -32,35 -29,35 3,0 20,-16 39,-35 z" />
    <path
       style="fill:#ffffff"
       id="path13741"
       d="m 4773,2355 c 0,-22 2,-30 4,-17 2,12 2,30 0,40 -3,9 -5,-1 -4,-23 z" />
    <path
       style="fill:#ffffff"
       id="path13743"
       d="m 6485,1995 c 0,-220 1,-309 2,-197 2,112 2,292 0,400 -1,108 -2,17 -2,-203 z" />
    <path
       style="fill:#ffffff"
       id="path13745"
       d="m 6265,1995 c 0,-214 1,-301 2,-192 2,109 2,285 0,390 -1,106 -2,17 -2,-198 z" />
    <path
       style="fill:#ffffff"
       id="path13747"
       d="m 3930,1969 c 0,-246 -4,-388 -11,-402 -10,-21 -10,-21 5,-3 14,17 16,71 16,403 0,211 -2,383 -5,383 -3,0 -5,-171 -5,-381 z" />
    <path
       style="fill:#ffffff"
       id="path13749"
       d="m 385,2130 c -4,-6 -12,-7 -18,-4 -7,4 -9,4 -6,1 3,-4 -14,-28 -39,-54 -68,-74 -172,-216 -172,-236 0,-11 65,-83 147,-166 520,-517 1138,-919 1798,-1169 154,-58 459,-144 625,-176 153,-29 386,-63 427,-62 23,1 39,-2 37,-6 -3,-5 4,-8 14,-8 11,0 22,6 25,14 4,10 -8,17 -37,26 -23,6 -69,32 -102,56 -32,25 -82,57 -110,70 -28,14 -64,37 -79,50 -15,13 -96,68 -179,121 -83,54 -153,100 -156,103 -11,13 -70,51 -70,45 0,-7 -85,50 -112,75 -9,8 -73,50 -142,93 -70,43 -124,82 -121,87 3,4 -3,7 -13,6 -9,0 -16,5 -14,12 1,8 -2,11 -7,7 -9,-5 -31,9 -67,43 -7,7 -19,11 -26,10 -7,-2 -12,2 -11,8 1,7 -5,11 -15,10 -9,0 -16,4 -15,10 1,7 -5,11 -15,10 -9,0 -16,5 -14,12 1,8 -2,11 -8,7 -5,-3 -10,-1 -10,4 0,6 -5,11 -11,11 -6,0 -41,20 -79,44 -37,25 -71,42 -74,39 -3,-4 -6,-2 -6,3 0,5 -14,18 -30,28 -17,9 -28,21 -25,26 3,4 -3,7 -13,6 -9,0 -16,4 -15,10 1,7 -5,11 -15,10 -9,0 -16,4 -15,10 1,7 -5,11 -15,10 -10,0 -16,5 -14,14 2,8 0,12 -4,8 -4,-4 -19,1 -33,11 -14,10 -46,27 -71,39 -25,12 -58,33 -75,47 -16,14 -44,35 -62,46 -18,12 -31,24 -28,29 3,4 -3,7 -13,6 -9,0 -16,5 -14,12 1,8 -2,11 -7,7 -12,-7 -113,54 -106,65 3,4 -3,7 -13,6 -9,0 -16,5 -14,12 1,8 -2,11 -7,7 -9,-5 -56,18 -71,35 -11,13 -70,51 -70,45 0,-3 -11,2 -25,11 -14,9 -22,21 -18,27 3,6 1,7 -5,3 -12,-7 -109,62 -105,74 1,4 -5,7 -15,6 -10,0 -16,5 -14,13 3,12 0,12 -12,1 -11,-8 -16,-9 -16,-1 0,6 -17,19 -37,29 -21,9 -46,24 -56,32 -10,8 -23,15 -30,15 -7,1 -11,7 -9,13 1,8 -5,12 -15,10 -10,-2 -17,2 -16,10 2,6 -6,12 -18,12 -11,0 -17,5 -14,10 3,6 -1,10 -9,10 -9,0 -16,5 -16,11 0,5 -4,8 -9,4 -6,-3 -14,3 -20,12 -5,10 -13,18 -18,18 -4,0 -7,3 -6,6 1,4 -5,6 -15,5 -9,0 -16,5 -14,12 1,6 -2,11 -6,10 -4,-2 -25,6 -45,17 -27,14 -35,24 -31,37 6,19 -10,25 -21,8 z" />
    <path
       style="fill:#ffffff"
       id="path13751"
       d="m 3251,1685 c 0,-5 8,-26 19,-45 11,-19 19,-30 19,-25 0,6 -8,26 -19,45 -11,19 -19,31 -19,25 z" />
    <path
       style="fill:#ffffff"
       id="path13753"
       d="m 3360,1456 c 0,-10 60,-126 65,-126 3,0 -9,28 -26,63 -33,65 -39,75 -39,63 z" />
    <path
       style="fill:#ffffff"
       id="path13755"
       d="m 3510,1160 c 11,-22 23,-40 25,-40 3,0 -4,18 -15,40 -11,22 -23,40 -25,40 -3,0 4,-18 15,-40 z" />
    <path
       style="fill:#ffffff"
       id="path13757"
       d="m 3575,1040 c 9,-16 18,-30 21,-30 2,0 -2,14 -11,30 -9,17 -18,30 -21,30 -2,0 2,-13 11,-30 z" />
    <path
       style="fill:#ffffff"
       id="path13759"
       d="m 3900,510 c 12,-16 24,-30 26,-30 3,0 -4,14 -16,30 -12,17 -24,30 -26,30 -3,0 4,-13 16,-30 z" />
    <path
       style="fill:#ffffff"
       id="path13761"
       d="m 3713,223 c 26,-2 67,-2 90,0 23,2 2,3 -48,3 -49,0 -68,-1 -42,-3 z" />
  </g>
  <g
     id="layer103"
     style="fill:#ffffff;stroke:none"
     transform="matrix(0.04530593,0,0,0.04530593,77.472847,207.85933)">
    <path
       style="fill:#ffffff"
       id="path13764"
       d="m 3200,4259 c -245,-17 -497,-62 -619,-111 l -53,-21 7,-106 c 14,-220 132,-724 277,-1191 277,-893 785,-1925 1229,-2500 l 72,-93 111,6 c 159,9 575,63 751,98 162,32 201,41 435,95 85,20 162,37 170,38 8,1 31,7 50,13 19,6 87,25 150,43 270,75 604,185 880,290 702,266 1918,860 2364,1154 131,87 235,167 235,181 0,20 -513,373 -844,580 -1202,753 -2365,1234 -3386,1400 -670,108 -1361,155 -1829,124 z m 1314,-515 c 233,-59 444,-285 476,-509 6,-42 10,-385 10,-855 0,-760 -1,-786 -20,-817 -27,-46 -80,-59 -136,-34 -23,11 -48,30 -56,43 -10,18 -14,120 -18,453 l -5,430 -27,58 c -35,74 -126,165 -205,203 -52,26 -68,29 -158,29 -121,0 -175,-17 -260,-80 -72,-54 -117,-110 -147,-185 -22,-53 -23,-68 -28,-483 l -5,-429 -28,-24 c -21,-18 -40,-24 -74,-24 -39,0 -50,5 -79,36 l -34,35 v 417 c 0,470 3,490 71,629 55,110 134,190 242,243 116,56 191,74 322,73 157,0 276,-33 378,-105 23,-17 28,-17 33,-4 3,8 4,104 2,213 l -3,198 -30,54 c -73,133 -197,216 -340,228 -73,6 -83,9 -112,39 -44,43 -46,107 -7,153 25,30 29,31 101,31 41,0 103,-7 137,-16 z m 2355,-780 c 15,-9 33,-25 39,-35 17,-27 17,-1341 0,-1368 -28,-46 -103,-58 -152,-26 -58,38 -56,18 -56,720 0,456 3,653 11,668 28,55 102,74 158,41 z m -919,-14 c 251,-40 438,-200 516,-440 15,-48 18,-107 22,-470 4,-443 1,-477 -43,-506 -48,-32 -139,-11 -167,39 -10,16 -14,129 -18,452 l -5,430 -29,59 c -37,76 -127,166 -201,201 -194,92 -454,-3 -546,-200 -45,-96 -49,-142 -49,-548 1,-420 2,-415 -64,-442 -42,-18 -93,-5 -127,31 l -24,26 v 451 452 l 26,67 c 34,88 84,170 134,222 135,141 361,209 575,176 z" />
  </g>
  <g
     id="layer101-7"
     style="fill:#26357c;stroke:none"
     transform="matrix(0.0445116,0,0,0.0445116,81.05918,210.58506)">
    <path
       transform="matrix(20.566344,0,0,20.566344,-1247.445,-4098.8412)"
       id="path14638"
       d="m 173.21723,262.02233 c 1.02108,-1.06971 1.79905,-1.94493 1.65318,-1.94493 -0.14587,0 -1.11833,0.87522 -2.13942,1.94493 -1.02108,1.06971 -1.79905,1.94492 -1.65318,1.94492 0.14587,0 1.11833,-0.87521 2.13942,-1.94492 v 0"
       style="fill:none;stroke-width:0.04862313" />
    <path
       transform="matrix(20.566344,0,0,20.566344,-1247.445,-4098.8412)"
       id="path14636"
       d="m 145.25893,290.46686 c 0.92384,-0.92384 1.55594,-1.70181 1.41007,-1.70181 -0.14587,0 -0.97247,0.77797 -1.89631,1.70181 -0.92383,0.92384 -1.55594,1.70181 -1.41007,1.70181 0.14587,0 0.97247,-0.77797 1.89631,-1.70181 v 0"
       style="fill:none;stroke-width:0.04862313" />
    <path
       transform="matrix(20.566344,0,0,20.566344,-1247.445,-4098.8412)"
       id="path14634"
       d="m 142.09842,373.75828 c 0.8266,-1.36145 1.79906,-3.06326 2.18804,-3.74398 0.38899,-0.68072 1.4587,-2.5284 2.33391,-4.08434 0.92384,-1.50732 1.89631,-3.06326 2.23667,-3.40362 0.68072,-0.72935 3.59811,-5.39717 4.23021,-6.85586 0.24312,-0.58348 1.75043,-2.96601 3.355,-5.39717 1.60456,-2.38253 3.25775,-5.15405 3.74398,-6.07789 0.77797,-1.55594 5.83477,-9.62738 7.97419,-12.73926 0.53485,-0.72935 0.92384,-1.4587 0.92384,-1.65319 0,-0.48623 3.45224,-6.17514 4.4247,-7.24485 0.48624,-0.53485 1.60457,-2.38253 2.52841,-4.13296 1.45869,-2.77152 2.47978,-4.42471 6.85586,-11.03745 0.53485,-0.87522 1.16695,-1.60457 1.36145,-1.60457 0.14587,0 0.58347,-0.82659 0.92384,-1.79905 0.29173,-1.02109 0.72934,-1.94493 0.87521,-2.0908 0.29174,-0.24311 4.71645,-6.90448 6.5155,-9.82187 0.48623,-0.77797 0.72935,-1.36145 0.58348,-1.36145 -0.14587,0 -0.0486,-0.29173 0.24311,-0.58347 1.11834,-1.36145 7.39072,-11.28057 7.48797,-11.86405 0.0486,-0.34036 0.87521,-1.79905 1.84768,-3.20912 4.47332,-6.71 6.66136,-10.11361 6.46687,-10.11361 -0.29174,0 1.60457,-3.06326 5.29992,-8.70354 1.50732,-2.28529 2.7229,-4.27884 2.7229,-4.52196 0,-0.24311 0.38898,-1.02108 0.92384,-1.75043 2.18804,-3.11188 7.19622,-11.18332 7.97419,-12.73926 0.43761,-0.92384 1.79906,-3.1605 3.01464,-5.00818 l 2.18804,-3.25775 -2.04218,1.2642 c -11.96129,7.53659 -26.35373,18.52541 -38.07191,29.12526 -31.79952,28.73627 -55.7221,60.38992 -67.00267,88.73721 -2.67427,6.70999 -5.8834,17.69882 -5.49441,18.76853 0.34036,0.92384 9.14115,5.15405 15.85114,7.53658 2.82014,1.02109 5.34854,1.84768 5.59166,1.84768 0.29174,0.0486 1.16695,-1.06971 1.94492,-2.47978 v 0"
       style="fill:none;stroke-width:0.04862313" />
    <path
       transform="matrix(20.566344,0,0,20.566344,-1247.445,-4098.8412)"
       id="path14632"
       d="m 331.2506,222.275 c -1.79596,-0.37841 -5.09486,-1.26734 -5.84298,-1.58233 -1.75043,-0.8266 -7.09897,-1.99355 -7.53658,-1.70181 -0.29174,0.14587 -0.48623,0.0486 -0.48623,-0.19449 0,-0.29174 0.97246,-0.53486 2.18804,-0.53486 1.21558,0 2.18804,0.19449 2.18804,0.43761 0,0.24311 2.18804,0.58348 4.86231,0.77797 2.67427,0.14587 4.86231,0.53485 4.86231,0.77797 0,0.24311 1.11834,0.43761 2.43116,0.43761 1.36145,0 2.43116,0.24311 2.43116,0.48623 0,0.29174 0.97246,0.48623 2.18804,0.48623 1.21558,0 2.18804,0.24312 2.18804,0.48623 0,0.29174 0.87522,0.48623 1.94492,0.48623 1.06971,0 1.94493,0.24312 1.94493,0.48623 0,0.29174 0.97246,0.48623 2.18804,0.48623 1.21558,0 2.18804,0.24312 2.18804,0.48624 0,0.29174 0.87522,0.48623 1.94493,0.48623 1.0697,0 1.94492,0.24311 1.94492,0.48623 0,0.29174 0.77797,0.48623 1.70181,0.48623 0.92384,0 1.70181,0.19449 1.70181,0.43761 0,0.24311 1.65319,0.58348 3.64674,0.77797 1.99354,0.19449 3.64673,0.53485 3.64673,0.77797 0,0.24311 0.87522,0.43761 1.94493,0.43761 1.0697,0 1.94492,0.24311 1.94492,0.48623 0,0.29174 0.53485,0.48623 1.21558,0.48623 0.68072,0 1.21558,0.24311 1.21558,0.48623 0,0.29174 0.87521,0.48623 1.94492,0.48623 1.06971,0 1.94493,0.24312 1.94493,0.48623 0,0.29174 0.68072,0.48623 1.45869,0.48623 0.82659,0 1.45869,0.24312 1.45869,0.48624 0,0.29173 0.77798,0.48623 1.70181,0.48623 0.92384,0 1.70181,0.24311 1.70181,0.48623 0,0.29174 0.68073,0.48623 1.4587,0.48623 0.82659,0 1.45869,0.24312 1.45869,0.48623 0,0.29174 0.68073,0.48623 1.4587,0.48623 0.82659,0 1.45869,0.19449 1.45869,0.43761 0,0.24312 1.21558,0.6321 2.67427,0.77797 1.4587,0.19449 2.67427,0.53485 2.67427,0.77797 0,0.24312 0.53486,0.43761 1.21558,0.43761 0.68073,0 1.21558,0.24311 1.21558,0.48623 0,0.29174 0.68072,0.48623 1.45869,0.48623 0.8266,0 1.4587,0.24312 1.4587,0.48623 0,0.29174 0.68072,0.48623 1.45869,0.48623 0.8266,0 1.4587,0.24312 1.4587,0.48624 0,0.29173 0.53485,0.48623 1.21557,0.48623 0.68073,0 1.21558,0.24311 1.21558,0.48623 0,0.29174 0.68073,0.48623 1.4587,0.48623 0.82659,0 1.45869,0.24311 1.45869,0.48623 0,0.29174 0.68072,0.48623 1.45869,0.48623 0.8266,0 1.4587,0.24312 1.4587,0.48623 0,0.29174 0.43761,0.48623 0.97246,0.48623 0.53486,0 0.97246,0.1945 0.97246,0.43761 0,0.24312 1.21558,0.6321 2.67428,0.77797 1.45869,0.1945 2.67427,0.53486 2.67427,0.77797 0,0.24312 0.43761,0.43761 0.97246,0.43761 0.53485,0 0.97246,0.24312 0.97246,0.48623 0,0.29174 0.53486,0.48623 1.21558,0.48623 0.68072,0 1.21558,0.24312 1.21558,0.48623 0,0.29174 0.43761,0.48624 0.97246,0.48624 0.53486,0 0.97246,0.24311 0.97246,0.48623 0,0.29174 0.68073,0.48623 1.4587,0.48623 0.82659,0 1.45869,0.24311 1.45869,0.48623 0,0.29174 0.34036,0.48623 0.72935,0.48623 0.38898,0 0.72935,0.24312 0.72935,0.48623 0,0.29174 0.68072,0.48623 1.45869,0.48623 0.82659,0 1.45869,0.1945 1.45869,0.48624 0,0.24311 1.11834,0.58347 2.43116,0.77797 1.36145,0.19449 2.43116,0.48623 2.43116,0.72934 0,0.24312 0.34036,0.43761 0.72934,0.43761 0.38899,0 0.72935,0.24312 0.72935,0.48623 0,0.29174 0.43761,0.48623 0.97246,0.48623 0.53486,0 0.97247,0.24312 0.97247,0.48623 0,0.29174 0.4376,0.48624 0.97246,0.48624 0.53485,0 0.97246,0.24311 0.97246,0.48623 0,0.29174 0.68073,0.48623 1.4587,0.48623 0.82659,0 1.45869,0.24311 1.45869,0.48623 0,0.29174 0.34036,0.48623 0.72935,0.48623 0.38898,0 0.72934,0.24312 0.72934,0.48623 0,0.29174 0.43761,0.48623 0.97247,0.48623 0.53485,0 0.97246,0.24312 0.97246,0.48623 0,0.29174 0.43761,0.48624 0.97246,0.48624 0.53486,0 0.97246,0.19449 0.97246,0.4376 0,0.1945 0.92384,0.53486 2.04217,0.68073 1.16696,0.14587 2.13942,0.53485 2.23667,0.77797 0.0973,0.29174 0.58348,0.53485 1.11833,0.53485 0.48623,0 0.92384,0.24312 0.92384,0.48623 0,0.29174 0.43761,0.48624 0.97246,0.48624 0.53486,0 0.97247,0.24311 0.97247,0.48623 0,0.29174 0.4376,0.48623 0.97246,0.48623 0.53485,0 0.97246,0.24311 0.97246,0.48623 0,0.29174 0.53486,0.48623 1.21558,0.48623 0.68072,0 1.21558,0.24312 1.21558,0.48623 0,0.29174 0.43761,0.48623 0.97246,0.48623 0.53485,0 0.97246,0.24312 0.97246,0.48623 0,0.29174 0.43761,0.48624 0.97247,0.48624 0.53485,0 0.97246,0.24311 0.97246,0.48623 0,0.29174 0.43761,0.48623 0.97246,0.48623 0.53485,0 0.97246,0.19449 0.97246,0.48623 0,0.24312 0.77797,0.58348 1.70181,0.77797 0.92384,0.14587 1.70181,0.48623 1.70181,0.72935 0,0.24311 0.43761,0.4376 0.97246,0.4376 0.53486,0 0.97247,0.24312 0.97247,0.48624 0,0.29173 0.43761,0.48623 0.97246,0.48623 0.53485,0 0.97246,0.24311 0.97246,0.48623 0,0.29174 0.53486,0.48623 1.21558,0.48623 0.68072,0 1.21558,0.24312 1.21558,0.48623 0,0.29174 0.43761,0.48623 0.97246,0.48623 0.53486,0 0.97246,0.24312 0.97246,0.48623 0,0.29174 0.43761,0.48623 0.97247,0.48623 0.53485,0 0.97246,0.24312 0.97246,0.48624 0,0.29174 0.43761,0.48623 0.97246,0.48623 0.53486,0 0.97246,0.19449 0.97246,0.48623 0,0.24311 0.77797,0.58348 1.70181,0.77797 0.92384,0.14587 1.70181,0.48623 1.70181,0.72935 0,0.24311 0.43761,0.4376 0.97247,0.4376 0.53485,0 0.97246,0.24312 0.97246,0.48624 0,0.29173 0.43761,0.48623 0.97246,0.48623 0.53486,0 0.97246,0.24311 0.97246,0.48623 0,0.29174 0.43761,0.48623 0.97247,0.48623 0.53485,0 0.97246,0.24311 0.97246,0.48623 0,0.29174 0.34036,0.48623 0.72935,0.48623 0.38898,0 0.72934,0.24312 0.72934,0.48623 0,0.29174 0.43761,0.48623 0.97247,0.48623 0.53485,0 0.97246,0.24312 0.97246,0.48624 0,0.29173 0.43761,0.48623 0.97246,0.48623 0.53486,0 0.97246,0.24311 0.97246,0.48623 0,0.29174 0.43761,0.48623 0.97247,0.48623 0.53485,0 0.97246,0.19449 0.97246,0.43761 0,0.24311 0.53485,0.58348 1.21558,0.72934 0.68072,0.1945 1.21558,0.53486 1.21558,0.77797 0,0.29174 0.4376,0.48624 0.97246,0.48624 0.53485,0 0.97246,0.24311 0.97246,0.48623 0,0.29174 0.43761,0.48623 0.97246,0.48623 0.53486,0 0.97247,0.24311 0.97247,0.48623 0,0.29174 0.4376,0.48623 0.97246,0.48623 0.53485,0 0.97246,0.24312 0.97246,0.48623 0,0.29174 0.34036,0.48623 0.72935,0.48623 0.38898,0 0.72934,0.24312 0.72934,0.48624 0,0.29173 0.43761,0.48623 0.97247,0.48623 0.53485,0 0.97246,0.24311 0.97246,0.48623 0,0.29174 0.43761,0.48623 0.97246,0.48623 0.53486,0 0.97247,0.24311 0.97247,0.48623 0,0.29174 0.4376,0.48623 0.97246,0.48623 0.53485,0 0.97246,0.19449 0.97246,0.48623 0,0.24312 0.53485,0.58348 1.21558,0.77797 0.68072,0.14587 1.21558,0.48623 1.21558,0.72935 0,0.24312 0.4376,0.43761 0.97246,0.43761 0.53485,0 0.97246,0.24311 0.97246,0.48623 0,0.29174 0.38899,0.48623 0.87522,0.48623 0.48623,0 1.16695,0.43761 1.55594,0.97246 0.38898,0.53486 1.06971,0.97247 1.55594,0.97247 0.48623,0 0.87522,0.24311 0.87522,0.48623 0,0.29174 0.24311,0.48623 0.53485,0.48623 0.34036,0 0.92384,0.38898 1.36145,0.87522 0.43761,0.53485 1.36144,1.0697 2.13941,1.2642 0.72935,0.14587 1.31283,0.53485 1.31283,0.77797 0,0.29174 0.43761,0.48623 0.97246,0.48623 0.53486,0 0.97246,0.24311 0.97246,0.48623 0,0.29174 0.29174,0.48623 0.63211,0.48623 0.34036,0 0.92383,0.43761 1.31282,0.97246 0.38898,0.53486 1.02109,0.97247 1.36145,0.97247 0.38898,0 1.31282,0.68072 2.04217,1.45869 0.72935,0.82659 1.60456,1.45869 1.8963,1.45869 0.77797,0 6.36963,5.73753 6.36963,6.56413 0,0.38898 0.24312,0.72934 0.48623,0.72934 0.29174,0 0.48623,0.43761 0.48623,0.97247 0,0.53485 0.24312,0.97246 0.48623,0.97246 0.29174,0 0.48624,0.77797 0.48624,1.70181 0,0.92384 0.24311,1.70181 0.48623,1.70181 0.29174,0 0.48623,1.70181 0.48623,4.13296 0,2.43116 -0.19449,4.13297 -0.48623,4.13297 -0.24312,0 -0.48623,0.77797 -0.48623,1.70181 0,0.92384 -0.1945,1.70181 -0.48624,1.70181 -0.24311,0 -0.48623,0.29174 -0.48623,0.6321 0,0.34036 -0.4376,0.92384 -0.97246,1.31282 -0.53485,0.38899 -0.97246,0.97247 -0.97246,1.31283 0,0.87521 -4.6192,5.49441 -5.44579,5.49441 -0.34036,0 -0.97246,0.43761 -1.36145,0.97246 -0.38898,0.53486 -1.02109,0.97247 -1.36145,0.97247 -0.38898,0 -1.31282,0.68072 -2.04217,1.45869 -0.72935,0.82659 -1.55594,1.45869 -1.79905,1.45869 -0.24312,0 -0.72935,0.43761 -1.11834,0.97247 -0.38898,0.53485 -0.97246,0.97246 -1.36144,0.97246 -0.34037,0 -0.97247,0.29174 -1.31283,0.6321 -1.70181,1.45869 -2.18804,1.79906 -2.86876,1.79906 -0.38899,0 -0.87522,0.4376 -1.02109,0.97246 -0.14587,0.53485 -0.68072,0.97246 -1.11833,0.97246 -0.48623,0 -1.16696,0.43761 -1.55594,0.97246 -0.38899,0.53486 -1.02109,0.97247 -1.4587,0.97247 -0.4376,0 -1.0697,0.43761 -1.45869,0.97246 -0.38898,0.53485 -1.06971,0.97246 -1.50732,0.97246 -0.4376,0 -0.92384,0.34036 -1.11833,0.72935 -0.14587,0.38898 -0.68072,0.72935 -1.11833,0.72935 -0.48623,0 -1.21558,0.4376 -1.60456,0.97246 -0.38899,0.53485 -1.06971,0.97246 -1.55594,0.97246 -0.48624,0 -0.87522,0.24312 -0.87522,0.48623 0,0.29174 -0.38899,0.48623 -0.87522,0.48623 -0.48623,0 -1.16695,0.43761 -1.55594,0.97247 -0.38898,0.53485 -0.92384,0.97246 -1.16695,0.97246 -0.24312,0 -0.77797,0.38898 -1.21558,0.87522 -0.43761,0.53485 -1.36145,1.0697 -2.09079,1.2642 -0.77797,0.14587 -1.36145,0.53485 -1.36145,0.77797 0,0.29174 -0.43761,0.48623 -0.97246,0.48623 -0.53486,0 -0.97247,0.24311 -0.97247,0.48623 0,0.29174 -0.29174,0.48623 -0.6321,0.48623 -0.34036,0 -0.92384,0.43761 -1.31282,0.97246 -0.38899,0.53486 -1.06971,0.97247 -1.55594,0.97247 -0.48623,0 -0.87522,0.24311 -0.87522,0.48623 0,0.29174 -0.38898,0.48623 -0.87522,0.48623 -0.48623,0 -1.16695,0.43761 -1.55594,0.97246 -0.38898,0.53486 -0.97246,0.97246 -1.31282,0.97246 -0.34036,0 -0.6321,0.24312 -0.6321,0.48623 0,0.29174 -0.43761,0.48624 -0.92384,0.48624 -0.53485,0 -1.2642,0.34036 -1.70181,0.72934 -0.38898,0.38899 -1.06971,0.72935 -1.45869,0.72935 -0.43761,0 -0.77797,0.24312 -0.77797,0.48623 0,0.29174 -0.38899,0.48623 -0.87522,0.48623 -0.48623,0 -1.16696,0.43761 -1.55594,0.97247 -0.38899,0.53485 -0.97246,0.97246 -1.31282,0.97246 -0.34037,0 -0.63211,0.24311 -0.63211,0.48623 0,0.29174 -0.38898,0.48623 -0.87521,0.48623 -0.48623,0 -1.16696,0.43761 -1.55594,0.97246 -0.38899,0.53486 -1.06971,0.97247 -1.55594,0.97247 -0.48623,0 -0.87522,0.19449 -0.87522,0.4376 0,0.24312 -0.72935,0.58348 -1.60456,0.72935 -0.87522,0.14587 -1.8963,0.72935 -2.28529,1.2642 -0.38898,0.53486 -1.06971,0.97246 -1.55594,0.97246 -0.48623,0 -0.87522,0.24312 -0.87522,0.48624 0,0.29173 -0.4376,0.48623 -0.97246,0.48623 -0.53485,0 -0.97246,0.24311 -0.97246,0.48623 0,0.29174 -0.43761,0.48623 -0.97246,0.48623 -0.53486,0 -0.97247,0.24312 -0.97247,0.48623 0,0.29174 -0.34036,0.48623 -0.72934,0.48623 -0.38899,0 -0.72935,0.24312 -0.72935,0.48623 0,0.29174 -0.43761,0.48624 -0.97246,0.48624 -0.53486,0 -0.97246,0.24311 -0.97246,0.48623 0,0.29174 -0.43761,0.48623 -0.92384,0.48623 -0.53486,0 -1.26421,0.34036 -1.70181,0.72934 -0.38899,0.38899 -0.92384,0.72935 -1.21558,0.72935 -0.29174,0 -0.53486,0.24312 -0.53486,0.48623 0,0.29174 -0.4376,0.48623 -0.97246,0.48623 -0.53485,0 -0.97246,0.24312 -0.97246,0.48624 0,0.29173 -0.43761,0.48623 -0.97246,0.48623 -0.53486,0 -0.97247,0.24311 -0.97247,0.48623 0,0.29174 -0.43761,0.48623 -0.97246,0.48623 -0.53485,0 -0.97246,0.24312 -0.97246,0.48623 0,0.29174 -0.43761,0.48623 -0.97246,0.48623 -0.53486,0 -0.97247,0.24312 -0.97247,0.48623 0,0.29174 -0.34036,0.48623 -0.72934,0.48623 -0.38899,0 -0.72935,0.24312 -0.72935,0.48624 0,0.29173 -0.43761,0.48623 -0.97246,0.48623 -0.53486,0 -0.97247,0.19449 -0.97247,0.43761 0,0.24311 -0.87521,0.58347 -1.94492,0.77797 -1.06971,0.19449 -1.94493,0.53485 -1.94493,0.77797 0,0.24311 -0.34036,0.4376 -0.72934,0.4376 -0.38899,0 -0.72935,0.24312 -0.72935,0.48624 0,0.29173 -0.43761,0.48623 -0.97246,0.48623 -0.53486,0 -0.97247,0.24311 -0.97247,0.48623 0,0.29174 -0.4376,0.48623 -0.97246,0.48623 -0.53485,0 -0.97246,0.24311 -0.97246,0.48623 0,0.29174 -0.43761,0.48623 -0.97246,0.48623 -0.53486,0 -0.97247,0.24312 -0.97247,0.48623 0,0.29174 -0.4376,0.48623 -0.97246,0.48623 -0.53485,0 -0.97246,0.24312 -0.97246,0.48624 0,0.29173 -0.53486,0.48623 -1.21558,0.48623 -0.68072,0 -1.21558,0.24311 -1.21558,0.48623 0,0.29174 -0.43761,0.48623 -0.97246,0.48623 -0.53486,0 -0.97246,0.19449 -0.97246,0.43761 0,0.24311 -0.87522,0.58348 -1.94493,0.77797 -1.06971,0.19449 -1.94492,0.53485 -1.94492,0.77797 0,0.24311 -0.34037,0.43761 -0.72935,0.43761 -0.38899,0 -0.72935,0.24311 -0.72935,0.48623 0,0.29174 -0.6321,0.48623 -1.45869,0.48623 -0.77797,0 -1.4587,0.24311 -1.4587,0.48623 0,0.29174 -0.4376,0.48623 -0.97246,0.48623 -0.53485,0 -0.97246,0.24312 -0.97246,0.48623 0,0.29174 -0.34036,0.48623 -0.72935,0.48623 -0.38898,0 -0.72934,0.24312 -0.72934,0.48624 0,0.29173 -0.63211,0.48623 -1.4587,0.48623 -0.77797,0 -1.45869,0.24311 -1.45869,0.48623 0,0.29174 -0.43761,0.48623 -0.97246,0.48623 -0.53486,0 -0.97247,0.19449 -0.97247,0.43761 0,0.19449 -0.92384,0.53485 -2.04217,0.68072 -1.16695,0.14587 -2.13942,0.53486 -2.23666,0.77797 -0.0972,0.29174 -0.8266,0.53486 -1.60457,0.53486 -0.77797,0 -1.41007,0.24311 -1.41007,0.48623 0,0.29174 -0.43761,0.48623 -0.97246,0.48623 -0.53485,0 -0.97246,0.24311 -0.97246,0.48623 0,0.29174 -0.53486,0.48623 -1.21558,0.48623 -0.68072,0 -1.21558,0.24312 -1.21558,0.48623 0,0.29174 -0.43761,0.48623 -0.97246,0.48623 -0.53486,0 -0.97246,0.24312 -0.97246,0.48623 0,0.29174 -0.6321,0.48624 -1.4587,0.48624 -0.77797,0 -1.45869,0.24311 -1.45869,0.48623 0,0.29174 -0.6321,0.48623 -1.4587,0.48623 -0.77797,0 -1.45869,0.24311 -1.45869,0.48623 0,0.29174 -0.34036,0.48623 -0.72935,0.48623 -0.38898,0 -0.72934,0.19449 -0.72934,0.43761 0,0.24311 -1.31283,0.58348 -2.91739,0.77797 -1.60456,0.19449 -2.91739,0.53485 -2.91739,0.77797 0,0.24312 -0.53485,0.43761 -1.21558,0.43761 -0.68072,0 -1.21558,0.24311 -1.21558,0.48623 0,0.29174 -0.6321,0.48623 -1.45869,0.48623 -0.77797,0 -1.45869,0.24312 -1.45869,0.48623 0,0.29174 -0.6321,0.48623 -1.4587,0.48623 -0.77797,0 -1.45869,0.24312 -1.45869,0.48623 0,0.29174 -0.77797,0.48624 -1.70181,0.48624 -0.92384,0 -1.70181,0.24311 -1.70181,0.48623 0,0.29174 -0.6321,0.48623 -1.45869,0.48623 -0.77797,0 -1.4587,0.24311 -1.4587,0.48623 0,0.29174 -0.53485,0.48623 -1.21558,0.48623 -0.68072,0 -1.21557,0.24312 -1.21557,0.48623 0,0.29174 -0.87522,0.48623 -1.94493,0.48623 -1.06971,0 -1.94492,0.1945 -1.94492,0.43761 0,0.24312 -1.41008,0.6321 -3.16051,0.77797 -1.75043,0.19449 -3.1605,0.53486 -3.1605,0.77797 0,0.24312 -0.87522,0.43761 -1.94493,0.43761 -1.06971,0 -1.94492,0.24312 -1.94492,0.48623 0,0.29174 -0.97246,0.48623 -2.18804,0.48623 -1.21558,0 -2.18804,0.24312 -2.18804,0.48623 0,0.29174 -0.87522,0.48623 -1.94493,0.48623 -1.06971,0 -1.94492,0.24312 -1.94492,0.48624 0,0.29173 -0.97247,0.48623 -2.18805,0.48623 -1.21557,0 -2.18804,0.24311 -2.18804,0.48623 0,0.29174 -1.0697,0.48623 -2.43115,0.48623 -1.31283,0 -2.43116,0.24312 -2.43116,0.48623 0,0.29174 -1.21558,0.48623 -2.67427,0.48623 -1.4587,0 -2.67427,0.1945 -2.67427,0.43761 0,0.24312 -2.62565,0.58348 -5.83478,0.77797 -3.20913,0.19449 -5.83477,0.53486 -5.83477,0.77797 0,0.24312 -1.41008,0.43761 -3.16051,0.43761 -1.79905,0 -3.1605,0.19449 -3.1605,0.48623 0,0.29174 -1.55594,0.48623 -3.64674,0.48623 -2.09079,0 -3.64673,0.19449 -3.64673,0.48623 0,0.29174 -1.55594,0.48623 -3.64674,0.48623 -2.09079,0 -3.64673,0.1945 -3.64673,0.48624 0,0.29173 -2.04217,0.48623 -5.10543,0.48623 -3.06326,0 -5.10543,0.19449 -5.10543,0.48623 0,0.29174 -2.28528,0.48623 -5.83477,0.48623 -3.54949,0 -5.83478,0.19449 -5.83478,0.48623 0,0.34036 -7.05035,0.48623 -20.1786,0.48623 -13.12824,0 -20.1786,-0.14587 -20.1786,-0.48623 0,-0.29174 -1.84768,-0.48623 -4.61919,-0.48623 -2.77152,0 -4.6192,-0.19449 -4.6192,-0.48623 0,-0.29174 -1.36145,-0.48623 -3.1605,-0.48623 -1.79906,0 -3.16051,-0.1945 -3.16051,-0.48623 0,-0.24312 -1.06971,-0.48624 -2.43115,-0.48624 -1.31283,0 -2.43116,-0.19449 -2.43116,-0.48623 0,-0.24311 -0.97246,-0.48623 -2.18804,-0.48623 -1.21558,0 -2.18804,-0.19449 -2.18804,-0.48623 0,-0.24312 -0.77797,-0.48623 -1.70181,-0.48623 -0.92384,0 -1.70181,-0.19449 -1.70181,-0.43761 0,-0.24311 -1.06971,-0.53485 -2.43116,-0.72935 -1.31282,-0.19449 -2.43116,-0.53485 -2.43116,-0.77797 0,-0.29173 -0.4376,-0.48623 -0.97246,-0.48623 -0.53485,0 -0.97246,-0.19449 -0.97246,-0.48623 0,-0.24311 -0.24312,-0.48623 -0.48623,-0.48623 -0.58348,0 -5.83478,-5.15405 -5.83478,-5.73753 0,-0.19449 -0.43761,-0.68072 -0.97246,-1.06971 -0.58348,-0.38898 -0.97246,-1.2642 -0.97246,-2.04217 0,-0.72935 -0.1945,-1.36145 -0.48623,-1.36145 -0.24312,0 -0.48624,-0.43761 -0.48624,-0.92384 0,-1.36144 -1.31282,-2.47978 -2.96601,-2.47978 -0.77797,0 -1.41007,-0.19449 -1.41007,-0.48623 0,-0.24311 -0.97246,-0.48623 -2.18804,-0.48623 -1.21558,0 -2.18804,-0.19449 -2.18804,-0.48623 0,-0.24312 -0.87521,-0.48623 -1.94492,-0.48623 -1.06971,0 -1.94493,-0.19449 -1.94493,-0.48623 0,-0.24312 -0.87522,-0.48623 -1.94492,-0.48623 -1.06971,0 -1.94493,-0.1945 -1.94493,-0.48624 0,-0.24311 -0.77797,-0.48623 -1.70181,-0.48623 -0.92384,0 -1.70181,-0.19449 -1.70181,-0.48623 0,-0.24311 -0.87521,-0.48623 -1.94492,-0.48623 -1.06971,0 -1.94493,-0.19449 -1.94493,-0.48623 0,-0.24312 -0.53485,-0.48623 -1.21558,-0.48623 -0.68072,0 -1.21558,-0.19449 -1.21558,-0.48623 0,-0.24312 -0.6321,-0.48623 -1.45869,-0.48623 -0.77797,0 -1.45869,-0.1945 -1.45869,-0.43761 0,-0.24312 -1.21558,-0.58348 -2.67428,-0.77797 -1.45869,-0.14587 -2.67427,-0.53486 -2.67427,-0.77797 0,-0.24312 -0.43761,-0.43761 -0.97246,-0.43761 -0.53485,0 -0.97246,-0.19449 -0.97246,-0.48623 0,-0.24312 -0.6321,-0.48623 -1.4587,-0.48623 -0.77797,0 -1.45869,-0.1945 -1.45869,-0.48623 0,-0.24312 -0.34036,-0.48624 -0.72935,-0.48624 -0.38898,0 -0.72934,-0.19449 -0.72934,-0.48623 0,-0.24311 -0.6321,-0.48623 -1.4587,-0.48623 -0.77797,0 -1.45869,-0.19449 -1.45869,-0.48623 0,-0.24312 -0.43761,-0.48623 -0.97246,-0.48623 -0.53486,0 -0.97247,-0.19449 -0.97247,-0.48623 0,-0.24312 -0.43761,-0.48623 -0.92384,-0.48623 -0.53485,0 -1.02108,-0.24312 -1.11833,-0.48624 -0.0973,-0.29173 -1.02108,-0.6321 -2.09079,-0.82659 -1.06971,-0.14587 -2.28529,-0.68072 -2.7229,-1.21558 -0.43761,-0.48623 -1.16695,-0.87521 -1.60456,-0.87521 -0.43761,0 -0.77797,-0.1945 -0.77797,-0.48623 0,-0.24312 -0.24312,-0.48624 -0.48623,-0.48624 -0.29174,0 -1.70181,-1.21557 -3.16051,-2.67427 -1.50731,-1.45869 -2.91738,-2.67427 -3.1605,-2.67427 -0.29174,0 -0.48623,-0.43761 -0.48623,-0.97246 0,-0.53486 -0.19449,-0.97247 -0.48623,-0.97247 -0.24312,0 -0.48623,-0.4376 -0.48623,-0.92383 0,-0.53486 -0.1945,-1.02109 -0.48624,-1.11834 -0.24311,-0.0486 -0.58347,-2.18804 -0.77797,-4.61919 -0.19449,-2.47978 -0.53485,-4.52196 -0.72934,-4.52196 -0.24312,0 -0.43761,-0.4376 -0.43761,-1.02108 0,-1.16696 -1.06971,-2.38253 -2.13942,-2.38253 -0.43761,0 -0.77797,-0.1945 -0.77797,-0.48624 0,-0.24311 -0.43761,-0.48623 -0.97246,-0.48623 -0.53486,0 -0.97246,-0.19449 -0.97246,-0.48623 0,-0.24311 -0.43761,-0.48623 -0.97247,-0.48623 -0.53485,0 -0.97246,-0.19449 -0.97246,-0.48623 0,-0.24312 -0.29174,-0.48623 -0.6321,-0.48623 -0.34036,0 -0.92384,-0.43761 -1.31282,-0.97246 -0.38899,-0.53486 -1.02109,-0.97247 -1.41007,-0.97247 -0.34037,0 -1.02109,-0.38898 -1.4587,-0.92384 -0.43761,-0.48623 -1.45869,-1.02108 -2.28529,-1.21557 -0.77797,-0.1945 -1.75043,-0.77798 -2.13941,-1.26421 -0.38899,-0.53485 -1.02109,-0.97246 -1.36145,-0.97246 -0.38899,0 -1.31283,-0.6321 -2.04217,-1.45869 -0.72935,-0.77797 -1.70181,-1.4587 -2.13942,-1.4587 -0.43761,0 -0.77797,-0.19449 -0.77797,-0.48623 0,-0.48623 -1.36145,-1.84768 -3.84123,-3.88985 -0.82659,-0.68072 -1.50731,-1.55594 -1.50731,-1.94492 0,-0.43761 -0.437613,-1.06971 -0.972467,-1.4587 -0.534855,-0.38898 -0.972463,-1.06971 -0.972463,-1.50731 0,-0.48624 -0.243116,-0.92384 -0.534854,-1.02109 -0.729347,-0.24312 -1.166955,-10.89158 -0.534855,-13.12825 0.437608,-1.65318 0.388985,-1.94492 -0.534854,-2.62564 -1.021086,-0.72935 -1.021086,-0.72935 0.388985,-0.38899 1.118332,0.24312 1.312824,0.19449 0.923839,-0.24312 -0.388985,-0.4376 1.312825,-2.33391 6.564119,-7.48796 12.69064,-12.3989 19.25476,-19.01164 18.52542,-18.62266 -0.8266,0.48624 13.031,-13.12824 17.50432,-17.16396 1.60457,-1.41007 2.82014,-2.77152 2.67428,-2.96601 -0.14587,-0.29174 18.62265,-19.10889 25.67301,-25.72164 1.21558,-1.16695 2.13942,-2.28528 2.04217,-2.47978 -0.0973,-0.19449 6.27238,-6.75861 14.24658,-14.58694 7.92557,-7.87694 14.1007,-14.1007 13.71172,-13.85759 -0.6321,0.38899 -0.6321,0.34036 -0.0486,-0.38898 0.77797,-0.97247 1.75043,-1.11834 1.21557,-0.1945 -0.24311,0.38899 -0.14587,0.38899 0.43761,-0.0972 0.43761,-0.34036 0.68073,-0.87522 0.53486,-1.11833 -0.1945,-0.24312 0.53485,-1.36145 1.55594,-2.43116 1.06971,-1.11833 1.50731,-1.84768 1.06971,-1.70181 -6.22376,2.18804 -22.9015,10.55122 -32.23714,16.14288 -23.53359,14.14933 -44.49016,31.79953 -62.23761,52.36711 -4.4247,5.10543 -15.413528,19.44925 -18.428162,24.06845 -0.729347,1.11833 -1.653186,2.13942 -2.042171,2.28529 -0.437609,0.14587 -0.583478,0.48623 -0.437609,0.77797 0.14587,0.24311 0.09725,0.48623 -0.194492,0.48623 -0.632101,0 -4.424705,-3.69536 -4.424705,-4.32746 0,-0.29174 -0.194492,-0.53486 -0.486231,-0.53486 -0.243116,0 -0.486231,-0.34036 -0.486231,-0.77797 0,-0.4376 -0.388986,-1.16695 -0.92384,-1.60456 -0.534854,-0.48623 -1.021086,-1.79905 -1.264201,-3.35499 -0.194493,-1.36145 -0.534855,-2.52841 -0.77797,-2.52841 -0.243116,0 -0.437609,-1.8963 -0.437609,-4.18159 0,-3.69535 0.09725,-4.13296 0.729347,-3.59811 1.458694,1.21558 0.680724,-0.0486 -1.069709,-1.75043 -1.118331,-1.06971 -1.41007,-1.55594 -0.77797,-1.21558 0.583478,0.29174 1.215579,0.77797 1.361448,1.02109 0.534854,0.82659 1.312825,0.53485 1.021086,-0.38899 -0.194493,-0.6321 0.194492,-1.11833 1.507317,-1.79905 0.972462,-0.53486 1.993548,-0.92384 2.188041,-0.87522 0.194492,0.0972 0.340362,-0.14587 0.243115,-0.48623 -0.04862,-0.29174 0.291739,-0.53486 0.729347,-0.53486 0.486232,0.0486 0.77797,-0.0486 0.729347,-0.24311 -0.04862,-0.14587 0.09725,-0.29174 0.291739,-0.29174 0.243116,0 0.632101,-0.38899 0.875216,-0.87522 0.291739,-0.4376 0.680724,-0.72934 0.972463,-0.58347 0.243116,0.19449 0.437608,0.0486 0.437608,-0.1945 0,-0.29174 0.340362,-0.53485 0.77797,-0.53485 0.388985,0 0.583478,-0.19449 0.437608,-0.48623 -0.145869,-0.24312 0.14587,-0.48623 0.680724,-0.48623 0.583478,0 0.972463,-0.29174 0.875217,-0.58348 -0.04862,-0.38899 0.291738,-0.58348 0.77797,-0.48623 0.486231,0.0972 0.77797,-0.0972 0.729347,-0.48623 -0.09725,-0.29174 0.09725,-0.58348 0.437608,-0.6321 0.340362,0 0.972462,-0.34037 1.458694,-0.72935 0.486231,-0.38899 1.701809,-1.11833 2.722895,-1.55594 0.972462,-0.48623 1.799056,-1.11833 1.799056,-1.41007 0,-0.38899 0.243115,-0.34036 0.77797,0.0486 0.583477,0.53485 0.729347,0.53485 0.583477,-0.0486 -0.0973,-0.38899 0.19449,-0.6321 0.68072,-0.6321 0.48624,0.0486 0.77797,-0.0972 0.72935,-0.29174 -0.19449,-0.58348 4.52195,-3.93848 5.10543,-3.59811 0.29174,0.19449 0.38898,0.14587 0.24312,-0.14587 -0.1945,-0.29174 0.19449,-0.87522 0.87521,-1.31283 0.68073,-0.43761 1.21558,-0.68072 1.21558,-0.53485 0,0.29174 2.86876,-1.55594 3.40362,-2.18804 0.72935,-0.8266 3.01463,-1.94493 3.45224,-1.70181 0.24312,0.19449 0.38899,0.0486 0.34036,-0.34036 -0.0972,-0.34037 0.24312,-0.58348 0.68073,-0.58348 0.48623,0.0486 0.77797,-0.0972 0.6321,-0.29174 -0.34036,-0.53486 4.57057,-3.50087 5.15405,-3.1605 0.24312,0.19449 0.38898,0.0486 0.34036,-0.34037 -0.0972,-0.34036 0.24312,-0.58347 0.68073,-0.58347 0.48623,0.0486 0.77797,-0.0972 0.6321,-0.29174 -0.14587,-0.24312 0.48623,-0.8266 1.36144,-1.41007 0.87522,-0.53486 2.23667,-1.55594 3.01464,-2.23667 0.82659,-0.68072 2.43115,-1.70181 3.64673,-2.28528 1.21558,-0.58348 2.77152,-1.41008 3.45224,-1.89631 0.68073,-0.48623 1.41008,-0.72934 1.60457,-0.53485 0.19449,0.19449 0.29174,0 0.19449,-0.38899 -0.0973,-0.4376 0.19449,-0.68072 0.68072,-0.68072 0.48624,0.0486 0.77797,-0.14587 0.72935,-0.48623 -0.0486,-0.29174 0.29174,-0.48623 0.72935,-0.48623 0.48623,0.0486 0.77797,-0.14587 0.72935,-0.48623 -0.0486,-0.29174 0.29173,-0.48623 0.72934,-0.48623 0.48623,0.0486 0.77797,-0.0972 0.6321,-0.29174 -0.14587,-0.24312 0.38899,-0.8266 1.21558,-1.2642 0.77797,-0.48624 1.45869,-1.11834 1.45869,-1.36145 0,-0.24312 0.14587,-0.34036 0.29174,-0.14587 0.14587,0.14587 1.79906,-0.68073 3.59812,-1.8963 1.84767,-1.16696 3.50086,-2.13942 3.74398,-2.13942 0.19449,0 0.68072,-0.43761 1.02108,-1.02109 0.38899,-0.58348 0.92384,-0.87521 1.31283,-0.72934 0.38898,0.14586 0.68072,0 0.58347,-0.34037 -0.0486,-0.34036 0.29174,-0.53485 0.72935,-0.53485 0.48623,0.0486 0.77797,-0.14587 0.72935,-0.48623 -0.0486,-0.29174 0.19449,-0.48623 0.48623,-0.43761 0.58348,0.14587 1.70181,-0.58348 3.355,-2.18804 0.38898,-0.34036 0.87521,-0.48623 1.16695,-0.34036 0.29174,0.19449 0.43761,0.0486 0.38899,-0.34036 -0.0973,-0.34037 0.24311,-0.58348 0.68072,-0.58348 0.48623,0.0486 0.77797,-0.0972 0.6321,-0.29174 -0.14587,-0.24312 2.47978,-2.13942 5.8834,-4.23021 3.35499,-2.0908 6.46687,-4.13297 6.90448,-4.52195 1.31283,-1.21558 5.44579,-3.9871 5.44579,-3.64674 0,0.29174 2.86877,-1.55594 3.40362,-2.18804 0.14587,-0.14587 3.54949,-2.38253 7.58521,-5.00818 4.03572,-2.57703 7.97419,-5.2513 8.70354,-5.8834 0.72935,-0.6321 2.47978,-1.75043 3.84123,-2.43116 1.36145,-0.6321 3.7926,-2.18804 5.34854,-3.40362 1.60457,-1.16695 3.84123,-2.43115 4.95956,-2.72289 1.55594,-0.43761 1.99355,-0.77797 1.79906,-1.36145 -0.24312,-0.58348 -0.0486,-0.68072 0.72934,-0.48623 0.58348,0.19449 1.06971,0.14587 1.06971,-0.0486 0,-0.1945 0.72935,-0.34037 1.60457,-0.34037 0.82659,0 3.11188,-0.14587 4.95956,-0.38898 4.37608,-0.48623 25.33265,-0.72935 30.68119,-0.34036 l 4.13297,0.29174 -3.69536,4.61919 c -6.12651,7.58521 -18.23367,26.54823 -23.5336,36.71047 -0.97246,1.8963 -4.18158,8.16868 -7.68245,15.07317 -3.50087,6.80723 -7.29347,14.87867 -10.40535,21.8804 -0.43761,1.06971 -1.2642,2.91739 -1.84768,4.13297 -2.62565,5.83478 -3.45224,7.7797 -3.45224,8.26593 0,0.24312 -0.19449,0.87522 -0.43761,1.36145 -0.24311,0.43761 -0.6321,1.36145 -0.87522,2.04217 -0.77797,1.8963 -1.41007,3.45224 -2.47978,5.83478 -0.53485,1.21558 -1.99354,5.2513 -3.20912,8.99528 -1.2642,3.74398 -2.47978,7.24484 -2.7229,7.7797 -0.43761,0.87521 -2.57702,7.58521 -4.71644,14.83005 -0.43761,1.4587 -1.02109,3.45224 -1.36145,4.37608 -1.55594,4.37609 -6.66137,25.23541 -8.70354,35.738 -0.29828,1.55108 -0.64536,4.01303 -0.95144,6.5909"
       style="fill:none;stroke-width:0.04862313" />
    <path
       transform="matrix(20.566344,0,0,20.566344,-1247.445,-4098.8412)"
       id="path14630"
       d="m 333.70809,222.7729 c -0.70147,-0.18633 -1.28864,-0.3298 -1.49323,-0.3298 -0.20347,-0.0185 -0.5424,-0.0792 -0.96426,-0.1681"
       style="fill:none;stroke-width:0.04862313" />
    <path
       transform="matrix(20.566344,0,0,20.566344,-1247.445,-4098.8412)"
       id="path14628"
       d="m 357.89715,229.96326 c -0.85343,-0.26938 -1.71527,-0.53934 -2.5863,-0.81017 -4.66782,-1.45869 -8.84941,-2.82014 -9.2384,-2.96601 -0.38898,-0.14587 -1.06971,-0.34036 -1.45869,-0.38898 -0.38899,-0.0486 -2.38253,-0.58348 -4.37608,-1.16696 -1.99355,-0.58348 -4.52195,-1.31282 -5.59166,-1.60456 -0.31956,-0.0872 -0.63912,-0.17431 -0.93793,-0.25368"
       style="fill:none;stroke-width:0.04862313" />
    <path
       transform="matrix(20.566344,0,0,20.566344,-1247.445,-4098.8412)"
       id="path14626"
       d="m 373.45919,235.13809 c -4.97536,-1.74822 -10.09599,-3.44949 -15.56204,-5.17483"
       style="fill:none;stroke-width:0.04862313" />
    <path
       transform="matrix(20.566344,0,0,20.566344,-1247.445,-4098.8412)"
       id="path14624"
       d="m 381.56879,238.07663 c -2.68146,-1.00158 -5.37356,-1.97716 -8.1096,-2.93854"
       style="fill:none;stroke-width:0.04862313" />
    <path
       transform="matrix(20.566344,0,0,20.566344,-1247.445,-4098.8412)"
       id="path14622"
       d="m 391.3185,241.84909 c -3.27366,-1.30956 -6.50388,-2.56007 -9.74971,-3.77246"
       style="fill:none;stroke-width:0.04862313" />
    <path
       transform="matrix(20.566344,0,0,20.566344,-1247.445,-4098.8412)"
       id="path14620"
       d="m 408.94254,249.25626 c -2.17557,-0.95076 -4.33354,-1.88299 -6.46726,-2.79333 -3.8266,-1.63007 -7.51851,-3.15843 -11.15678,-4.61384"
       style="fill:none;stroke-width:0.04862313" />
    <path
       transform="matrix(20.566344,0,0,20.566344,-1247.445,-4098.8412)"
       id="path14618"
       d="m 421.1594,254.70383 c -4.10447,-1.86519 -8.19081,-3.68812 -12.21686,-5.44757"
       style="fill:none;stroke-width:0.04862313" />
    <path
       transform="matrix(20.566344,0,0,20.566344,-1247.445,-4098.8412)"
       id="path14616"
       d="m 440.74694,263.85589 c -6.46151,-3.10081 -13.04754,-6.18009 -19.58754,-9.15206"
       style="fill:none;stroke-width:0.04862313" />
    <path
       transform="matrix(20.566344,0,0,20.566344,-1247.445,-4098.8412)"
       id="path14614"
       d="m 450.84285,268.76808 c -3.31397,-1.635 -6.68762,-3.27659 -10.09591,-4.91219"
       style="fill:none;stroke-width:0.04862313" />
    <path
       transform="matrix(20.566344,0,0,20.566344,-1247.445,-4098.8412)"
       id="path14612"
       d="m 472.04126,279.57143 c -6.5728,-3.47175 -13.73425,-7.12082 -21.19841,-10.80335"
       style="fill:none;stroke-width:0.04862313" />
    <path
       transform="matrix(20.566344,0,0,20.566344,-1247.445,-4098.8412)"
       id="path14610"
       d="m 479.83394,283.75586 c -2.48467,-1.35813 -5.08887,-2.75628 -7.79268,-4.18443"
       style="fill:none;stroke-width:0.04862313" />
    <path
       transform="matrix(20.566344,0,0,20.566344,-1247.445,-4098.8412)"
       id="path14608"
       d="m 484.37621,286.26893 c -1.46349,-0.82019 -2.97923,-1.65871 -4.54227,-2.51307"
       style="fill:none;stroke-width:0.04862313" />
    <path
       transform="matrix(20.566344,0,0,20.566344,-1247.445,-4098.8412)"
       id="path14606"
       d="m 499.42981,295.28055 c -3.90569,-2.57882 -9.03826,-5.64039 -15.0536,-9.01162"
       style="fill:none;stroke-width:0.04862313" />
    <path
       transform="matrix(20.566344,0,0,20.566344,-1247.445,-4098.8412)"
       id="path14604"
       d="m 469.81832,332.28275 c 0,0 0,0 0,0 16.09425,-10.06499 41.03792,-27.22895 41.03792,-28.20141 0,-0.68073 -5.0568,-4.57058 -11.42643,-8.80079 0,0 0,0 0,0"
       style="fill:none;stroke-width:0.04862313" />
    <path
       transform="matrix(20.566344,0,0,20.566344,-1247.445,-4098.8412)"
       id="path14602"
       d="m 401.31044,369.51736 c 22.5635,-10.45445 46.35239,-23.35192 68.50788,-37.23461"
       style="fill:none;stroke-width:0.04862313" />
    <path
       transform="matrix(20.566344,0,0,20.566344,-1247.445,-4098.8412)"
       id="path14600"
       d="m 392.44905,373.52489 c 2.92808,-1.29108 5.88407,-2.62804 8.86139,-4.00753"
       style="fill:none;stroke-width:0.04862313" />
    <path
       transform="matrix(20.566344,0,0,20.566344,-1247.445,-4098.8412)"
       id="path14598"
       d="m 381.7625,378.08302 c 3.51161,-1.4455 7.07789,-2.96697 10.68655,-4.55813"
       style="fill:none;stroke-width:0.04862313" />
    <path
       transform="matrix(20.566344,0,0,20.566344,-1247.445,-4098.8412)"
       id="path14596"
       d="m 344.81689,391.10966 c 11.00847,-3.30312 22.34703,-7.19106 32.13125,-11.079 1.5924,-0.6327 3.19759,-1.28212 4.81436,-1.94764"
       style="fill:none;stroke-width:0.04862313" />
    <path
       transform="matrix(20.566344,0,0,20.566344,-1247.445,-4098.8412)"
       id="path14594"
       d="m 340.90925,392.26154 c 1.29577,-0.37505 2.59938,-0.75933 3.90764,-1.15188"
       style="fill:none;stroke-width:0.04862313" />
    <path
       transform="matrix(20.566344,0,0,20.566344,-1247.445,-4098.8412)"
       id="path14592"
       d="m 324.71288,396.54837 c 5.07764,-1.20051 10.56306,-2.65634 16.19637,-4.28683"
       style="fill:none;stroke-width:0.04862313" />
    <path
       transform="matrix(20.566344,0,0,20.566344,-1247.445,-4098.8412)"
       id="path14590"
       d="m 323.1535,396.91195 c 0.51526,-0.11841 1.03515,-0.23963 1.55938,-0.36358"
       style="fill:none;stroke-width:0.04862313" />
    <path
       transform="matrix(20.566344,0,0,20.566344,-1247.445,-4098.8412)"
       id="path14588"
       d="m 308.27758,399.83161 c 3.36227,-0.56552 6.49165,-1.13998 9.30172,-1.71314 1.78322,-0.35973 3.64628,-0.76345 5.5742,-1.20652"
       style="fill:none;stroke-width:0.04862313" />
    <path
       transform="matrix(20.566344,0,0,20.566344,-1247.445,-4098.8412)"
       id="path14586"
       d="m 303.67982,400.577 c 1.57328,-0.24612 3.10837,-0.49488 4.59776,-0.74539"
       style="fill:none;stroke-width:0.04862313" />
    <path
       transform="matrix(20.566344,0,0,20.566344,-1247.445,-4098.8412)"
       id="path14584"
       d="m 284.41239,403.23021 c 6.70037,-0.81287 13.2621,-1.71378 19.26743,-2.65321"
       style="fill:none;stroke-width:0.04862313" />
    <path
       transform="matrix(20.566344,0,0,20.566344,-1247.445,-4098.8412)"
       id="path14582"
       d="m 274.35295,404.37275 c 3.35314,-0.35495 6.72348,-0.73783 10.05944,-1.14254"
       style="fill:none;stroke-width:0.04862313" />
    <path
       transform="matrix(20.566344,0,0,20.566344,-1247.445,-4098.8412)"
       id="path14580"
       d="m 258.06631,405.87889 c 5.22551,-0.40689 10.73249,-0.91819 16.28664,-1.50614"
       style="fill:none;stroke-width:0.04862313" />
    <path
       transform="matrix(20.566344,0,0,20.566344,-1247.445,-4098.8412)"
       id="path14578"
       d="m 256.3055,406.01283 c 0.58312,-0.0433 1.17017,-0.0879 1.76081,-0.13394"
       style="fill:none;stroke-width:0.04862313" />
    <path
       transform="matrix(20.566344,0,0,20.566344,-1247.445,-4098.8412)"
       id="path14576"
       d="m 236.99517,406.88294 c 4.32043,-0.047 8.69465,-0.19489 13.0466,-0.44992 2.02332,-0.1201 4.11686,-0.26083 6.26373,-0.42019"
       style="fill:none;stroke-width:0.04862313" />
    <path
       transform="matrix(20.566344,0,0,20.566344,-1247.445,-4098.8412)"
       id="path14574"
       d="m 234.37125,406.89917 c 0.872,-0.001 1.74685,-0.007 2.62392,-0.0162"
       style="fill:none;stroke-width:0.04862313" />
    <path
       transform="matrix(20.566344,0,0,20.566344,-1247.445,-4098.8412)"
       id="path14572"
       d="m 223.57678,406.70211 c 3.51629,0.13548 7.13019,0.20249 10.79447,0.19706"
       style="fill:none;stroke-width:0.04862313" />
    <path
       transform="matrix(20.566344,0,0,20.566344,-1247.445,-4098.8412)"
       id="path14570"
       d="m 213.86832,406.13461 c 3.1213,0.24861 6.37091,0.4389 9.70846,0.5675"
       style="fill:none;stroke-width:0.04862313" />
    <path
       transform="matrix(20.566344,0,0,20.566344,-1247.445,-4098.8412)"
       id="path14568"
       d="m 201.0597,404.67028 c 3.90648,0.60706 8.21882,1.09875 12.80862,1.46433"
       style="fill:none;stroke-width:0.04862313" />
    <path
       transform="matrix(20.566344,0,0,20.566344,-1247.445,-4098.8412)"
       id="path14566"
       d="m 198.61058,404.26512 c 0.79697,0.14026 1.61377,0.27535 2.44912,0.40516"
       style="fill:none;stroke-width:0.04862313" />
    <path
       transform="matrix(20.566344,0,0,20.566344,-1247.445,-4098.8412)"
       id="path14564"
       d="m 186.10254,400.97798 c 0.0476,0.019 0.0962,0.0383 0.14568,0.0579 3.13147,1.26311 7.35599,2.3482 12.36236,3.22926"
       style="fill:none;stroke-width:0.04862313" />
    <path
       transform="matrix(20.566344,0,0,20.566344,-1247.445,-4098.8412)"
       id="path14562"
       d="m 186.09408,400.97461 c 0.003,0.001 0.006,0.002 0.008,0.003"
       style="fill:none;stroke-width:0.04862313" />
    <path
       transform="matrix(20.566344,0,0,20.566344,-1247.445,-4098.8412)"
       id="path14560"
       d="m 183.6712,398.46736 c 9.7e-4,1.37096 0.23684,1.63495 2.42288,2.50725"
       style="fill:none;stroke-width:0.04862313" />
    <path
       transform="matrix(20.566344,0,0,20.566344,-1247.445,-4098.8412)"
       id="path14558"
       d="m 183.67122,398.43532 c -1e-5,0.008 -2e-5,0.0157 -2e-5,0.0235 0,0.003 0,0.006 0,0.009"
       style="fill:none;stroke-width:0.04862313" />
    <path
       transform="matrix(20.566344,0,0,20.566344,-1247.445,-4098.8412)"
       id="path13714-9"
       d="m 184.47019,388.95547 c -0.44041,3.70935 -0.79592,7.65874 -0.79897,9.47985"
       style="fill:none;stroke-width:0.04862313" />
    <path
       style="fill:#000000"
       id="path13716-0"
       d="m 4304,3750 c -34,-13 -54,-50 -54,-98 0,-66 57,-112 139,-112 136,0 280,-99 349,-241 l 32,-64 1,-198 c 1,-109 -2,-201 -5,-205 -4,-3 -19,2 -34,12 -153,100 -364,133 -547,87 -210,-54 -351,-173 -419,-353 -42,-113 -44,-139 -46,-554 -1,-433 1,-453 51,-488 46,-32 127,-15 148,31 7,16 11,144 11,391 0,202 5,396 10,431 19,135 116,263 247,328 54,26 67,28 173,28 106,0 120,-2 178,-29 106,-49 209,-178 227,-284 4,-24 8,-223 8,-442 l 2,-398 25,-27 c 14,-15 40,-34 58,-41 27,-12 37,-12 66,0 70,29 66,-30 66,879 0,911 1,892 -68,1011 -85,145 -167,222 -305,287 -104,48 -256,72 -313,49 z" />
    <path
       style="fill:#000000"
       id="path13718-4"
       d="m 6753,2965 c -24,-10 -34,-23 -42,-52 -15,-51 -15,-1263 -1,-1315 27,-94 165,-112 198,-25 9,24 12,195 12,676 0,714 3,683 -66,716 -39,18 -59,18 -101,0 z" />
    <path
       style="fill:#000000"
       id="path13720-5"
       d="m 5655,2927 c -217,-60 -359,-196 -422,-407 -14,-46 -17,-123 -20,-485 -3,-334 -1,-436 9,-455 7,-14 34,-35 59,-48 44,-22 49,-22 83,-8 65,27 66,36 66,481 0,492 3,504 138,632 30,29 80,65 111,80 51,26 66,28 171,28 109,0 118,-2 181,-32 117,-57 204,-173 229,-303 6,-30 10,-221 10,-437 v -385 l 34,-34 c 49,-49 105,-50 149,-3 l 28,30 -4,447 c -3,483 -3,482 -62,594 -82,153 -232,268 -410,313 -89,23 -252,19 -350,-8 z" />
    <path
       id="path13722-6"
       d="m 5190,378 c 0,-5 11,-8 25,-8 14,0 25,3 25,8 0,4 -11,7 -25,7 -14,0 -25,-3 -25,-7 z" />
    <path
       id="path13724-7"
       d="m 5085,360 c -4,-6 6,-10 22,-10 22,0 25,2 13,10 -19,12 -27,12 -35,0 z" />
  </g>
</svg>
