<?xml version="1.0" encoding="UTF-8" standalone="no"?>
<svg viewBox="0 0 630 630">
  <defs>
    <clipPath>
      <path d="m 239.03,226.605 -42.13,24.317 c -1.578,0.91 -2.546,2.59 -2.546,4.406 v 48.668 c 0,1.817 0.968,3.496 2.546,4.406 l 42.133,24.336 c 1.575,0.907 3.517,0.907 5.09,0 l 42.126,-24.336 c 1.57,-0.91 2.54,-2.59 2.54,-4.406 v -48.668 c 0,-1.816 -0.97,-3.496 -2.55,-4.406 l -42.12,-24.317 c -0.79,-0.453 -1.67,-0.68 -2.55,-0.68 -0.88,0 -1.76,0.227 -2.55,0.68" />
    </clipPath>
    <linearGradient
       x1="-0.34799999"
       x2="1.251"
       gradientTransform="matrix(-38.064915,77.652126,-77.652126,-38.064915,258.72325,244.62943)"
       gradientUnits="userSpaceOnUse">
      <stop
         offset=".3"
         stop-color="#3E863D"
         id="stop12749" />
      <stop
         offset=".5"
         stop-color="#55934F"
         id="stop12751" />
      <stop
         offset=".8"
         stop-color="#5AAD45"  />
    </linearGradient>
    <clipPath>
      <path
         d="m 195.398,307.086 c 0.403,0.523 0.907,0.976 1.5,1.316 l 36.14,20.875 6.02,3.46 c 0.9,0.52 1.926,0.74 2.934,0.665 0.336,-0.027 0.672,-0.09 1,-0.183 l 44.434,-81.36 c -0.34,-0.37 -0.738,-0.68 -1.184,-0.94 l -27.586,-15.93 -14.582,-8.39 c -0.414,-0.24 -0.863,-0.41 -1.32,-0.53 z m 0,0" />
    </clipPath>
    <linearGradient
       x1="-0.456"
       x2="0.58200002"
       gradientTransform="matrix(106.8057,-78.916731,78.916731,106.8057,235.18824,285.39477)"
       gradientUnits="userSpaceOnUse">
      <stop offset=".57" stop-color="#3E863D"/>
      <stop offset=".72" stop-color="#619857"/>
      <stop offset="1" stop-color="#76AC64"/>
    </linearGradient>
    <clipPath id="e">
      <path
         d="m 241.066,225.953 c -0.707,0.07 -1.398,0.29 -2.035,0.652 l -42.01,24.247 45.3,82.51 c 0.63,-0.09 1.25,-0.3 1.81,-0.624 l 42.13,-24.336 c 1.3,-0.754 2.19,-2.03 2.46,-3.476 l -46.18,-78.89 c -0.34,-0.067 -0.68,-0.102 -1.03,-0.102 -0.14,0 -0.28,0.007 -0.42,0.02"
         id="path12766" />
    </clipPath>
    <linearGradient
       id="f"
       x1="0.043000001"
       x2="0.98400003"
       gradientTransform="matrix(97.417,0,0,97.417,192.862,279.652)"
       gradientUnits="userSpaceOnUse">
      <stop
         offset=".16"
         stop-color="#6BBF47"
         id="stop12769" />
      <stop
         offset=".38"
         stop-color="#79B461"
         id="stop12771" />
      <stop
         offset=".47"
         stop-color="#75AC64"
         id="stop12773" />
      <stop
         offset=".7"
         stop-color="#659E5A"
         id="stop12775" />
      <stop
         offset=".9"
         stop-color="#3E863D"
         id="stop12777" />
    </linearGradient>
  </defs>
  <g
     transform="translate(69.852295,70.373037)"
     id="g5012"
     style="fill:#ffffff" />
  <g
     transform="translate(69.852295,70.373037)"
     id="g5014"
     style="fill:#ffffff" />
  <g
     transform="translate(69.852295,70.373037)"
     id="g5016"
     style="fill:#ffffff" />
  <g
     transform="translate(69.852295,70.373037)"
     id="g5018"
     style="fill:#ffffff" />
  <g
     transform="translate(69.852295,70.373037)"
     id="g5020"
     style="fill:#ffffff" />
  <g
     transform="translate(69.852295,70.373037)"
     id="g5022"
     style="fill:#ffffff" />
  <g
     transform="translate(69.852295,70.373037)"
     id="g5024"
     style="fill:#ffffff" />
  <g
     transform="translate(69.852295,70.373037)"
     id="g5026"
     style="fill:#ffffff" />
  <g
     transform="translate(69.852295,70.373037)"
     id="g5028"
     style="fill:#ffffff" />
  <g
     transform="translate(69.852295,70.373037)"
     id="g5030"
     style="fill:#ffffff" />
  <g
     transform="translate(69.852295,70.373037)"
     id="g5032"
     style="fill:#ffffff" />
  <g
     transform="translate(69.852295,70.373037)"
     id="g5034"
     style="fill:#ffffff" />
  <g
     transform="translate(69.852295,70.373037)"
     id="g5036"
     style="fill:#ffffff" />
  <g
     transform="translate(69.852295,70.373037)"
     id="g5038"
     style="fill:#ffffff" />
  <g
     transform="translate(69.852295,70.373037)"
     id="g5040"
     style="fill:#ffffff" />
  <g
     transform="matrix(0.04530593,0,0,0.04530593,77.472847,207.85933)"
     style="fill:#ffffff;stroke:none"
     id="layer101">
    <path
       d="m 3640,4930 c 0,-6 -38,-10 -95,-10 -57,0 -95,-4 -95,-10 0,-6 -28,-10 -65,-10 -37,0 -65,-4 -65,-10 0,-5 -22,-10 -50,-10 -27,0 -50,-4 -50,-10 0,-5 -20,-10 -45,-10 -25,0 -45,-4 -45,-10 0,-5 -16,-10 -35,-10 -19,0 -35,-4 -35,-9 0,-5 -22,-11 -50,-15 -27,-4 -50,-11 -50,-16 0,-6 -9,-10 -20,-10 -11,0 -20,-4 -20,-10 0,-5 -5,-10 -10,-10 -12,0 -120,-106 -120,-118 0,-4 -9,-14 -20,-22 -12,-8 -20,-26 -20,-42 0,-15 -4,-28 -10,-28 -5,0 -10,-9 -10,-19 0,-28 -27,-51 -61,-51 -16,0 -29,-4 -29,-10 0,-5 -20,-10 -45,-10 -25,0 -45,-4 -45,-10 0,-5 -18,-10 -40,-10 -22,0 -40,-4 -40,-10 0,-5 -18,-10 -40,-10 -22,0 -40,-4 -40,-10 0,-5 -16,-10 -35,-10 -19,0 -35,-4 -35,-10 0,-5 -18,-10 -40,-10 -22,0 -40,-4 -40,-10 0,-5 -11,-10 -25,-10 -14,0 -25,-4 -25,-10 0,-5 -13,-10 -30,-10 -16,0 -30,-4 -30,-9 0,-5 -25,-12 -55,-16 -30,-3 -55,-11 -55,-16 0,-5 -9,-9 -20,-9 -11,0 -20,-4 -20,-10 0,-5 -13,-10 -30,-10 -16,0 -30,-4 -30,-10 0,-5 -7,-10 -15,-10 -8,0 -15,-4 -15,-10 0,-5 -13,-10 -30,-10 -16,0 -30,-4 -30,-10 0,-5 -9,-10 -20,-10 -11,0 -20,-4 -20,-10 0,-5 -9,-10 -19,-10 -11,0 -21,-5 -23,-10 -2,-6 -21,-13 -43,-17 -22,-3 -47,-14 -56,-25 -9,-10 -24,-18 -33,-18 -9,0 -16,-4 -16,-10 0,-5 -5,-10 -10,-10 -6,0 -35,-25 -65,-55 -31,-30 -60,-55 -65,-55 -6,0 -10,-9 -10,-20 0,-11 -4,-20 -10,-20 -5,0 -10,-9 -10,-19 0,-11 -4,-21 -10,-23 -5,-1 -12,-45 -16,-95 -4,-51 -11,-93 -15,-93 -5,0 -9,-9 -9,-21 0,-24 -22,-49 -44,-49 -9,0 -16,-4 -16,-10 0,-5 -9,-10 -20,-10 -11,0 -20,-4 -20,-10 0,-5 -9,-10 -20,-10 -11,0 -20,-4 -20,-10 0,-5 -6,-10 -13,-10 -7,0 -19,-9 -27,-20 -8,-11 -21,-20 -29,-20 -7,0 -21,-8 -30,-19 -9,-10 -30,-21 -47,-25 -16,-4 -36,-16 -44,-26 -8,-11 -21,-20 -28,-20 -8,0 -27,-13 -42,-30 -15,-16 -35,-30 -44,-30 -9,0 -16,-4 -16,-10 0,-10 -28,-38 -79,-80 -17,-14 -31,-32 -31,-40 0,-9 -9,-22 -20,-30 -11,-8 -20,-22 -20,-31 0,-10 -5,-19 -11,-21 -15,-5 -24,-224 -11,-270 9,-34 8,-40 -11,-54 -21,-15 -21,-15 8,-8 23,5 27,4 19,-5 -8,-9 27,-48 135,-154 261,-255 396,-391 381,-383 -17,10 268,-270 360,-353 33,-29 58,-57 55,-61 -3,-6 383,-393 528,-529 25,-24 44,-47 42,-51 -2,-4 129,-139 293,-300 163,-162 290,-290 282,-285 -13,8 -13,7 -1,-8 16,-20 36,-23 25,-4 -5,8 -3,8 9,-2 9,-7 14,-18 11,-23 -4,-5 11,-28 32,-50 22,-23 31,-38 22,-35 -128,45 -471,217 -663,332 -484,291 -915,654 -1280,1077 -91,105 -317,400 -379,495 -15,23 -34,44 -42,47 -9,3 -12,10 -9,16 3,5 2,10 -4,10 -13,0 -91,-76 -91,-89 0,-6 -4,-11 -10,-11 -5,0 -10,-7 -10,-16 0,-9 -8,-24 -19,-33 -11,-10 -21,-37 -26,-69 -4,-28 -11,-52 -16,-52 -5,0 -9,-39 -9,-86 0,-76 2,-85 15,-74 30,25 14,-1 -22,-36 -23,-22 -29,-32 -16,-25 12,6 25,16 28,21 11,17 27,11 21,-8 -4,-13 4,-23 31,-37 20,-11 41,-19 45,-18 4,2 7,-3 5,-10 -1,-6 6,-11 15,-11 10,1 16,-1 15,-5 -1,-3 2,-6 6,-6 5,0 13,-8 18,-18 6,-9 14,-15 20,-12 5,4 9,1 9,-4 0,-6 7,-11 16,-11 8,0 12,-4 9,-10 -3,-5 3,-10 14,-10 12,0 20,-6 18,-12 -1,-8 6,-12 16,-10 10,2 16,-2 15,-10 -2,-6 2,-12 9,-13 7,0 20,-7 30,-15 10,-8 35,-23 56,-32 20,-10 37,-23 37,-29 0,-8 5,-7 16,1 12,11 15,11 12,-1 -2,-8 4,-13 14,-13 10,1 16,-2 15,-6 -4,-12 93,-81 105,-74 6,4 8,3 5,-3 -4,-6 4,-18 18,-27 14,-9 25,-14 25,-11 0,6 59,-32 70,-45 15,-17 62,-40 71,-35 5,4 8,1 7,-7 -2,-7 5,-12 14,-12 10,1 16,-2 13,-6 -7,-11 94,-72 106,-65 5,4 8,1 7,-7 -2,-7 5,-12 14,-12 10,1 16,-2 13,-6 -3,-5 10,-17 28,-29 18,-11 46,-32 62,-46 17,-14 50,-35 75,-47 25,-12 57,-29 71,-39 14,-10 29,-15 33,-11 4,4 6,0 4,-8 -2,-9 4,-14 14,-14 10,1 16,-3 15,-10 -1,-6 6,-10 15,-10 10,1 16,-3 15,-10 -1,-6 6,-10 15,-10 10,1 16,-2 13,-6 -3,-5 8,-17 25,-26 16,-10 30,-23 30,-28 0,-5 3,-7 6,-3 3,3 37,-14 74,-39 38,-24 72,-44 77,-44 4,0 14,-9 21,-21 8,-12 19,-18 27,-15 8,3 14,0 12,-7 -1,-7 6,-11 15,-11 10,1 16,-3 15,-10 -1,-6 4,-10 10,-9 12,3 35,-12 69,-45 8,-7 18,-10 24,-7 6,4 9,1 8,-7 -2,-7 5,-12 14,-12 10,1 16,-2 13,-6 -3,-5 51,-44 121,-87 69,-43 133,-85 142,-93 27,-25 112,-82 112,-75 0,6 59,-32 70,-45 3,-3 73,-49 156,-103 83,-53 164,-108 179,-121 15,-13 51,-36 79,-50 28,-13 78,-45 110,-70 33,-24 79,-50 102,-56 32,-9 41,-16 37,-28 -5,-12 -1,-14 15,-10 12,4 22,3 22,-1 0,-4 15,-7 33,-7 17,0 64,-3 102,-8 90,-10 521,-15 631,-7 l 85,6 -76,95 c -126,156 -375,546 -484,755 -20,39 -86,168 -158,310 -72,140 -150,306 -214,450 -9,22 -26,60 -38,85 -54,120 -71,160 -71,170 0,5 -4,18 -9,28 -5,9 -13,28 -18,42 -16,39 -29,71 -51,120 -11,25 -41,108 -66,185 -26,77 -51,149 -56,160 -9,18 -53,156 -97,305 -9,30 -21,71 -28,90 -32,90 -137,519 -179,735 -15,78 -36,268 -36,331 0,29 5,34 53,53 238,96 783,142 1312,111 438,-26 1036,-99 1389,-171 347,-70 841,-221 1221,-372 599,-238 1286,-591 1910,-982 331,-207 844,-560 844,-580 0,-14 -104,-94 -235,-181 C 8659,1733 7773,1287 7030,970 6699,829 6417,725 6060,614 c -96,-30 -182,-58 -190,-61 -8,-3 -22,-7 -30,-8 -8,-1 -49,-12 -90,-24 -41,-12 -93,-27 -115,-33 -22,-6 -44,-12 -50,-12 -22,-2 -121,-28 -140,-36 -36,-17 -146,-41 -155,-35 -6,3 -10,1 -10,-4 0,-6 20,-11 45,-11 25,0 45,4 45,9 0,5 45,12 100,16 55,3 100,11 100,16 0,5 23,9 50,9 28,0 50,5 50,10 0,6 20,10 45,10 25,0 45,5 45,10 0,6 18,10 40,10 22,0 40,5 40,10 0,6 20,10 45,10 25,0 45,5 45,10 0,6 18,10 40,10 22,0 40,5 40,10 0,6 16,10 35,10 19,0 35,4 35,9 0,5 34,12 75,16 41,4 75,11 75,16 0,5 18,9 40,9 22,0 40,5 40,10 0,6 11,10 25,10 14,0 25,5 25,10 0,6 18,10 40,10 22,0 40,5 40,10 0,6 14,10 30,10 17,0 30,5 30,10 0,6 16,10 35,10 19,0 35,5 35,10 0,6 14,10 30,10 17,0 30,5 30,10 0,6 14,10 30,10 17,0 30,4 30,9 0,5 25,13 55,16 30,4 55,11 55,16 0,5 11,9 25,9 14,0 25,5 25,10 0,6 14,10 30,10 17,0 30,5 30,10 0,6 14,10 30,10 17,0 30,5 30,10 0,6 11,10 25,10 14,0 25,5 25,10 0,6 14,10 30,10 17,0 30,5 30,10 0,6 14,10 30,10 17,0 30,5 30,10 0,6 9,10 20,10 11,0 20,4 20,9 0,5 25,13 55,16 30,4 55,11 55,16 0,5 9,9 20,9 11,0 20,5 20,10 0,6 11,10 25,10 14,0 25,5 25,10 0,6 9,10 20,10 11,0 20,5 20,10 0,6 14,10 30,10 17,0 30,5 30,10 0,6 7,10 15,10 8,0 15,5 15,10 0,6 14,10 30,10 17,0 30,4 30,10 0,5 23,12 50,16 28,4 50,10 50,15 0,5 7,9 15,9 8,0 15,5 15,10 0,6 9,10 20,10 11,0 20,5 20,10 0,6 9,10 20,10 11,0 20,5 20,10 0,6 14,10 30,10 17,0 30,5 30,10 0,6 7,10 15,10 8,0 15,5 15,10 0,6 9,10 20,10 11,0 20,5 20,10 0,6 9,10 20,10 11,0 20,4 20,9 0,4 19,11 42,14 24,3 44,11 46,16 2,6 12,11 23,11 10,0 19,5 19,10 0,6 9,10 20,10 11,0 20,5 20,10 0,6 9,10 20,10 11,0 20,5 20,10 0,6 11,10 25,10 14,0 25,5 25,10 0,6 9,10 20,10 11,0 20,5 20,10 0,6 9,10 20,10 11,0 20,5 20,10 0,6 9,10 20,10 11,0 20,4 20,10 0,5 16,12 35,16 19,3 35,10 35,15 0,5 9,9 20,9 11,0 20,5 20,10 0,6 9,10 20,10 11,0 20,5 20,10 0,6 11,10 25,10 14,0 25,5 25,10 0,6 9,10 20,10 11,0 20,5 20,10 0,6 9,10 20,10 11,0 20,5 20,10 0,6 9,10 20,10 11,0 20,4 20,10 0,5 16,12 35,16 19,3 35,10 35,15 0,5 9,9 20,9 11,0 20,5 20,10 0,6 9,10 20,10 11,0 20,5 20,10 0,6 9,10 20,10 11,0 20,5 20,10 0,6 7,10 15,10 8,0 15,5 15,10 0,6 9,10 20,10 11,0 20,5 20,10 0,6 9,10 20,10 11,0 20,5 20,10 0,6 9,10 20,10 11,0 20,4 20,9 0,5 11,12 25,15 14,4 25,11 25,16 0,6 9,10 20,10 11,0 20,5 20,10 0,6 9,10 20,10 11,0 20,5 20,10 0,6 9,10 20,10 11,0 20,5 20,10 0,6 7,10 15,10 8,0 15,5 15,10 0,6 9,10 20,10 11,0 20,5 20,10 0,6 9,10 20,10 11,0 20,5 20,10 0,6 9,10 20,10 11,0 20,4 20,10 0,5 11,12 25,16 14,3 25,10 25,15 0,5 9,9 20,9 11,0 20,5 20,10 0,6 8,10 18,10 10,0 24,9 32,20 8,11 22,20 32,20 10,0 18,5 18,10 0,6 5,10 11,10 7,0 19,8 28,18 9,11 28,22 44,26 15,3 27,11 27,16 0,6 9,10 20,10 11,0 20,5 20,10 0,6 6,10 13,10 7,0 19,9 27,20 8,11 21,20 28,20 8,0 27,14 42,30 15,17 33,30 39,30 16,0 131,118 131,135 0,8 5,15 10,15 6,0 10,9 10,20 0,11 5,20 10,20 6,0 10,16 10,35 0,19 5,35 10,35 6,0 10,35 10,85 0,50 -4,85 -10,85 -5,0 -10,16 -10,35 0,19 -4,35 -10,35 -5,0 -10,6 -10,13 0,7 -9,19 -20,27 -11,8 -20,20 -20,27 0,18 -95,113 -112,113 -7,0 -20,9 -28,20 -8,11 -21,20 -28,20 -8,0 -27,14 -42,30 -15,17 -32,30 -37,30 -5,0 -15,9 -23,20 -8,11 -20,20 -28,20 -7,0 -20,6 -27,13 -35,30 -45,37 -59,37 -8,0 -18,9 -21,20 -3,11 -14,20 -23,20 -10,0 -24,9 -32,20 -8,11 -21,20 -30,20 -9,0 -22,9 -30,20 -8,11 -22,20 -31,20 -9,0 -19,7 -23,15 -3,8 -14,15 -23,15 -10,0 -25,9 -33,20 -8,11 -22,20 -32,20 -10,0 -18,5 -18,10 0,6 -8,10 -18,10 -10,0 -24,9 -32,20 -8,11 -19,20 -24,20 -5,0 -16,8 -25,18 -9,11 -28,22 -43,26 -16,3 -28,11 -28,16 0,6 -9,10 -20,10 -11,0 -20,5 -20,10 0,6 -6,10 -13,10 -7,0 -19,9 -27,20 -8,11 -22,20 -32,20 -10,0 -18,5 -18,10 0,6 -8,10 -18,10 -10,0 -24,9 -32,20 -8,11 -20,20 -27,20 -7,0 -13,5 -13,10 0,6 -9,10 -19,10 -11,0 -26,7 -35,15 -8,8 -22,15 -30,15 -9,0 -16,5 -16,10 0,6 -8,10 -18,10 -10,0 -24,9 -32,20 -8,11 -20,20 -27,20 -7,0 -13,5 -13,10 0,6 -8,10 -18,10 -10,0 -24,9 -32,20 -8,11 -22,20 -32,20 -10,0 -18,4 -18,9 0,5 -15,12 -33,15 -18,3 -39,15 -47,26 -8,11 -22,20 -32,20 -10,0 -18,5 -18,10 0,6 -9,10 -20,10 -11,0 -20,5 -20,10 0,6 -9,10 -20,10 -11,0 -20,5 -20,10 0,6 -7,10 -15,10 -8,0 -15,5 -15,10 0,6 -9,10 -20,10 -11,0 -20,5 -20,10 0,6 -9,10 -19,10 -11,0 -26,7 -35,15 -8,8 -19,15 -25,15 -6,0 -11,5 -11,10 0,6 -9,10 -20,10 -11,0 -20,5 -20,10 0,6 -9,10 -20,10 -11,0 -20,5 -20,10 0,6 -9,10 -20,10 -11,0 -20,5 -20,10 0,6 -9,10 -20,10 -11,0 -20,5 -20,10 0,6 -7,10 -15,10 -8,0 -15,5 -15,10 0,6 -9,10 -20,10 -11,0 -20,4 -20,9 0,5 -18,12 -40,16 -22,4 -40,11 -40,16 0,5 -7,9 -15,9 -8,0 -15,5 -15,10 0,6 -9,10 -20,10 -11,0 -20,5 -20,10 0,6 -9,10 -20,10 -11,0 -20,5 -20,10 0,6 -9,10 -20,10 -11,0 -20,5 -20,10 0,6 -9,10 -20,10 -11,0 -20,5 -20,10 0,6 -11,10 -25,10 -14,0 -25,5 -25,10 0,6 -9,10 -20,10 -11,0 -20,4 -20,9 0,5 -18,12 -40,16 -22,4 -40,11 -40,16 0,5 -7,9 -15,9 -8,0 -15,5 -15,10 0,6 -13,10 -30,10 -16,0 -30,5 -30,10 0,6 -9,10 -20,10 -11,0 -20,5 -20,10 0,6 -7,10 -15,10 -8,0 -15,5 -15,10 0,6 -13,10 -30,10 -16,0 -30,5 -30,10 0,6 -9,10 -20,10 -11,0 -20,4 -20,9 0,4 -19,11 -42,14 -24,3 -44,11 -46,16 -2,6 -17,11 -33,11 -16,0 -29,5 -29,10 0,6 -9,10 -20,10 -11,0 -20,5 -20,10 0,6 -11,10 -25,10 -14,0 -25,5 -25,10 0,6 -9,10 -20,10 -11,0 -20,5 -20,10 0,6 -13,10 -30,10 -16,0 -30,5 -30,10 0,6 -13,10 -30,10 -16,0 -30,5 -30,10 0,6 -7,10 -15,10 -8,0 -15,4 -15,9 0,5 -27,12 -60,16 -33,4 -60,11 -60,16 0,5 -11,9 -25,9 -14,0 -25,5 -25,10 0,6 -13,10 -30,10 -16,0 -30,5 -30,10 0,6 -13,10 -30,10 -16,0 -30,5 -30,10 0,6 -16,10 -35,10 -19,0 -35,5 -35,10 0,6 -13,10 -30,10 -16,0 -30,5 -30,10 0,6 -11,10 -25,10 -14,0 -25,5 -25,10 0,6 -18,10 -40,10 -22,0 -40,4 -40,9 0,5 -29,13 -65,16 -36,4 -65,11 -65,16 0,5 -18,9 -40,9 -22,0 -40,5 -40,10 0,6 -20,10 -45,10 -25,0 -45,5 -45,10 0,6 -18,10 -40,10 -22,0 -40,5 -40,10 0,6 -20,10 -45,10 -25,0 -45,5 -45,10 0,6 -22,10 -50,10 -27,0 -50,5 -50,10 0,6 -25,10 -55,10 -30,0 -55,4 -55,9 0,5 -54,12 -120,16 -66,4 -120,11 -120,16 0,5 -29,9 -65,9 -37,0 -65,4 -65,10 0,6 -32,10 -75,10 -43,0 -75,4 -75,10 0,6 -32,10 -75,10 -43,0 -75,4 -75,10 0,6 -42,10 -105,10 -63,0 -105,4 -105,10 0,6 -47,10 -120,10 -73,0 -120,4 -120,10 0,7 -145,10 -415,10 -270,0 -415,-3 -415,-10 z M 1675,3588 c 17,-28 37,-63 45,-77 8,-14 30,-52 48,-84 19,-31 39,-63 46,-70 14,-15 74,-111 87,-141 5,-12 36,-61 69,-111 33,-49 67,-106 77,-125 16,-32 120,-198 164,-262 11,-15 19,-30 19,-34 0,-10 71,-127 91,-149 10,-11 33,-49 52,-85 30,-57 51,-91 141,-227 11,-18 24,-33 28,-33 3,0 12,-17 19,-37 6,-21 15,-40 18,-43 6,-5 97,-142 134,-202 10,-16 15,-28 12,-28 -3,0 -1,-6 5,-12 23,-28 152,-232 154,-244 1,-7 18,-37 38,-66 92,-138 137,-208 133,-208 -6,0 33,-63 109,-179 31,-47 56,-88 56,-93 0,-5 8,-21 19,-36 45,-64 148,-230 164,-262 9,-19 37,-65 62,-103 l 45,-67 -42,26 c -246,155 -542,381 -783,599 -654,591 -1146,1242 -1378,1825 -55,138 -121,364 -113,386 7,19 188,106 326,155 58,21 110,38 115,38 6,1 24,-22 40,-51 z m 65,-1713 c 19,-19 32,-35 29,-35 -3,0 -20,16 -39,35 -19,19 -32,35 -29,35 3,0 20,-16 39,-35 z m 575,-585 c 21,-22 37,-40 34,-40 -3,0 -23,18 -44,40 -21,22 -37,40 -34,40 3,0 23,-18 44,-40 z"
       id="path13714"
       style="fill:#ffffff" />
    <path
       d="m 5190,378 c 0,-5 11,-8 25,-8 14,0 25,3 25,8 0,4 -11,7 -25,7 -14,0 -25,-3 -25,-7 z"
       id="path13722"
       style="fill:#ffffff" />
    <path
       d="m 5085,360 c -4,-6 6,-10 22,-10 22,0 25,2 13,10 -19,12 -27,12 -35,0 z"
       id="path13724"
       style="fill:#ffffff" />
  </g>
  <g
     transform="matrix(0.04530593,0,0,0.04530593,77.472847,207.85933)"
     style="fill:#ffffff;stroke:none"
     id="layer102">
    <path
       d="m 1710.7233,3795.2693 c -138,-49 -478.5066,-249.3751 -485.5066,-268.3751 -8,-22 -163.1088,-131.1777 -108.1088,-269.1777 232,-583 1050.1617,-1997.7845 1704.1617,-2588.78453 C 3062.2696,450.93197 3373,549 3619,394 l 42,-26 c -35.7261,56.29734 -77.8446,109.91053 -107,170 -16,32 116.6858,801.945 71.6858,865.945 -11,15 -107.3822,-543.48427 -107.3822,-538.48427 0,5 22.6964,247.53927 -8.3036,294.53927 -76,116 49.35,234.4384 55.35,234.4384 4,0 -400.35,-216.4384 -492.35,-78.4384 -20,29 119.2391,147.5355 118.2391,154.5355 -2,12 -214.3275,153.5044 -237.3275,181.5044 -6,6 38.8717,121.3673 41.8717,121.3673 3,0 44.8718,-133.8231 34.8718,-117.8231 -37,60 33.447,275.1195 27.447,280.1195 -3,3 -60.2252,189.9822 -66.2252,210.9822 -7,20 -355.8948,-208.0376 -137.4298,-68.4865 248.3243,158.6246 42.5084,-12.0867 31.5084,5.9133 -90,136 -186.1323,150.2149 -216.1323,207.2149 -19,36 -25.7892,226.3583 -35.7892,237.3583 -20,22 -376.5896,-3.8897 -135.1911,134.2697 241.3985,138.1594 502.8147,64.2379 123.5556,-82.7961 -44,64 -143.2519,111.1102 -159.2519,143.1102 -10,19 73.8429,90.7304 -342.1466,139.7304 -33,50 525.2146,172.6518 520.2146,184.6518 -13,30 -662.2146,52.3482 -676.2146,67.3482 -7,7 650.5968,201.034 631.5968,232.034 -759.829,29.4192 -487.5367,-218.532 -652.7539,264.1126 -16,29 569.945,-124.7644 563.945,-125.7644 -5,0 -739.0646,330.8871 -797.0646,309.8871 z"
       id="path13727"
       style="fill:#ffffff" />
    <path
       d="m 734,2873 c 3,-3 -12,-15 -34,-25 -22,-11 -40,-24 -40,-29 0,-5 -6,-9 -12,-9 -13,0 -130,-96 -136,-111 -8,-19 -266.19926,-529.1594 -47.19926,-823.1594 C 863.80074,1341.8406 1973,629.54978 2560,690 c 192,-115 250,-22 378,-67 9,-3 0,12 -22,35 -21,22 -36,45 -32,50 3,5 -2,16 -11,23 -12,10 -14,10 -9,2 11,-19 -9,-16 -25,4 -12,15 -12,16 1,8 8,-5 -120,126 -285,290 -165,164 -277,279 -250,254 44,-38 42,-35 -15,25 -36,38 -55.1681,407.1021 -69.1681,418.1021 C 2168.8319,1773.1021 1761,1834 1765,1840 c 2,4 65.1126,253.2251 13.1126,302.2251 -172,162 -277.4268,559.034 -498.1126,181.7749 15,-8 248.2591,422.6073 -12.7409,677.6073 C 1179.2591,3086.6073 757,2853 762,2858 c 6,6 1,12 -12,15 -12,3 -19,3 -16,0 z m 996,-998 c 19,-19 32,-35 29,-35 -3,0 193.5268,52.4558 174.5268,71.4558 -19,19 520.4522,72.196 523.4522,72.196 3,0 -745.979,-89.6518 -726.979,-108.6518 z"
       id="path13739"
       style="fill:#ffffff" />
    <path
       d="m 385,2130 c -4,-6 -12,-7 -18,-4 -7,4 -9,4 -6,1 3,-4 -14,-28 -39,-54 -68,-74 -172,-216 -172,-236 0,-11 65,-83 147,-166 520,-517 1138,-919 1798,-1169 154,-58 459,-144 625,-176 153,-29 386,-63 427,-62 23,1 39,-2 37,-6 -3,-5 4,-8 14,-8 11,0 22,6 25,14 4,10 -102.1571,437.6073 -131.1571,446.6073 -23,6 143,-167.65183 -7.8429,-364.6073 -32,25 35.8429,351.6073 7.8429,364.6073 C 3063.8429,724.6073 2910,453 2895,466 c -15,13 169.1466,362.6073 86.1466,415.6073 -83,54 112.1465,262.034 109.1465,265.034 C 3079.2931,1159.6413 2490,741 2490,735 c 0,-7 -85,50 -112,75 -9,8 -73,50 -142,93 -70,43 -124,82 -121,87 3,4 -3,7 -13,6 -9,0 -16,5 -14,12 1,8 -2,11 -7,7 -9,-5 -31,9 -67,43 -7,7 -19,11 -26,10 -7,-2 -12,2 -11,8 1,7 -5,11 -15,10 -9,0 -16,4 -15,10 1,7 -5,11 -15,10 -9,0 -16,5 -14,12 1,8 -2,11 -8,7 -5,-3 -10,-1 -10,4 0,6 -5,11 -11,11 -6,0 -41,20 -79,44 -37,25 -71,42 -74,39 -3,-4 -6,-2 -6,3 0,5 -14,18 -30,28 -17,9 -28,21 -25,26 3,4 -3,7 -13,6 -9,0 -16,4 -15,10 1,7 -5,11 -15,10 -9,0 -16,4 -15,10 1,7 -5,11 -15,10 -10,0 -16,5 -14,14 2,8 0,12 -4,8 -4,-4 -19,1 -33,11 -14,10 -46,27 -71,39 -25,12 -58,33 -75,47 -16,14 -44,35 -62,46 -18,12 -31,24 -28,29 3,4 -3,7 -13,6 -9,0 -16,5 -14,12 1,8 -2,11 -7,7 -12,-7 -113,54 -106,65 3,4 -3,7 -13,6 -9,0 -16,5 -14,12 1,8 -2,11 -7,7 -9,-5 -56,18 -71,35 -11,13 -70,51 -70,45 0,-3 -11,2 -25,11 -14,9 -22,21 -18,27 3,6 1,7 -5,3 -12,-7 -109,62 -105,74 1,4 -5,7 -15,6 -10,0 -16,5 -14,13 3,12 0,12 -12,1 -11,-8 -16,-9 -16,-1 0,6 -17,19 -37,29 -21,9 -46,24 -56,32 -10,8 -23,15 -30,15 -7,1 -11,7 -9,13 1,8 -5,12 -15,10 -10,-2 -17,2 -16,10 2,6 -6,12 -18,12 -11,0 -17,5 -14,10 3,6 -1,10 -9,10 -9,0 -16,5 -16,11 0,5 -4,8 -9,4 -6,-3 -14,3 -20,12 -5,10 -13,18 -18,18 -4,0 -7,3 -6,6 1,4 -5,6 -15,5 -9,0 -16,5 -14,12 1,6 -2,11 -6,10 -4,-2 -25,6 -45,17 -27,14 97.57328,-403.1806 101.57328,-390.1806 C 544.57328,1713.8194 396,2147 385,2130 Z"
       id="path13749"
       style="fill:#ffffff" />
    <path
       d="m 3251,1685 c 0,-5 8,-26 19,-45 11,-19 19,-30 19,-25 0,6 -8,26 -19,45 -11,19 -19,31 -19,25 z"
       id="path13751"
       style="fill:#ffffff" />
    <path
       d="m 3360,1456 c 0,-10 60,-126 65,-126 3,0 -9,28 -26,63 -33,65 -39,75 -39,63 z"
       id="path13753"
       style="fill:#ffffff" />
    <path
       d="m 3510,1160 c 11,-22 23,-40 25,-40 3,0 -4,18 -15,40 -11,22 -23,40 -25,40 -3,0 4,-18 15,-40 z"
       id="path13755"
       style="fill:#ffffff" />
    <path
       d="m 3575,1040 c 9,-16 18,-30 21,-30 2,0 -2,14 -11,30 -9,17 -18,30 -21,30 -2,0 2,-13 11,-30 z"
       id="path13757"
       style="fill:#ffffff" />
    <path
       d="m 3900,510 c 12,-16 24,-30 26,-30 3,0 -4,14 -16,30 -12,17 -24,30 -26,30 -3,0 4,-13 16,-30 z"
       id="path13759"
       style="fill:#ffffff" />
    <path
       d="m 3713,223 c 26,-2 67,-2 90,0 23,2 2,3 -48,3 -49,0 -68,-1 -42,-3 z"
       id="path13761"
       style="fill:#ffffff" />
  </g>
  <g
     transform="matrix(0.04659679,0,0,0.04711072,73.240247,132.70346)"
     style="fill:#ffffff;stroke:none"
     id="layer103">
    <path
       d="m 3174.9485,5843.3001 c -245,-17 -497,-62 -619,-111 l -53,-21 7,-106 c 14,-220 46.0662,-837.3284 191.0662,-1304.3284 277,-893 744.3414,-1786.6293 1188.3414,-2361.6293 l 198.5924,-118.0423 111,6 c 159,9 575,63 751,98 162,32 100.9754,-19.5549 334.9754,34.4451 0,0 262.0246,97.5549 270.0246,98.5549 8,1 31,7 50,13 19,6 244.5452,53.3321 307.5452,71.3321 270,75 446.4548,156.6679 722.4548,261.6679 702,266 1918,860 2364.0002,1154 131,87 235,167 235,181 0,20 -513.0002,373 -844.0002,580 -1202,753 -2365,1234 -3386,1400 -670,108 -1361,155 -1829,124 z m 1314,-515 c 233,-59 444,-285 476,-509 6,-42 10,-385 10,-855 0,-760 -1,-786 -20,-817 -27,-46 -80,-59 -136,-34 -23,11 -48,30 -56,43 -10,18 -14,120 -18,453 l -5,430 -27,58 c -35,74 -126,165 -205,203 -52,26 -68,29 -158,29 -121,0 -175,-17 -260,-80 -72,-54 -117,-110 -147,-185 -22,-53 -23,-68 -28,-483 l -5,-429 -28,-24 c -21,-18 -40,-24 -74,-24 -39,0 -50,5 -79,36 l -34,35 v 417 c 0,470 3,490 71,629 55,110 134,190 242,243 116,56 191,74 322,73 157,0 276,-33 378,-105 23,-17 28,-17 33,-4 3,8 4,104 2,213 l -3,198 -30,54 c -73,133 -197,216 -340,228 -73,6 -83,9 -112,39 -44,43 -46,107 -7,153 25,30 29,31 101,31 41,0 103,-7 137,-16 z m 2355,-780 c 15,-9 33,-25 39,-35 17,-27 17,-1341 0,-1368 -28,-46 -103,-58 -152,-26 -58,38 -56,18 -56,720 0,456 3,653 11,668 28,55 102,74 158,41 z m -919,-14 c 251,-40 438,-200 516,-440 15,-48 18,-107 22,-470 4,-443 1,-477 -43,-506 -48,-32 -139,-11 -167,39 -10,16 -14,129 -18,452 l -5,430 -29,59 c -37,76 -127,166 -201,201 -194,92 -454,-3 -546,-200 -45,-96 -49,-142 -49,-548 1,-420 2,-415 -64,-442 -42,-18 -93,-5 -127,31 l -24,26 v 451 452 l 26,67 c 34,88 84,170 134,222 135,141 361,209 575,176 z"
       id="path13764"
       style="fill:#ffffff" />
  </g>
</svg>
